<svg width="506" height="287" viewBox="0 0 506 287" fill="none" xmlns="http://www.w3.org/2000/svg">
<g clip-path="url(#clip0_1140_2819)">
<path d="M254.585 143.3C262.56 139.872 267.55 126.054 264.256 118.392C262.374 114.014 258.438 112.186 253.904 114.135C245.929 117.564 241.006 131.538 244.3 139.2C246.182 143.578 250.207 145.183 254.585 143.3Z" fill="#F8FCF9"/>
<path d="M414.226 94.6771C412.399 99.9089 410.397 108.181 408.037 116.05C406.501 121.528 404.898 126.849 403.381 129.353C399.682 119.457 402.171 106.715 407.344 96.3388C406.467 91.7135 405.323 87.759 403.844 84.3189C403.306 83.0679 402.612 81.8842 400.126 77.3948C395.215 83.2113 389.522 88.0677 384.787 90.8444C384.809 90.4644 384.451 90.0626 384.473 89.6826C384.18 88.1408 383.821 86.4427 382.947 84.4099C381.871 81.908 379.141 79.0057 375.076 80.7536C371.01 82.5015 368.245 88.1368 367.087 91.0435C364.658 97.4606 366.454 104.655 368.807 110.128C370.322 113.652 370.747 115.486 370.71 119.991C370.288 121.776 369.898 123.39 369.472 125.034C366.757 135.095 360.902 154.657 351.05 158.892C347.61 160.371 344.704 159.212 343.225 155.772C342.821 154.834 342.574 153.829 342.416 152.6C357.629 146.615 365.594 134.113 366.76 117.863C367.068 113.84 366.951 109.258 365.136 105.036C361.237 95.9671 351.67 95.2629 344.477 98.3553C327.656 105.587 318.324 133.87 319.53 151.808C319.293 152.864 319.05 153.924 318.796 154.973C317.283 161.367 316.151 167.783 314.587 168.455C313.649 168.858 314.16 166.6 313.959 166.131C306.833 149.556 311.037 93.8344 314.473 68.6427L292.362 81.8542C290.749 97.9253 291.258 112.899 290.403 127.717C287.878 127.877 285.331 128.416 282.985 129.424C273.068 133.688 267.239 144.595 264.526 156.914C264.527 150.785 264.708 144.608 265.239 138.351C256.326 142.183 250.096 147.085 245.586 151.247C245.489 156.276 245.678 164.604 245.835 173.936C244.903 178.184 243.921 182.96 242.879 187.612C241.366 194.006 240.323 200.198 238.447 201.005C237.977 201.206 238.714 200.334 238.58 200.021C235.151 192.046 235.9 163.193 238.297 148.082L217.815 159.481L217.215 161.962C214.466 162.033 211.829 162.796 209.327 163.871C196.463 169.402 188.763 186.48 186.459 203.232C185.894 196.962 184.584 191.212 182.624 186.653C180.54 181.806 175.86 174.369 167.416 177.999C163.038 179.882 159.399 183.484 156.498 187.51L156.652 184.851C146.489 190.517 140.459 194.591 134.208 199.873C134.188 201.634 134.169 203.395 134.155 205.154C128.239 196.845 116.315 199.228 107.956 202.822C100.45 206.049 93.9965 210.862 88.1013 215.249C85.1537 217.442 82.4297 219.725 79.5712 221.695C76.8692 223.598 73.8762 225.255 70.9052 226.533C65.9014 228.684 62.4817 228.487 60.8683 224.734C58.0447 218.166 62.7035 207.456 65.4902 201.44C69.8597 191.78 85.8412 173.793 94.9106 169.894C98.5071 168.348 101.794 169.529 103.34 173.125C105.491 178.129 104.717 184.946 101.104 192.058L104.996 194.646C112.343 188.893 118.707 184.304 124.757 178.554C126.47 171.333 125.967 161.544 123.278 155.29C119.042 145.438 107.892 147.083 101.481 149.839C96.4768 151.99 91.3854 155.661 86.8084 159.667C82.2313 163.673 77.856 168.148 74.1499 171.594C62.9426 182.156 54.3323 196.603 47.9112 210.11C42.6942 221.246 37.8925 243.69 43.2707 256.2C47.3716 265.738 58.0997 266.128 65.4491 262.968C67.4819 262.094 69.3802 260.908 71.1222 259.788C77.7101 255.288 84.0291 250.163 90.6389 245.283C97.0924 240.471 103.747 236.127 110.784 233.102C114.85 231.354 122.668 227.993 125.021 233.466C129.189 243.161 107.631 270.586 97.4671 274.956C92.7761 276.972 87.8131 275.771 86.1324 271.862C85.4602 270.298 85.1006 268.6 85.2072 264.108L80.0894 264.27L66.5983 290.636C66.8687 292.557 67.0937 293.943 67.6316 295.194C71.1274 303.325 81.2126 308.252 89.8129 304.555C105.606 297.765 118.772 279.692 126.645 266.116C129.086 261.932 131.596 255.736 133.644 248.799C133.398 267.653 133.107 286.832 132.75 307.216C141.663 303.384 149.075 296.492 153.361 292.241C154.13 280.238 153.849 269.243 154.105 258.202C157.235 259.45 160.676 259.267 163.96 257.855C177.149 252.185 184.046 236.735 186.106 220.792C186.582 225.113 187.516 229.044 188.918 232.303C192.682 241.06 199.077 243.869 207.99 240.037C215.809 236.675 220.963 229.272 224.285 221.915C226.993 225.197 230.863 228.165 234.928 226.418C239.3 224.538 242.705 219.312 245.41 213.075C245.062 217.885 244.547 221.427 243.819 222.966C242.682 225.492 241.298 227.014 238.953 228.022C236.138 229.232 232.786 229.191 227.083 226.27L226.173 231.479L237.81 245.188C242.193 247.194 246.887 247.77 251.266 245.887C257.051 243.4 260.263 237.943 261.777 232.846C264.833 222.682 265.481 209.106 265.38 195.197C265.785 196.505 266.227 197.733 266.711 198.858C270.072 206.676 275.689 212.414 285.696 208.111C293.671 204.682 298.355 196.184 301.073 188.716C303.781 191.999 307.561 195.19 311.158 193.644C317.479 190.927 321.816 180.546 324.849 170.528C329.672 179.642 338.751 183.819 349.27 179.297C364.918 172.569 377.326 138.346 380.676 120.73C382.283 119.113 383.775 117.894 385.359 116.722C386.074 116.229 386.721 115.58 387.436 115.088C385.215 127.159 383.34 149.086 385.827 154.872C387.912 159.719 392.471 159.982 396.068 158.436C403.886 155.074 409.527 143.2 413.537 131.842C417.636 120.261 420.571 107.697 422.73 99.3581L414.232 94.6745L414.226 94.6771ZM348.184 114.733C348.809 114.464 348.989 115.313 349.191 115.782C352.619 123.757 348.878 135.741 341.732 140.666C341.678 132.352 342.867 117.019 348.184 114.733ZM167.485 237.627C163.888 239.174 161.648 234.393 158.602 229.033C157.553 230.04 156.593 230.823 155.856 231.696L156.23 226.533C156.737 220.386 157.2 214.999 157.757 213.278C158.492 211.109 162.444 207.372 165.102 206.229C168.698 204.683 171.516 206.065 173.264 210.131C176.356 217.324 173.739 234.938 167.485 237.627ZM218.319 208.917C216.871 212.875 214.328 217.303 211.513 218.513C210.575 218.916 209.524 218.627 208.583 216.438C204.549 207.056 207.264 177.171 215.73 173.161C214.804 183.935 215.76 199.086 218.319 208.917ZM294.212 175.362C293.255 178.738 291.496 184.126 288.368 185.471C286.492 186.277 285.64 183.865 284.968 182.301C280.867 172.762 281.438 144.356 289.589 139.184C289.379 150.761 290.803 164.415 294.212 175.362Z" fill="#F8FCF9"/>
<path d="M175.581 332.266C172.85 333.44 169.776 333.401 167.085 332.164C166.792 332.062 166.508 331.948 166.234 331.824C165.932 331.719 165.648 331.606 165.374 331.481C165.072 331.376 164.788 331.263 164.514 331.138C164.212 331.033 163.928 330.92 163.654 330.796C163.352 330.69 163.068 330.577 162.794 330.453C162.492 330.347 162.208 330.234 161.934 330.11C161.632 330.004 161.348 329.891 161.074 329.767C160.772 329.662 160.488 329.548 160.214 329.424C159.912 329.319 159.628 329.206 159.354 329.081C159.052 328.976 158.768 328.863 158.494 328.738C158.192 328.633 157.908 328.52 157.634 328.396C157.332 328.29 157.048 328.177 156.774 328.053C156.472 327.947 156.188 327.834 155.914 327.71C155.612 327.605 155.328 327.491 155.054 327.367C154.752 327.262 154.468 327.149 154.194 327.024C153.892 326.919 153.608 326.806 153.334 326.681C153.032 326.576 152.748 326.463 152.474 326.339C152.172 326.233 151.888 326.12 151.614 325.996C151.312 325.89 151.028 325.777 150.754 325.653C150.452 325.547 150.169 325.434 149.894 325.31C149.592 325.205 149.309 325.091 149.034 324.967C148.732 324.862 148.449 324.749 148.174 324.624C147.872 324.519 147.589 324.406 147.314 324.281C147.012 324.176 146.729 324.063 146.454 323.939C146.152 323.833 145.869 323.72 145.594 323.596C145.292 323.49 145.009 323.377 144.734 323.253C144.49 323.165 144.252 323.075 144.023 322.974C140.256 325.748 136.445 327.971 132.65 329.603C126.124 332.408 118.484 332.372 111.675 329.513C111.386 329.403 111.102 329.29 110.816 329.17C110.526 329.06 110.242 328.947 109.956 328.828C109.666 328.717 109.382 328.604 109.096 328.485C108.806 328.374 108.522 328.261 108.236 328.142C107.946 328.031 107.662 327.918 107.376 327.799C107.086 327.689 106.802 327.575 106.516 327.456C106.226 327.346 105.942 327.233 105.656 327.113C105.366 327.003 105.082 326.89 104.796 326.771C104.506 326.66 104.222 326.547 103.936 326.428C103.646 326.317 103.362 326.204 103.076 326.085C102.786 325.974 102.502 325.861 102.216 325.742C101.926 325.631 101.642 325.518 101.356 325.399C101.066 325.289 100.782 325.175 100.496 325.056C100.206 324.946 99.9221 324.833 99.6357 324.713C99.3459 324.603 99.0621 324.49 98.7757 324.371C98.4859 324.26 98.2021 324.147 97.9157 324.028C97.6259 323.917 97.3421 323.804 97.0557 323.685C96.7659 323.574 96.4821 323.461 96.1958 323.342C95.9059 323.231 95.6221 323.118 95.3358 322.999C95.046 322.889 94.7622 322.775 94.4758 322.656C94.186 322.546 93.9022 322.433 93.6158 322.313C93.326 322.203 93.0422 322.09 92.7558 321.971C92.466 321.86 92.1822 321.747 91.8958 321.628C91.606 321.517 91.3222 321.404 91.0358 321.285C90.746 321.174 90.4622 321.061 90.1759 320.942C89.886 320.832 89.6022 320.718 89.3159 320.599C89.0261 320.489 88.7423 320.376 88.4559 320.256C88.1661 320.146 87.8823 320.033 87.5959 319.914C87.3061 319.803 87.0223 319.69 86.7359 319.571C86.4461 319.46 86.1623 319.347 85.8759 319.228C85.5861 319.117 85.3023 319.004 85.0159 318.885C84.7261 318.774 84.4423 318.661 84.156 318.542C83.8661 318.432 83.5824 318.318 83.296 318.199C83.0062 318.089 82.7224 317.976 82.436 317.856C82.1462 317.746 81.8624 317.633 81.576 317.514C81.2862 317.403 81.0024 317.29 80.716 317.171C80.4262 317.06 80.1424 316.947 79.856 316.828C79.5662 316.717 79.2824 316.604 78.996 316.485C78.7062 316.374 78.4224 316.261 78.1361 316.142C77.8462 316.032 77.5625 315.918 77.2761 315.799C76.9863 315.689 76.7025 315.576 76.4161 315.456C76.1263 315.346 75.8425 315.233 75.5561 315.114C75.2663 315.003 74.9825 314.89 74.6961 314.771C74.4063 314.66 74.1225 314.547 73.8361 314.428C66.7345 311.716 60.9698 306.214 58.0066 299.322C56.9542 296.874 56.5786 294.591 56.225 292.078C55.9234 289.935 56.2879 287.783 57.276 285.854L60.8387 278.893C60.6177 278.81 60.4027 278.724 60.1912 278.63C59.9014 278.519 59.6176 278.406 59.3312 278.287C59.0414 278.176 58.7576 278.063 58.4712 277.944C58.1814 277.833 57.8976 277.72 57.6112 277.601C57.3214 277.49 57.0376 277.377 56.7512 277.258C56.4614 277.148 56.1776 277.034 55.8912 276.915C55.6014 276.805 55.3176 276.692 55.0313 276.572C54.7415 276.462 54.4577 276.349 54.1713 276.23C53.8815 276.119 53.5977 276.006 53.3113 275.887C53.0215 275.776 52.7377 275.663 52.4513 275.544C52.1615 275.433 51.8777 275.32 51.5913 275.201C51.3015 275.09 51.0177 274.977 50.7313 274.858C50.4415 274.748 50.1577 274.634 49.8713 274.515C49.5815 274.405 49.2977 274.292 49.0114 274.172C48.7216 274.062 48.4378 273.949 48.1514 273.83C47.8616 273.719 47.5778 273.606 47.2914 273.487C41.1444 271.156 36.3081 266.487 33.6578 260.322C26.7799 244.325 32.3121 218.723 38.4354 205.651C46.8958 187.855 56.4934 173.831 66.9777 163.957C68.3163 162.712 69.7047 161.367 71.1799 159.942C73.8322 157.376 76.8203 154.481 79.9237 151.771C85.9984 146.459 91.8624 142.563 97.3593 140.199C105.641 136.639 114.288 136.249 121.102 139.12C121.392 139.231 121.675 139.344 121.962 139.463C122.252 139.573 122.535 139.687 122.822 139.806C123.112 139.916 123.395 140.029 123.682 140.149C123.972 140.259 124.255 140.372 124.542 140.491C124.831 140.602 125.115 140.715 125.402 140.834C125.691 140.945 125.975 141.058 126.262 141.177C126.551 141.288 126.835 141.401 127.122 141.52C127.411 141.631 127.695 141.744 127.982 141.863C128.271 141.973 128.555 142.087 128.842 142.206C129.131 142.316 129.415 142.429 129.702 142.549C129.991 142.659 130.275 142.772 130.562 142.891C130.851 143.002 131.135 143.115 131.422 143.234C131.711 143.345 131.995 143.458 132.282 143.577C132.571 143.688 132.855 143.801 133.142 143.92C133.431 144.031 133.715 144.144 134.002 144.263C134.291 144.373 134.575 144.487 134.862 144.606C135.151 144.716 135.435 144.829 135.721 144.949C136.011 145.059 136.295 145.172 136.581 145.291C136.871 145.402 137.155 145.515 137.441 145.634C137.731 145.745 138.015 145.858 138.301 145.977C138.591 146.088 138.875 146.201 139.161 146.32C139.451 146.43 139.735 146.544 140.021 146.663C140.311 146.773 140.595 146.886 140.881 147.006C141.171 147.116 141.455 147.229 141.741 147.348C142.031 147.459 142.315 147.572 142.601 147.691C142.891 147.802 143.175 147.915 143.461 148.034C143.751 148.145 144.035 148.258 144.321 148.377C144.611 148.488 144.895 148.601 145.181 148.72C145.471 148.83 145.755 148.944 146.041 149.063C146.331 149.173 146.615 149.286 146.901 149.406C147.191 149.516 147.475 149.629 147.761 149.748C148.051 149.859 148.335 149.972 148.621 150.091C148.911 150.202 149.195 150.315 149.481 150.434C149.771 150.545 150.055 150.658 150.341 150.777C150.631 150.888 150.915 151.001 151.201 151.12C151.491 151.23 151.775 151.344 152.061 151.463C152.351 151.573 152.635 151.686 152.921 151.806C153.211 151.916 153.495 152.029 153.781 152.148C154.071 152.259 154.355 152.372 154.641 152.491C154.931 152.602 155.215 152.715 155.501 152.834C155.791 152.945 156.075 153.058 156.361 153.177C156.651 153.287 156.935 153.401 157.221 153.52C157.511 153.63 157.795 153.743 158.081 153.863C158.371 153.973 158.655 154.086 158.941 154.205C164.668 156.354 169.041 160.609 171.597 166.522C174.229 166.495 176.804 166.998 179.217 168.035C179.504 168.139 179.788 168.252 180.077 168.377C180.364 168.482 180.65 168.601 180.937 168.72C181.224 168.825 181.51 168.944 181.797 169.063C182.084 169.168 182.37 169.287 182.657 169.406C182.944 169.51 183.23 169.63 183.517 169.749C183.804 169.853 184.09 169.972 184.377 170.092C184.664 170.196 184.95 170.315 185.237 170.435C185.524 170.539 185.81 170.658 186.097 170.777C186.292 170.85 186.49 170.929 186.687 171.008C191.669 163.087 198.013 157.324 205.212 154.229C206.842 153.528 208.42 152.971 209.972 152.539C210.751 151.648 211.689 150.896 212.74 150.308C212.74 150.308 233.285 138.874 233.319 138.853C230.711 125.943 238.147 109.492 249.784 104.489C254.632 102.405 259.774 102.332 264.283 104.284C264.579 104.392 264.862 104.505 265.143 104.627C265.439 104.735 265.722 104.848 266.003 104.97C266.299 105.078 266.582 105.191 266.863 105.313C267.159 105.421 267.442 105.534 267.723 105.656C268.019 105.764 268.302 105.877 268.583 105.998C268.878 106.106 269.162 106.22 269.443 106.341C269.738 106.449 270.022 106.562 270.303 106.684C270.598 106.792 270.882 106.905 271.163 107.027C271.458 107.135 271.742 107.248 272.023 107.37C272.318 107.478 272.602 107.591 272.883 107.713C273.178 107.821 273.462 107.934 273.743 108.056C274.038 108.164 274.322 108.277 274.603 108.398C274.898 108.506 275.182 108.62 275.463 108.741C275.758 108.849 276.042 108.962 276.323 109.084C276.618 109.192 276.902 109.305 277.183 109.427C277.478 109.535 277.762 109.648 278.043 109.77C278.338 109.878 278.622 109.991 278.902 110.113C279.198 110.221 279.482 110.334 279.762 110.456C280.024 110.55 280.282 110.653 280.525 110.755C280.532 110.438 280.541 110.128 280.547 109.812C280.746 100.512 280.948 90.9199 281.967 80.7764C282.294 77.4933 284.181 74.5229 287.017 72.8332L309.128 59.6216C309.526 59.3865 309.94 59.1729 310.367 58.9893C313.091 57.818 316.157 57.854 318.845 59.0853C319.138 59.1873 319.422 59.3004 319.696 59.4247C319.99 59.5267 320.282 59.6433 320.556 59.7676C320.85 59.8695 321.142 59.9861 321.416 60.1104C321.71 60.2124 322.002 60.329 322.276 60.4533C322.57 60.5552 322.862 60.6718 323.136 60.7961C323.43 60.8981 323.722 61.0147 323.996 61.139C324.29 61.2409 324.582 61.3575 324.856 61.4818C325.15 61.5838 325.442 61.7004 325.716 61.8247C326.01 61.9266 326.302 62.0432 326.576 62.1675C326.87 62.2695 327.162 62.3861 327.436 62.5104C327.73 62.6123 328.022 62.7289 328.296 62.8532C328.59 62.9552 328.882 63.0718 329.156 63.1961C329.45 63.298 329.742 63.4146 330.016 63.5389C330.31 63.6409 330.602 63.7575 330.876 63.8818C331.17 63.9837 331.462 64.1003 331.736 64.2246C332.03 64.3266 332.322 64.4432 332.596 64.5675C332.889 64.6694 333.182 64.786 333.456 64.9103C333.749 65.0123 334.042 65.1289 334.316 65.2532C334.609 65.3551 334.902 65.4717 335.176 65.596C335.469 65.698 335.762 65.8146 336.036 65.9389C336.329 66.0408 336.622 66.1574 336.896 66.2817C337.189 66.3837 337.482 66.5003 337.756 66.6246C338.049 66.7265 338.342 66.8431 338.616 66.9674C338.909 67.0694 339.202 67.186 339.476 67.3103C339.769 67.4122 340.062 67.5288 340.336 67.6531C340.629 67.7551 340.922 67.8717 341.196 67.996C341.489 68.098 341.782 68.2145 342.056 68.3388C342.349 68.4408 342.642 68.5574 342.916 68.6817C343.209 68.7837 343.502 68.9002 343.776 69.0245C344.069 69.1265 344.362 69.2431 344.636 69.3674C344.929 69.4694 345.222 69.5859 345.496 69.7102C345.789 69.8122 346.082 69.9288 346.356 70.0531C346.649 70.1551 346.942 70.2716 347.216 70.3959C347.509 70.4979 347.802 70.6145 348.076 70.7388C348.369 70.8408 348.662 70.9573 348.936 71.0816C349.229 71.1836 349.522 71.3002 349.796 71.4245C350.089 71.5264 350.382 71.643 350.656 71.7673C350.949 71.8693 351.242 71.9859 351.516 72.1102C351.809 72.2121 352.102 72.3287 352.376 72.453C352.669 72.555 352.962 72.6716 353.236 72.7959C353.529 72.8979 353.822 73.0144 354.096 73.1387C354.389 73.2407 354.682 73.3573 354.956 73.4816C355.249 73.5836 355.542 73.7001 355.816 73.8244C356.109 73.9264 356.401 74.043 356.676 74.1673C357.498 74.4552 358.274 74.8342 358.98 75.3002C360.243 76.1325 361.288 77.2222 362.067 78.4694C364.603 75.0204 367.584 72.556 370.97 71.1002C375.132 69.3109 379.597 69.2723 383.56 70.9818C383.847 71.0863 384.131 71.1995 384.42 71.3246C384.707 71.4292 384.991 71.5423 385.28 71.6675C385.567 71.772 385.851 71.8852 386.14 72.0103C386.427 72.1149 386.711 72.228 387 72.3532C387.287 72.4577 387.571 72.5709 387.86 72.696C388.147 72.8006 388.431 72.9137 388.72 73.0389C389.007 73.1434 389.291 73.2566 389.58 73.3817C389.597 73.3886 389.621 73.3929 389.64 73.4057C390.511 72.497 391.348 71.5599 392.151 70.6092C393.195 69.3762 394.528 68.3827 396.014 67.744C397.632 67.0485 399.416 66.7731 401.171 66.9447C402.326 67.0611 403.446 67.3633 404.503 67.8495C404.796 67.9514 405.074 68.0672 405.346 68.1855C405.639 68.2874 405.932 68.404 406.206 68.5283C406.499 68.6303 406.792 68.7468 407.066 68.8712C407.359 68.9731 407.652 69.0897 407.926 69.214C408.219 69.316 408.512 69.4325 408.786 69.5569C409.079 69.6588 409.372 69.7754 409.646 69.8997C409.939 70.0017 410.232 70.1182 410.506 70.2426C410.799 70.3445 411.091 70.4611 411.366 70.5854C411.659 70.6874 411.951 70.8039 412.226 70.9283C412.519 71.0302 412.811 71.1468 413.086 71.2711C413.379 71.3731 413.671 71.4896 413.946 71.614C414.239 71.7159 414.531 71.8325 414.806 71.9568C415.099 72.0588 415.391 72.1753 415.666 72.2997C415.959 72.4016 416.251 72.5182 416.526 72.6425C416.819 72.7445 417.111 72.861 417.386 72.9854C417.679 73.0873 417.971 73.2039 418.246 73.3282C418.539 73.4302 418.831 73.5467 419.106 73.6711C419.399 73.773 419.691 73.8896 419.966 74.0139C420.259 74.1159 420.551 74.2324 420.826 74.3568C421.119 74.4587 421.411 74.5753 421.686 74.6996C421.979 74.8016 422.271 74.9181 422.546 75.0425C422.839 75.1444 423.131 75.261 423.406 75.3853C423.699 75.4873 423.991 75.6039 424.266 75.7282C424.559 75.8301 424.851 75.9467 425.126 76.071C425.419 76.173 425.711 76.2896 425.986 76.4139C426.279 76.5158 426.571 76.6324 426.846 76.7567C427.139 76.8587 427.431 76.9753 427.706 77.0996C427.999 77.2015 428.291 77.3181 428.566 77.4424C428.859 77.5444 429.151 77.661 429.426 77.7853C429.719 77.8872 430.011 78.0038 430.286 78.1281C430.579 78.2301 430.871 78.3467 431.146 78.471C431.439 78.5729 431.731 78.6895 432.005 78.8138C432.299 78.9158 432.591 79.0324 432.865 79.1567C433.159 79.2586 433.451 79.3752 433.725 79.4995C434.019 79.6015 434.311 79.7181 434.585 79.8424C434.879 79.9443 435.171 80.0609 435.445 80.1852C435.739 80.2872 436.031 80.4038 436.305 80.5281C436.599 80.63 436.891 80.7466 437.165 80.8709C437.459 80.9729 437.751 81.0895 438.025 81.2138C438.319 81.3157 438.611 81.4323 438.885 81.5566C439.179 81.6586 439.471 81.7752 439.745 81.8995C440.039 82.0014 440.331 82.118 440.605 82.2423C440.899 82.3443 441.191 82.4609 441.465 82.5852C441.767 82.6906 442.051 82.8037 442.334 82.9315C444.76 83.784 446.762 85.4742 448.008 87.7249L449.23 89.9215C450.864 92.8603 451.538 94.081 452.185 95.5846C452.661 96.6912 453.105 97.8399 453.528 99.0403C453.605 99.0712 453.677 99.1046 453.757 99.1415C454.041 99.24 454.325 99.3531 454.617 99.4843C454.901 99.5828 455.185 99.696 455.477 99.8272C455.761 99.9257 456.045 100.039 456.328 100.167C456.903 100.361 457.467 100.611 457.998 100.902L466.499 105.592C470.691 107.901 472.784 112.752 471.584 117.386C471.233 118.742 470.861 120.213 470.466 121.765L470.418 121.95C468.312 130.294 465.684 140.674 462.121 150.735C455.662 169.025 448.291 179.427 438.915 183.458C433.917 185.607 428.679 185.721 424.139 183.796C423.808 183.675 423.507 183.555 423.27 183.45C422.94 183.328 422.645 183.206 422.41 183.107C422.08 182.985 421.785 182.863 421.55 182.764C421.22 182.643 420.925 182.52 420.69 182.421C420.36 182.3 420.065 182.177 419.83 182.079C419.5 181.957 419.205 181.834 418.97 181.736C418.64 181.614 418.345 181.491 418.11 181.393C417.78 181.271 417.485 181.149 417.25 181.05C416.92 180.928 416.625 180.806 416.39 180.707C416.06 180.585 415.765 180.463 415.53 180.364C415.208 180.246 414.916 180.129 414.687 180.028C407.845 192.654 400.266 200.815 392.117 204.319C383.967 207.822 375.92 207.883 368.783 204.774L368.688 204.736C368.433 204.639 368.183 204.54 367.931 204.434C367.931 204.434 367.682 204.335 367.607 204.31C363.799 211.662 359.321 216.38 354.005 218.666C350.847 220.024 347.367 220.266 343.966 219.398C339.814 225.9 334.636 230.514 328.543 233.133C323.377 235.354 318.285 235.975 313.598 234.984C312.935 241.233 311.916 246.602 310.515 251.266C307.753 260.57 301.919 267.553 294.107 270.912C287.641 273.692 280.431 273.578 273.243 270.583C272.959 270.47 272.669 270.359 272.383 270.24C272.093 270.129 271.809 270.016 271.523 269.897C271.233 269.786 270.949 269.673 270.663 269.554C270.373 269.444 270.089 269.33 269.803 269.211C269.513 269.101 269.229 268.988 268.943 268.868C268.653 268.758 268.369 268.645 268.083 268.526C267.793 268.415 267.51 268.302 267.223 268.183C266.933 268.072 266.65 267.959 266.363 267.84C266.073 267.729 265.79 267.616 265.503 267.497C265.213 267.386 264.93 267.273 264.643 267.154C264.353 267.044 264.07 266.93 263.783 266.811C263.493 266.701 263.21 266.588 262.923 266.468C262.633 266.358 262.35 266.245 262.063 266.126C261.773 266.015 261.49 265.902 261.203 265.783C260.913 265.672 260.63 265.559 260.343 265.44C260.053 265.329 259.77 265.216 259.483 265.097C259.193 264.987 258.91 264.873 258.623 264.754C258.333 264.644 258.05 264.531 257.763 264.411C257.473 264.301 257.19 264.188 256.903 264.069C256.613 263.958 256.33 263.845 256.043 263.726C255.754 263.615 255.47 263.502 255.183 263.383C254.988 263.31 254.79 263.231 254.593 263.152C253.363 263.873 252.106 264.513 250.831 265.061C243.879 268.05 237.15 268.393 231.367 266.047C231.088 265.946 230.819 265.834 230.544 265.724L230.484 265.7C230.214 265.603 229.945 265.49 229.684 265.381L229.624 265.357C229.354 265.26 229.085 265.147 228.824 265.039L228.764 265.015C228.494 264.917 228.225 264.805 227.964 264.696L227.904 264.672C227.634 264.574 227.365 264.462 227.104 264.353C227.104 264.353 226.846 264.25 226.746 264.215C221.738 272.988 214.917 279.398 206.804 282.886C205.607 283.4 204.383 283.819 203.154 284.141C203.156 284.411 203.149 284.678 203.151 284.948C203.1 292.388 203.05 300.077 202.525 308.319C202.363 310.876 201.268 313.285 199.448 315.086C194.173 320.318 185.956 327.791 175.6 332.244L175.581 332.266Z" fill="#F8FCF9"/>
<path d="M463.948 110.204L455.45 105.52C455.112 105.33 454.751 105.186 454.385 105.08C454.105 104.944 453.819 104.825 453.525 104.737C453.245 104.601 452.959 104.482 452.665 104.394C452.385 104.258 452.099 104.139 451.805 104.052C451.525 103.915 451.239 103.796 450.945 103.709C450.665 103.572 450.379 103.453 450.085 103.366C449.831 103.24 449.565 103.134 449.3 103.048C448.717 101.146 448.078 99.3616 447.357 97.6837C446.816 96.4267 446.221 95.3572 444.635 92.4975L443.411 90.2949C442.746 89.0982 441.644 88.2253 440.356 87.8313C440.083 87.6924 439.793 87.5818 439.496 87.4885C439.223 87.3496 438.933 87.239 438.636 87.1456C438.363 87.0067 438.073 86.8962 437.776 86.8028C437.503 86.6639 437.213 86.5533 436.916 86.4599C436.643 86.321 436.353 86.2104 436.056 86.1171C435.783 85.9781 435.493 85.8676 435.196 85.7742C434.923 85.6353 434.633 85.5247 434.336 85.4314C434.063 85.2924 433.773 85.1819 433.476 85.0885C433.203 84.9496 432.913 84.839 432.616 84.7457C432.343 84.6067 432.053 84.4962 431.756 84.4028C431.483 84.2639 431.193 84.1533 430.896 84.06C430.623 83.921 430.333 83.8105 430.036 83.7171C429.763 83.5782 429.473 83.4676 429.176 83.3743C428.903 83.2353 428.613 83.1248 428.316 83.0314C428.043 82.8925 427.753 82.7819 427.456 82.6886C427.183 82.5496 426.893 82.4391 426.596 82.3457C426.323 82.2068 426.033 82.0962 425.736 82.0029C425.463 81.8639 425.173 81.7534 424.876 81.66C424.603 81.5211 424.313 81.4105 424.016 81.3172C423.743 81.1782 423.453 81.0677 423.156 80.9743C422.883 80.8354 422.593 80.7248 422.296 80.6315C422.023 80.4925 421.733 80.382 421.437 80.2886C421.163 80.1497 420.873 80.0391 420.577 79.9458C420.303 79.8068 420.013 79.6963 419.717 79.6029C419.443 79.464 419.153 79.3534 418.857 79.2601C418.583 79.1211 418.293 79.0106 417.997 78.9172C417.723 78.7783 417.433 78.6677 417.137 78.5744C416.863 78.4354 416.573 78.3249 416.277 78.2315C416.003 78.0926 415.713 77.982 415.417 77.8887C415.143 77.7497 414.853 77.6392 414.557 77.5458C414.283 77.4069 413.993 77.2963 413.697 77.203C413.423 77.064 413.133 76.9535 412.837 76.8601C412.563 76.7212 412.273 76.6106 411.977 76.5173C411.703 76.3783 411.413 76.2678 411.117 76.1744C410.843 76.0355 410.553 75.9249 410.257 75.8316C409.983 75.6926 409.693 75.5821 409.397 75.4887C409.123 75.3498 408.833 75.2392 408.537 75.1459C408.263 75.0069 407.973 74.8964 407.677 74.803C407.403 74.6641 407.113 74.5535 406.817 74.4602C406.543 74.3212 406.253 74.2107 405.957 74.1173C405.683 73.9784 405.393 73.8678 405.097 73.7745C404.823 73.6355 404.533 73.525 404.237 73.4316C403.963 73.2927 403.673 73.1821 403.377 73.0888C403.103 72.9498 402.813 72.8393 402.517 72.7459C401.941 72.4517 401.302 72.2565 400.64 72.1919C399.747 72.1052 398.862 72.2507 398.062 72.5946C397.328 72.91 396.661 73.3965 396.126 74.0254C394.48 75.9803 392.692 77.8537 390.868 79.5784C390.65 79.4867 390.427 79.3976 390.2 79.317C389.917 79.1893 389.633 79.0761 389.34 78.9742C389.057 78.8464 388.773 78.7333 388.48 78.6313C388.197 78.5036 387.913 78.3904 387.62 78.2885C387.337 78.1607 387.053 78.0476 386.76 77.9456C386.477 77.8179 386.193 77.7047 385.9 77.6028C385.617 77.475 385.333 77.3619 385.04 77.2599C384.757 77.1322 384.473 77.019 384.18 76.9171C383.897 76.7893 383.613 76.6762 383.32 76.5742C383.037 76.4465 382.753 76.3333 382.46 76.2314C382.177 76.1036 381.893 75.9905 381.6 75.8885C379.11 74.7713 376.161 74.5925 373.01 75.9474C368.577 77.853 364.944 82.2798 362.222 89.1081C362.211 89.1339 362.198 89.1683 362.187 89.194C361.685 90.5287 361.308 91.9234 361.058 93.3635C360.789 93.2512 360.514 93.1415 360.241 93.0378C359.349 92.652 358.408 92.3367 357.44 92.0903C357.735 89.5619 358.043 87.1134 358.366 84.7801C358.636 82.7899 357.744 80.8147 356.063 79.706C355.634 79.4203 355.176 79.2179 354.701 79.0732C354.425 78.9282 354.135 78.8177 353.841 78.7304C353.565 78.5854 353.275 78.4748 352.981 78.3875C352.705 78.2425 352.415 78.132 352.121 78.0447C351.845 77.8997 351.555 77.7891 351.261 77.7018C350.985 77.5568 350.695 77.4463 350.401 77.359C350.125 77.214 349.835 77.1034 349.541 77.0161C349.265 76.8712 348.975 76.7606 348.681 76.6733C348.405 76.5283 348.115 76.4177 347.821 76.3304C347.545 76.1855 347.255 76.0749 346.961 75.9876C346.685 75.8426 346.395 75.732 346.101 75.6447C345.825 75.4997 345.535 75.3892 345.241 75.3019C344.965 75.1569 344.675 75.0463 344.381 74.959C344.105 74.814 343.815 74.7035 343.521 74.6161C343.245 74.4712 342.955 74.3606 342.661 74.2733C342.385 74.1283 342.095 74.0178 341.801 73.9304C341.525 73.7855 341.235 73.6749 340.941 73.5876C340.665 73.4426 340.375 73.3321 340.081 73.2447C339.805 73.0998 339.515 72.9892 339.221 72.9019C338.945 72.7569 338.655 72.6464 338.361 72.559C338.085 72.4141 337.795 72.3035 337.501 72.2162C337.225 72.0712 336.935 71.9607 336.641 71.8733C336.365 71.7284 336.075 71.6178 335.781 71.5305C335.505 71.3855 335.215 71.275 334.921 71.1876C334.645 71.0427 334.355 70.9321 334.061 70.8448C333.785 70.6998 333.495 70.5893 333.201 70.5019C332.925 70.357 332.635 70.2464 332.341 70.1591C332.065 70.0141 331.775 69.9036 331.481 69.8162C331.205 69.6713 330.915 69.5607 330.621 69.4734C330.345 69.3284 330.055 69.2179 329.761 69.1305C329.485 68.9856 329.195 68.875 328.901 68.7877C328.625 68.6427 328.335 68.5322 328.041 68.4448C327.765 68.2999 327.475 68.1893 327.181 68.102C326.905 67.957 326.615 67.8465 326.321 67.7591C326.045 67.6142 325.755 67.5036 325.461 67.4163C325.185 67.2713 324.895 67.1608 324.601 67.0734C324.325 66.9285 324.035 66.8179 323.741 66.7306C323.465 66.5856 323.175 66.4751 322.881 66.3877C322.605 66.2428 322.315 66.1322 322.021 66.0449C321.745 65.8999 321.455 65.7894 321.161 65.702C320.885 65.5571 320.595 65.4465 320.301 65.3592C320.025 65.2142 319.735 65.1037 319.441 65.0163C319.165 64.8714 318.875 64.7608 318.581 64.6735C318.305 64.5285 318.015 64.418 317.721 64.3306C317.445 64.1857 317.155 64.0751 316.861 63.9878C315.474 63.2802 313.838 63.2211 312.413 63.8339C312.202 63.9244 311.991 64.0295 311.793 64.15L289.683 77.3615C288.258 78.209 287.326 79.686 287.157 81.3332C286.159 91.2755 285.957 100.768 285.759 109.953C285.698 112.844 285.632 115.658 285.554 118.443C285.554 118.443 285.539 118.442 285.537 118.436C285.254 118.308 284.97 118.195 284.677 118.093C284.394 117.965 284.11 117.852 283.817 117.75C283.534 117.622 283.25 117.509 282.957 117.407C282.674 117.28 282.39 117.166 282.097 117.064C281.814 116.937 281.53 116.824 281.237 116.722C280.954 116.594 280.67 116.481 280.377 116.379C280.094 116.251 279.81 116.138 279.517 116.036C279.234 115.908 278.95 115.795 278.657 115.693C278.374 115.565 278.09 115.452 277.797 115.35C277.514 115.222 277.23 115.109 276.937 115.007C276.654 114.88 276.37 114.766 276.077 114.665C275.794 114.537 275.51 114.424 275.217 114.322C274.934 114.194 274.65 114.081 274.357 113.979C274.074 113.851 273.79 113.738 273.497 113.636C273.214 113.508 272.93 113.395 272.637 113.293C272.354 113.165 272.07 113.052 271.777 112.95C271.494 112.823 271.21 112.709 270.917 112.607C270.634 112.48 270.35 112.367 270.057 112.265C269.774 112.137 269.49 112.024 269.197 111.922C268.914 111.794 268.63 111.681 268.337 111.579C268.054 111.451 267.77 111.338 267.477 111.236C267.194 111.108 266.91 110.995 266.617 110.893C266.334 110.765 266.05 110.652 265.757 110.55C265.474 110.423 265.19 110.309 264.897 110.207C264.614 110.08 264.33 109.967 264.037 109.865C263.754 109.737 263.47 109.624 263.177 109.522C262.894 109.394 262.61 109.281 262.317 109.179C259.195 107.785 255.517 107.749 251.836 109.331C241.552 113.753 234.972 130.769 239.49 141.276C239.815 142.033 240.197 142.739 240.614 143.393C239.248 142.719 237.644 142.668 236.231 143.275C236.068 143.345 235.908 143.421 235.748 143.511L215.266 154.911C214.324 155.437 213.571 156.238 213.105 157.194C211.218 157.578 209.276 158.199 207.255 159.067C200.183 162.108 193.978 168.261 189.323 176.86C189.198 177.099 189.067 177.341 188.944 177.586C188.772 177.517 188.6 177.449 188.422 177.383C188.139 177.255 187.849 177.145 187.562 177.04C187.279 176.912 186.989 176.802 186.702 176.697C186.419 176.569 186.129 176.459 185.842 176.354C185.559 176.227 185.269 176.116 184.982 176.011C184.699 175.884 184.409 175.773 184.122 175.669C183.839 175.541 183.549 175.43 183.262 175.326C182.979 175.198 182.689 175.087 182.402 174.983C182.119 174.855 181.83 174.745 181.542 174.64C181.259 174.512 180.97 174.402 180.682 174.297C180.399 174.169 180.11 174.059 179.822 173.954C179.539 173.827 179.25 173.716 178.962 173.612C178.679 173.484 178.39 173.373 178.102 173.269C177.819 173.141 177.53 173.03 177.242 172.926C174.411 171.678 171.302 171.44 168.042 172.278C167.679 171.002 167.26 169.778 166.781 168.666C164.633 163.668 161.116 160.626 156.978 159.106C156.698 158.984 156.405 158.868 156.118 158.763C155.838 158.642 155.545 158.525 155.258 158.421C154.978 158.299 154.685 158.182 154.398 158.078C154.118 157.956 153.825 157.839 153.538 157.735C153.258 157.613 152.965 157.496 152.678 157.392C152.398 157.27 152.105 157.154 151.818 157.049C151.538 156.927 151.245 156.811 150.958 156.706C150.678 156.585 150.385 156.468 150.098 156.363C149.818 156.242 149.525 156.125 149.238 156.021C148.958 155.899 148.665 155.782 148.378 155.678C148.098 155.556 147.805 155.439 147.518 155.335C147.238 155.213 146.945 155.097 146.658 154.992C146.378 154.87 146.085 154.754 145.798 154.649C145.518 154.527 145.225 154.411 144.938 154.306C144.658 154.185 144.365 154.068 144.078 153.963C143.798 153.842 143.505 153.725 143.218 153.621C142.938 153.499 142.645 153.382 142.358 153.278C142.078 153.156 141.785 153.039 141.498 152.935C141.218 152.813 140.925 152.697 140.638 152.592C140.358 152.47 140.065 152.354 139.778 152.249C139.498 152.127 139.205 152.011 138.918 151.906C138.638 151.785 138.346 151.668 138.058 151.563C137.778 151.442 137.486 151.325 137.198 151.221C136.918 151.099 136.626 150.982 136.338 150.878C136.058 150.756 135.766 150.639 135.478 150.535C135.198 150.413 134.906 150.297 134.618 150.192C134.338 150.07 134.046 149.954 133.758 149.849C133.478 149.727 133.186 149.611 132.898 149.506C132.618 149.385 132.326 149.268 132.038 149.164C131.758 149.042 131.466 148.925 131.178 148.821C130.898 148.699 130.606 148.582 130.318 148.478C130.038 148.356 129.746 148.24 129.458 148.135C129.178 148.013 128.886 147.897 128.598 147.792C128.318 147.67 128.026 147.554 127.738 147.449C127.458 147.328 127.166 147.211 126.878 147.106C126.598 146.985 126.306 146.868 126.018 146.764C125.738 146.642 125.446 146.525 125.158 146.421C124.878 146.299 124.586 146.182 124.299 146.078C124.018 145.956 123.726 145.84 123.439 145.735C123.158 145.613 122.866 145.497 122.579 145.392C122.298 145.27 122.006 145.154 121.719 145.049C121.438 144.928 121.146 144.811 120.859 144.706C120.578 144.585 120.286 144.468 119.999 144.364C119.718 144.242 119.426 144.125 119.139 144.021C113.221 141.477 105.864 142.267 99.4053 145.044C94.4135 147.19 89.0125 150.788 83.3543 155.743C80.3522 158.373 77.4019 161.224 74.8054 163.737C73.3114 165.184 71.8981 166.554 70.5534 167.802C60.5465 177.228 51.3377 190.714 43.1672 207.909C37.6226 219.741 32.2857 243.941 38.4551 258.29C40.5831 263.24 44.3548 266.842 49.2265 268.659C49.5069 268.781 49.7967 268.892 50.0865 269.002C50.3669 269.124 50.6567 269.234 50.9465 269.345C51.2268 269.467 51.5167 269.577 51.8065 269.688C52.0868 269.81 52.3766 269.92 52.6664 270.031C52.9468 270.152 53.2366 270.263 53.5264 270.374C53.8068 270.495 54.0966 270.606 54.3864 270.716C54.6668 270.838 54.9566 270.949 55.2464 271.059C55.5268 271.181 55.8166 271.292 56.1064 271.402C56.3868 271.524 56.6766 271.634 56.9664 271.745C57.2467 271.867 57.5365 271.977 57.8264 272.088C58.1067 272.21 58.3965 272.32 58.6863 272.431C58.9667 272.552 59.2565 272.663 59.5463 272.774C59.8267 272.895 60.1165 273.006 60.4063 273.116C60.6867 273.238 60.9765 273.349 61.2663 273.459C61.5467 273.581 61.8365 273.692 62.1263 273.802C62.4066 273.924 62.6965 274.034 62.9863 274.145C63.2666 274.267 63.5564 274.377 63.8463 274.488C64.1266 274.609 64.4164 274.72 64.7062 274.831C64.9866 274.952 65.2764 275.063 65.5662 275.173C65.8466 275.295 66.1364 275.406 66.4262 275.516C66.7066 275.638 66.9964 275.749 67.2862 275.859C67.558 275.977 67.8332 276.087 68.1144 276.194L61.9306 288.28C61.4383 289.24 61.2556 290.324 61.4081 291.391C61.7149 293.596 62.0196 295.432 62.8185 297.29C65.3448 303.166 70.1866 307.484 75.7859 309.601C76.0722 309.72 76.356 309.834 76.6458 309.944C76.9322 310.063 77.216 310.176 77.5058 310.287C77.7922 310.406 78.076 310.519 78.3658 310.63C78.6522 310.749 78.936 310.862 79.2258 310.973C79.5122 311.092 79.796 311.205 80.0858 311.316C80.3722 311.435 80.656 311.548 80.9458 311.658C81.2322 311.778 81.5159 311.891 81.8058 312.001C82.0921 312.12 82.3759 312.234 82.6657 312.344C82.9521 312.463 83.2359 312.576 83.5257 312.687C83.8121 312.806 84.0959 312.919 84.3857 313.03C84.6721 313.149 84.9559 313.262 85.2457 313.373C85.5321 313.492 85.8159 313.605 86.1057 313.716C86.3921 313.835 86.6759 313.948 86.9657 314.058C87.252 314.178 87.5358 314.291 87.8257 314.401C88.112 314.52 88.3958 314.634 88.6856 314.744C88.972 314.863 89.2558 314.976 89.5456 315.087C89.832 315.206 90.1158 315.319 90.4056 315.43C90.692 315.549 90.9758 315.662 91.2656 315.773C91.552 315.892 91.8358 316.005 92.1256 316.115C92.412 316.235 92.6958 316.348 92.9856 316.458C93.2719 316.577 93.5557 316.691 93.8456 316.801C94.1319 316.92 94.4157 317.033 94.7055 317.144C94.9919 317.263 95.2757 317.376 95.5655 317.487C95.8519 317.606 96.1357 317.719 96.4255 317.83C96.7119 317.949 96.9957 318.062 97.2855 318.173C97.5719 318.292 97.8557 318.405 98.1455 318.515C98.4319 318.635 98.7157 318.748 99.0055 318.858C99.2918 318.977 99.5756 319.091 99.8654 319.201C100.152 319.32 100.436 319.433 100.725 319.544C101.012 319.663 101.296 319.776 101.585 319.887C101.872 320.006 102.156 320.119 102.445 320.23C102.732 320.349 103.016 320.462 103.305 320.573C103.592 320.692 103.876 320.805 104.165 320.915C104.452 321.035 104.736 321.148 105.025 321.258C105.312 321.377 105.596 321.491 105.885 321.601C106.172 321.72 106.456 321.833 106.745 321.944C107.032 322.063 107.316 322.176 107.605 322.287C107.892 322.406 108.175 322.519 108.465 322.63C108.752 322.749 109.035 322.862 109.325 322.972C109.612 323.092 109.895 323.205 110.185 323.315C110.472 323.434 110.755 323.548 111.045 323.658C111.332 323.777 111.615 323.89 111.905 324.001C112.192 324.12 112.475 324.233 112.765 324.344C113.052 324.463 113.335 324.576 113.625 324.687C118.958 326.947 125.07 327.191 130.579 324.823C135.042 322.904 139.265 320.198 143.198 317.032C143.216 317.039 143.23 317.039 143.247 317.046C143.524 317.191 143.813 317.302 144.107 317.389C144.384 317.534 144.673 317.645 144.967 317.732C145.244 317.877 145.533 317.987 145.827 318.075C146.104 318.22 146.393 318.33 146.687 318.418C146.963 318.563 147.253 318.673 147.547 318.76C147.823 318.905 148.113 319.016 148.407 319.103C148.683 319.248 148.973 319.359 149.267 319.446C149.543 319.591 149.833 319.702 150.127 319.789C150.403 319.934 150.693 320.045 150.987 320.132C151.263 320.277 151.553 320.387 151.847 320.475C152.123 320.62 152.413 320.73 152.707 320.818C152.983 320.963 153.273 321.073 153.567 321.16C153.843 321.305 154.133 321.416 154.427 321.503C154.703 321.648 154.993 321.759 155.287 321.846C155.563 321.991 155.853 322.102 156.147 322.189C156.423 322.334 156.713 322.445 157.007 322.532C157.283 322.677 157.573 322.787 157.867 322.875C158.143 323.02 158.433 323.13 158.727 323.218C159.003 323.363 159.293 323.473 159.587 323.56C159.863 323.705 160.153 323.816 160.447 323.903C160.723 324.048 161.013 324.159 161.307 324.246C161.583 324.391 161.873 324.502 162.167 324.589C162.443 324.734 162.733 324.844 163.027 324.932C163.303 325.077 163.593 325.187 163.887 325.275C164.163 325.42 164.453 325.53 164.747 325.617C165.023 325.762 165.313 325.873 165.607 325.96C165.883 326.105 166.173 326.216 166.467 326.303C166.743 326.448 167.033 326.559 167.327 326.646C167.603 326.791 167.893 326.902 168.187 326.989C168.463 327.134 168.753 327.244 169.047 327.332C170.428 328.042 172.061 328.11 173.51 327.487C183.049 323.386 190.765 316.356 195.739 311.417C196.647 310.513 197.198 309.307 197.277 308.033C197.793 299.952 197.845 292.333 197.898 284.964C197.913 283.176 197.92 281.434 197.94 279.708C200.207 279.61 202.501 279.08 204.72 278.126C213.044 274.547 219.737 267.408 224.259 257.64C224.38 257.688 224.503 257.742 224.621 257.784C224.907 257.903 225.187 258.025 225.481 258.127C225.767 258.246 226.047 258.367 226.341 258.469C226.627 258.589 226.907 258.71 227.201 258.812C227.487 258.931 227.767 259.053 228.061 259.155C228.347 259.274 228.627 259.396 228.921 259.498C229.207 259.617 229.487 259.739 229.781 259.841C230.067 259.96 230.347 260.082 230.641 260.184C230.927 260.303 231.207 260.425 231.501 260.527C231.787 260.646 232.067 260.767 232.361 260.869C232.647 260.989 232.927 261.11 233.221 261.212C237.674 263.053 242.947 262.803 248.751 260.307C250.591 259.516 252.346 258.526 254.015 257.353C254.187 257.421 254.365 257.487 254.534 257.55C254.821 257.669 255.104 257.782 255.394 257.893C255.681 258.012 255.964 258.125 256.254 258.236C256.541 258.355 256.824 258.468 257.114 258.579C257.401 258.698 257.684 258.811 257.974 258.921C258.261 259.041 258.544 259.154 258.834 259.264C259.121 259.383 259.404 259.497 259.694 259.607C259.981 259.726 260.264 259.839 260.554 259.95C260.84 260.069 261.124 260.182 261.414 260.293C261.7 260.412 261.984 260.525 262.274 260.636C262.56 260.755 262.844 260.868 263.134 260.979C263.42 261.098 263.704 261.211 263.994 261.321C264.28 261.441 264.564 261.554 264.854 261.664C265.14 261.783 265.424 261.897 265.714 262.007C266 262.126 266.284 262.239 266.574 262.35C266.86 262.469 267.144 262.582 267.434 262.693C267.72 262.812 268.004 262.925 268.294 263.036C268.58 263.155 268.864 263.268 269.154 263.378C269.44 263.498 269.724 263.611 270.014 263.721C270.3 263.84 270.584 263.954 270.874 264.064C271.16 264.183 271.444 264.296 271.734 264.407C272.02 264.526 272.304 264.639 272.594 264.75C272.88 264.869 273.164 264.982 273.454 265.093C273.74 265.212 274.024 265.325 274.314 265.436C274.6 265.555 274.884 265.668 275.174 265.778C281.043 268.243 286.854 268.382 292.026 266.158C298.383 263.425 303.167 257.613 305.485 249.811C307.252 243.928 308.375 236.861 308.924 227.86C308.984 227.884 309.044 227.908 309.102 227.926C309.384 228.054 309.674 228.164 309.962 228.269C310.244 228.397 310.534 228.507 310.821 228.612C311.104 228.74 311.394 228.85 311.681 228.955C316.024 230.85 321.044 230.709 326.462 228.379C332.621 225.731 337.695 220.578 341.611 213.03C341.9 213.155 342.176 213.265 342.454 213.366C342.746 213.497 343.03 213.61 343.314 213.709C347.026 215.348 350.063 214.705 351.915 213.909C356.985 211.729 361.215 206.483 364.934 197.665C365.152 197.757 365.373 197.84 365.596 197.929C365.879 198.057 366.167 198.162 366.456 198.272C366.739 198.4 367.027 198.505 367.316 198.615C367.599 198.743 367.887 198.847 368.176 198.958C368.459 199.086 368.747 199.19 369.036 199.301C369.319 199.429 369.607 199.533 369.896 199.644C370.179 199.771 370.467 199.876 370.756 199.987C376.507 202.523 383.225 202.486 390.027 199.561C398.886 195.753 406.404 185.245 412.189 173.458C412.215 173.469 412.247 173.476 412.273 173.487C412.553 173.608 412.839 173.728 413.133 173.83C413.413 173.951 413.699 174.07 413.993 174.172C414.273 174.294 414.559 174.413 414.853 174.515C415.133 174.637 415.419 174.756 415.713 174.858C415.993 174.98 416.279 175.099 416.573 175.201C416.853 175.323 417.139 175.442 417.433 175.544C417.713 175.666 417.999 175.785 418.293 175.887C418.573 176.008 418.859 176.128 419.153 176.229C419.433 176.351 419.719 176.47 420.013 176.572C420.293 176.694 420.579 176.813 420.873 176.915C421.153 177.037 421.439 177.156 421.733 177.258C422.013 177.38 422.299 177.499 422.593 177.601C422.873 177.723 423.159 177.842 423.452 177.944C423.733 178.065 424.019 178.185 424.312 178.287C424.593 178.408 424.879 178.527 425.172 178.629C425.453 178.751 425.739 178.87 426.032 178.972C429.184 180.353 432.982 180.353 436.825 178.7C444.764 175.287 451.222 165.862 457.16 149.043C460.639 139.218 463.233 128.96 465.319 120.717C465.733 119.078 466.12 117.543 466.487 116.124C467.087 113.807 466.042 111.377 463.95 110.224L463.948 110.204Z" fill="#1A1A1A"/>
<path d="M254.585 143.3C262.56 139.872 267.55 126.054 264.256 118.392C262.374 114.014 258.438 112.186 253.904 114.135C245.929 117.564 241.006 131.538 244.3 139.2C246.182 143.578 250.207 145.183 254.585 143.3Z" fill="#F8FCF9"/>
<path d="M414.226 94.6771C412.399 99.909 410.397 108.181 408.037 116.05C406.501 121.528 404.898 126.849 403.381 129.353C399.682 119.457 402.171 106.715 407.344 96.3388C406.467 91.7135 405.323 87.759 403.844 84.3189C403.306 83.0679 402.612 81.8842 400.126 77.3948C395.215 83.2113 389.522 88.0677 384.787 90.8444C384.809 90.4644 384.451 90.0626 384.473 89.6826C384.18 88.1408 383.821 86.4427 382.947 84.4099C381.871 81.908 379.141 79.0057 375.076 80.7536C371.01 82.5015 368.245 88.1368 367.087 91.0435C364.658 97.4606 366.454 104.655 368.807 110.128C370.322 113.652 370.747 115.486 370.71 119.991C370.288 121.776 369.898 123.39 369.472 125.034C366.757 135.095 360.902 154.657 351.05 158.892C347.61 160.371 344.704 159.212 343.225 155.772C342.821 154.834 342.574 153.829 342.416 152.6C357.629 146.615 365.594 134.113 366.76 117.863C367.068 113.84 366.951 109.258 365.136 105.036C361.237 95.9671 351.67 95.2629 344.477 98.3553C327.656 105.587 318.324 133.87 319.53 151.808C319.293 152.864 319.05 153.924 318.796 154.973C317.283 161.367 316.151 167.783 314.587 168.455C313.649 168.858 314.16 166.6 313.959 166.131C306.833 149.556 311.037 93.8344 314.473 68.6427L292.362 81.8542C290.749 97.9253 291.258 112.899 290.403 127.717C287.878 127.877 285.331 128.416 282.985 129.424C273.068 133.688 267.239 144.595 264.526 156.914C264.527 150.785 264.708 144.608 265.239 138.351C256.326 142.183 250.096 147.085 245.586 151.247C245.489 156.276 245.678 164.604 245.835 173.936C244.903 178.184 243.921 182.96 242.879 187.612C241.366 194.006 240.323 200.198 238.447 201.005C237.977 201.206 238.714 200.334 238.58 200.021C235.151 192.046 235.9 163.193 238.296 148.082L217.815 159.481L217.215 161.962C214.466 162.033 211.829 162.796 209.327 163.871C196.463 169.402 188.763 186.48 186.459 203.232C185.894 196.962 184.584 191.212 182.624 186.653C180.54 181.806 175.86 174.369 167.416 177.999C163.038 179.882 159.399 183.484 156.498 187.51L156.652 184.851C146.489 190.517 140.459 194.591 134.208 199.873C134.188 201.634 134.169 203.395 134.155 205.154C128.239 196.845 116.315 199.228 107.956 202.822C100.45 206.049 93.9965 210.862 88.1013 215.249C85.1537 217.442 82.4297 219.725 79.5712 221.695C76.8692 223.598 73.8762 225.255 70.9052 226.533C65.9014 228.684 62.4817 228.487 60.8683 224.734C58.0447 218.166 62.7035 207.456 65.4902 201.44C69.8596 191.78 85.8412 173.793 94.9106 169.894C98.507 168.348 101.794 169.529 103.34 173.125C105.491 178.129 104.717 184.946 101.104 192.058L104.996 194.646C112.343 188.893 118.707 184.304 124.757 178.554C126.47 171.333 125.967 161.544 123.278 155.29C119.042 145.438 107.892 147.083 101.481 149.839C96.4768 151.99 91.3854 155.661 86.8084 159.667C82.2313 163.673 77.856 168.148 74.1499 171.594C62.9426 182.156 54.3323 196.603 47.9112 210.11C42.6942 221.246 37.8925 243.69 43.2707 256.2C47.3716 265.738 58.0997 266.128 65.4491 262.968C67.4819 262.094 69.3802 260.908 71.1222 259.788C77.7101 255.288 84.0291 250.163 90.6389 245.283C97.0924 240.471 103.748 236.128 110.784 233.102C114.85 231.354 122.668 227.993 125.021 233.466C129.189 243.161 107.631 270.586 97.4671 274.956C92.7761 276.972 87.8131 275.771 86.1324 271.862C85.4602 270.298 85.1006 268.6 85.2072 264.108L80.0894 264.27L66.5983 290.636C66.8687 292.557 67.0937 293.943 67.6316 295.194C71.1274 303.325 81.2126 308.252 89.8129 304.555C105.606 297.765 118.772 279.692 126.645 266.116C129.086 261.932 131.596 255.736 133.644 248.799C133.398 267.653 133.107 286.832 132.75 307.216C141.663 303.384 149.075 296.492 153.361 292.241C154.13 280.238 153.849 269.243 154.105 258.202C157.235 259.45 160.676 259.267 163.96 257.855C177.149 252.185 184.046 236.735 186.106 220.792C186.582 225.113 187.516 229.044 188.918 232.303C192.682 241.06 199.077 243.869 207.99 240.037C215.809 236.675 220.963 229.272 224.285 221.915C226.993 225.197 230.863 228.165 234.928 226.418C239.3 224.538 242.705 219.312 245.41 213.075C245.062 217.885 244.547 221.427 243.819 222.966C242.682 225.492 241.298 227.014 238.953 228.022C236.138 229.232 232.786 229.191 227.083 226.27L226.173 231.479L237.81 245.188C242.193 247.194 246.887 247.77 251.266 245.887C257.051 243.4 260.263 237.943 261.777 232.846C264.833 222.682 265.481 209.106 265.38 195.197C265.785 196.505 266.227 197.733 266.711 198.858C270.072 206.676 275.689 212.414 285.696 208.111C293.671 204.682 298.355 196.184 301.073 188.716C303.781 191.999 307.561 195.19 311.158 193.644C317.479 190.927 321.816 180.546 324.849 170.528C329.672 179.642 338.751 183.819 349.27 179.297C364.918 172.569 377.326 138.346 380.676 120.73C382.283 119.113 383.775 117.894 385.359 116.722C386.074 116.229 386.721 115.58 387.436 115.088C385.215 127.159 383.34 149.086 385.827 154.872C387.912 159.719 392.471 159.982 396.068 158.436C403.886 155.074 409.527 143.2 413.537 131.842C417.636 120.261 420.571 107.697 422.73 99.3581L414.232 94.6745L414.226 94.6771ZM348.184 114.733C348.809 114.464 348.989 115.313 349.191 115.782C352.619 123.757 348.878 135.741 341.732 140.666C341.678 132.352 342.867 117.019 348.184 114.733ZM167.485 237.627C163.888 239.174 161.648 234.393 158.602 229.033C157.553 230.04 156.593 230.823 155.856 231.696L156.23 226.533C156.737 220.386 157.2 214.999 157.757 213.278C158.492 211.109 162.444 207.372 165.102 206.229C168.698 204.683 171.516 206.065 173.264 210.131C176.356 217.324 173.739 234.938 167.485 237.627ZM218.319 208.917C216.871 212.875 214.328 217.303 211.513 218.513C210.575 218.916 209.524 218.627 208.583 216.438C204.549 207.056 207.264 177.171 215.73 173.161C214.804 183.935 215.76 199.086 218.319 208.917ZM294.212 175.362C293.255 178.738 291.496 184.126 288.368 185.471C286.492 186.277 285.64 183.865 284.968 182.301C280.867 172.762 281.438 144.356 289.589 139.184C289.379 150.761 290.803 164.415 294.212 175.362Z" fill="#F8FCF9"/>
</g>
<defs>
<clipPath id="clip0_1140_2819">
<rect width="460.955" height="207.333" fill="white" transform="translate(0 182.065) rotate(-23.2643)"/>
</clipPath>
</defs>
</svg>
