<svg width="225" height="225" viewBox="0 0 225 225" fill="none" xmlns="http://www.w3.org/2000/svg">
<path d="M168.67 151.833C190.422 120.781 182.884 77.9757 151.833 56.2234C120.781 34.4712 77.9756 42.0096 56.2233 73.0608C34.4711 104.112 42.0094 146.918 73.0607 168.67C104.112 190.422 146.918 182.884 168.67 151.833Z" fill="#3652ED"/>
<path d="M162.689 143.518C170.33 131.165 173.153 116.538 170.629 102.206C168.105 87.874 160.448 75.0665 149.041 66.0828L149.048 66.0731L148.235 65.4531C135.403 55.6725 119.533 51.6258 103.451 54.0764C103.387 54.082 103.326 54.0928 103.287 54.0996C103.007 54.1404 102.73 54.1835 102.451 54.2326C102.368 54.2445 102.284 54.2535 102.201 54.2681C102.118 54.2827 102.036 54.3028 101.954 54.3202C101.766 54.3532 101.574 54.3928 101.384 54.4291C101.306 54.4427 101.227 54.4596 101.153 54.4755C101.086 54.4872 101.021 54.5016 100.868 54.5371C99.3794 54.8333 97.9153 55.1851 96.4715 55.5874C83.4745 59.2087 72.3009 67.0244 64.445 78.014C63.8624 78.8284 63.2998 79.6592 62.7544 80.5068L62.2027 81.367L62.2124 81.3738C54.5603 93.7141 51.7363 108.347 54.2636 122.699C56.791 137.05 64.4369 149.814 75.8385 158.813L75.8316 158.822L76.6468 159.442C79.415 161.548 82.3236 163.385 85.344 164.951C95.4805 170.21 106.86 172.388 118.367 171.204C119.391 171.101 120.416 170.972 121.442 170.817C121.506 170.808 121.57 170.802 121.703 170.779C121.783 170.765 121.864 170.754 121.944 170.742C121.991 170.734 122.038 170.726 122.085 170.72C122.243 170.695 122.404 170.67 122.562 170.645C122.606 170.637 122.651 170.635 122.695 170.627C122.731 170.621 122.767 170.612 122.805 170.605C122.924 170.584 123.04 170.564 123.163 170.536C123.194 170.531 123.224 170.525 123.257 170.52C123.266 170.518 123.277 170.516 123.285 170.515C123.335 170.506 123.384 170.497 123.433 170.486C123.472 170.479 123.514 170.472 123.552 170.462C123.596 170.454 123.637 170.447 123.681 170.436L123.761 170.422C123.825 170.411 123.887 170.394 124.029 170.361C130.963 168.975 137.455 166.428 143.294 162.866C143.541 162.714 143.784 162.56 144.03 162.406C144.199 162.299 144.369 162.195 144.535 162.089C144.921 161.842 145.301 161.587 145.68 161.329C145.705 161.313 145.731 161.295 145.756 161.279C146.081 161.056 146.403 160.829 146.725 160.602C146.801 160.548 146.879 160.495 146.958 160.438C147.089 160.344 147.217 160.247 147.345 160.151C153.129 155.92 158.147 150.612 162.153 144.386L162.707 143.526L162.698 143.519L162.689 143.518ZM159.598 144.218C159.46 144.422 159.319 144.623 159.181 144.827C159.052 145.015 158.92 145.203 158.788 145.392C158.643 145.6 158.491 145.803 158.342 146.009C158.213 146.185 158.083 146.364 157.951 146.539C157.794 146.748 157.637 146.953 157.48 147.16C157.35 147.328 157.22 147.496 157.09 147.664C156.927 147.872 156.762 148.078 156.596 148.283C156.464 148.443 156.336 148.605 156.204 148.762C156.033 148.969 155.861 149.173 155.686 149.377C155.557 149.531 155.425 149.685 155.292 149.837C155.114 150.042 154.934 150.244 154.753 150.447C154.623 150.595 154.489 150.741 154.358 150.887C154.174 151.09 153.987 151.288 153.801 151.489C153.669 151.629 153.534 151.772 153.399 151.91C153.209 152.108 153.017 152.307 152.821 152.504C152.688 152.639 152.552 152.774 152.419 152.908C152.22 153.105 152.021 153.3 151.821 153.492C151.688 153.62 151.554 153.749 151.417 153.876C151.211 154.069 151.006 154.262 150.798 154.452C150.663 154.575 150.527 154.696 150.393 154.819C150.181 155.01 149.967 155.199 149.752 155.388C149.619 155.505 149.483 155.62 149.349 155.735C149.129 155.924 148.909 156.109 148.685 156.296C148.554 156.405 148.422 156.513 148.287 156.622C148.058 156.808 147.826 156.994 147.593 157.177C147.463 157.28 147.336 157.379 147.205 157.479C146.964 157.664 146.726 157.848 146.482 158.028C146.356 158.121 146.23 158.214 146.104 158.305C145.854 158.489 145.602 158.672 145.349 158.851C145.229 158.934 145.108 159.019 144.989 159.102C144.727 159.285 144.463 159.465 144.199 159.646C144.087 159.722 143.972 159.797 143.86 159.87C143.584 160.053 143.306 160.233 143.027 160.413C142.922 160.48 142.817 160.544 142.715 160.61C142.422 160.793 142.13 160.975 141.836 161.152C141.744 161.208 141.651 161.262 141.558 161.318C141.248 161.5 140.939 161.683 140.626 161.861C140.548 161.906 140.467 161.948 140.39 161.993C140.061 162.179 139.729 162.363 139.396 162.541C139.336 162.575 139.276 162.605 139.216 162.636C138.862 162.823 138.507 163.008 138.149 163.188C138.11 163.206 138.071 163.227 138.031 163.246C137.652 163.435 137.269 163.622 136.883 163.807C136.869 163.812 136.857 163.82 136.843 163.825C136.646 163.917 136.445 164.006 136.248 164.098C142.878 158.452 147.932 149.627 150.606 138.605C153.81 140.144 156.862 141.973 159.709 144.057C159.67 144.112 159.635 144.169 159.599 144.224L159.598 144.218ZM106.935 169.049C106.631 169.02 106.326 168.986 106.021 168.954C105.859 168.937 105.699 168.92 105.536 168.9C105.246 168.866 104.954 168.826 104.662 168.786C104.49 168.762 104.318 168.741 104.149 168.714C103.865 168.673 103.584 168.629 103.302 168.582C103.124 168.553 102.945 168.525 102.766 168.494C102.49 168.446 102.216 168.397 101.943 168.346C101.76 168.312 101.575 168.279 101.392 168.243C101.124 168.191 100.854 168.133 100.586 168.078C100.4 168.039 100.213 167.998 100.026 167.957C99.7598 167.899 99.4951 167.834 99.2308 167.773C99.0437 167.729 98.8566 167.685 98.669 167.638C98.4071 167.573 98.1441 167.503 97.8817 167.435C97.6963 167.385 97.5083 167.336 97.323 167.286C97.0628 167.215 96.8016 167.138 96.5405 167.062C96.3547 167.009 96.1711 166.953 95.9849 166.898C95.726 166.818 95.4671 166.739 95.2077 166.656C95.0237 166.597 94.8425 166.538 94.6584 166.479C94.3986 166.394 94.141 166.306 93.8834 166.217C93.7017 166.155 93.5227 166.093 93.3433 166.028C93.0852 165.937 92.8262 165.84 92.5704 165.745C92.3937 165.68 92.2137 165.612 92.0365 165.543C91.7798 165.443 91.523 165.343 91.2653 165.238C91.0903 165.166 90.9159 165.097 90.7405 165.023C90.4828 164.917 90.2273 164.808 89.9714 164.697C89.7988 164.622 89.6289 164.547 89.4562 164.472C89.1998 164.357 88.9461 164.243 88.692 164.125C88.5216 164.047 88.354 163.968 88.1832 163.887C87.9285 163.767 87.6767 163.646 87.4238 163.52C87.2557 163.438 87.0899 163.354 86.9241 163.269C86.674 163.142 86.4207 163.013 86.1728 162.883C86.0065 162.796 85.843 162.708 85.6767 162.62C85.4284 162.488 85.1796 162.352 84.9336 162.216C84.7695 162.125 84.6051 162.032 84.4433 161.938C84.1996 161.799 83.9525 161.657 83.7111 161.515C83.5461 161.418 83.3833 161.319 83.2211 161.222C82.9791 161.077 82.7399 160.931 82.5002 160.783C82.337 160.68 82.1734 160.575 82.0102 160.473C81.776 160.324 81.5418 160.174 81.3072 160.022C81.1397 159.912 80.9751 159.801 80.8104 159.691C80.5841 159.537 80.3554 159.387 80.1313 159.23C79.9596 159.112 79.7903 158.991 79.6209 158.87C79.4028 158.714 79.1852 158.562 78.9694 158.404C78.9202 158.367 78.871 158.33 78.8218 158.293C80.8037 155.336 83.05 152.571 85.5223 150.055C91.8013 159.503 99.566 166.071 107.727 169.115C107.608 169.105 107.49 169.097 107.371 169.086C107.227 169.075 107.08 169.064 106.935 169.049ZM65.3097 80.6604C65.4338 80.4763 65.5608 80.2916 65.6854 80.1102C65.8305 79.8996 65.9756 79.689 66.124 79.4807C66.2514 79.2988 66.3826 79.122 66.5132 78.9424C66.6621 78.7368 66.8137 78.5307 66.9658 78.3274C67.0969 78.1506 67.2313 77.976 67.3652 77.7987C67.5206 77.5976 67.6732 77.3971 67.829 77.1988C67.9662 77.0238 68.1043 76.8542 68.2419 76.6819C68.401 76.486 68.5574 76.2905 68.7197 76.0967C68.8606 75.9267 69.0014 75.7567 69.1456 75.589C69.3084 75.398 69.4712 75.207 69.6345 75.0189C69.7787 74.8511 69.9265 74.6884 70.0712 74.5234C70.2377 74.3375 70.4043 74.1516 70.5736 73.9652C70.7214 73.8025 70.8726 73.6421 71.0237 73.4816C71.194 73.3008 71.3643 73.1199 71.5373 72.9385C71.6889 72.7808 71.8433 72.6227 71.9976 72.4645C72.1717 72.2887 72.3484 72.1123 72.5225 71.9365C72.6773 71.7811 72.8354 71.628 72.9935 71.4749C73.1713 71.3041 73.3518 71.1328 73.5295 70.962C73.6909 70.8111 73.8495 70.6608 74.0141 70.5122C74.1955 70.3464 74.377 70.1807 74.5613 70.0144C74.7264 69.8686 74.891 69.72 75.0565 69.577C75.2417 69.4162 75.427 69.2555 75.615 69.0943C75.7833 68.9508 75.9521 68.81 76.1204 68.6665C76.3094 68.5108 76.4984 68.355 76.6878 68.2021C76.8599 68.0636 77.0319 67.9251 77.204 67.7866C77.3967 67.636 77.5866 67.4858 77.7826 67.3374C77.9579 67.2012 78.1337 67.0677 78.3122 66.9338C78.5059 66.7887 78.7023 66.643 78.8992 66.5002C79.0783 66.369 79.2573 66.2378 79.4396 66.1089C79.637 65.9688 79.8371 65.8282 80.035 65.6908C80.2178 65.5647 80.4006 65.4386 80.5834 65.3124C80.7845 65.1774 80.9861 65.0451 81.1877 64.9127C81.3738 64.7889 81.5603 64.6678 81.7495 64.5462C81.9516 64.4166 82.157 64.2894 82.3624 64.1621C82.5521 64.0433 82.7446 63.9239 82.9349 63.8079C83.1407 63.6834 83.347 63.5616 83.5561 63.4394C83.7496 63.3256 83.9431 63.2118 84.1399 63.1003C84.3494 62.9808 84.5595 62.8641 84.7696 62.7474C84.9668 62.6386 85.1635 62.5271 85.3612 62.4211C85.5718 62.3071 85.7856 62.1955 85.9971 62.087C86.1981 61.9833 86.3985 61.8769 86.5995 61.7731C86.8138 61.6642 87.0291 61.5608 87.2438 61.4547C87.448 61.3532 87.6527 61.2545 87.8574 61.1559C88.0727 61.0525 88.2916 60.9541 88.5101 60.853C88.5657 60.829 88.618 60.8027 88.6736 60.7787C82.0378 66.4257 76.977 75.2604 74.3021 86.2942C71.1199 84.7791 68.0615 82.9489 65.1901 80.8381C65.2305 80.7769 65.271 80.7156 65.3115 80.6544L65.3097 80.6604ZM118.028 55.8512C118.253 55.8712 118.477 55.8973 118.701 55.9234C118.942 55.9493 119.18 55.9757 119.421 56.0044C119.645 56.0304 119.867 56.0625 120.091 56.0913C120.331 56.1233 120.572 56.1547 120.809 56.1899C121.031 56.222 121.251 56.2573 121.471 56.2926C121.711 56.33 121.951 56.3675 122.192 56.4105C122.409 56.449 122.627 56.4876 122.848 56.5284C123.089 56.5714 123.327 56.6176 123.566 56.6638C123.781 56.7057 123.998 56.753 124.213 56.7976C124.453 56.8493 124.692 56.8983 124.932 56.9528C125.146 57.0006 125.36 57.0512 125.574 57.1018C125.814 57.1591 126.052 57.2168 126.29 57.2746C126.502 57.3284 126.713 57.3822 126.923 57.4393C127.162 57.5026 127.401 57.5658 127.64 57.6319C127.849 57.689 128.056 57.7493 128.266 57.8092C128.506 57.8779 128.743 57.9472 128.981 58.0193C129.188 58.0824 129.393 58.1459 129.601 58.2118C129.839 58.2866 130.078 58.3642 130.314 58.4422C130.519 58.5085 130.722 58.5781 130.926 58.6505C131.162 58.7313 131.399 58.8149 131.635 58.8984C131.839 58.9708 132.04 59.0464 132.241 59.122C132.476 59.2088 132.711 59.2984 132.946 59.3908C133.145 59.4696 133.344 59.5457 133.543 59.6273C133.779 59.7224 134.012 59.818 134.246 59.9163C134.443 59.9984 134.639 60.0805 134.834 60.1659C135.068 60.267 135.299 60.3686 135.531 60.4729C135.726 60.561 135.921 60.6492 136.116 60.7373C136.348 60.8444 136.578 60.952 136.808 61.0624C137.001 61.1537 137.194 61.2478 137.384 61.3397C137.614 61.4528 137.842 61.5664 138.071 61.6828C138.261 61.7802 138.452 61.8775 138.64 61.9754C138.866 62.095 139.092 62.2146 139.319 62.337C139.507 62.4376 139.696 62.541 139.883 62.6448C140.107 62.7705 140.331 62.8961 140.553 63.025C140.74 63.1316 140.927 63.2383 141.111 63.3481C141.333 63.477 141.553 63.6119 141.773 63.744C141.958 63.8567 142.143 63.9665 142.325 64.0824C142.543 64.2178 142.761 64.3559 142.979 64.4968C143.162 64.6127 143.345 64.7313 143.528 64.85C143.744 64.9914 143.957 65.1332 144.17 65.2779C144.351 65.3998 144.535 65.5239 144.714 65.6491C144.924 65.7942 145.133 65.9425 145.341 66.0909C145.523 66.2183 145.703 66.349 145.882 66.4796C145.941 66.5233 146 66.5671 146.059 66.6108C144.092 69.5538 141.847 72.3121 139.365 74.839C133.089 65.3929 125.322 58.8231 117.154 55.7859C117.202 55.7887 117.255 55.7938 117.304 55.7965C117.543 55.8169 117.786 55.8341 118.023 55.8577L118.028 55.8512ZM147.826 67.9453C158.429 76.356 165.63 88.1931 168.24 101.496L151.125 104.51C149.206 94.3568 145.58 84.7969 140.591 76.7413C143.278 74.0531 145.708 71.1026 147.828 67.9448L147.826 67.9453ZM149.029 135.454C144.472 133.535 139.717 132.194 134.86 131.467C134.613 124.791 133.87 117.565 132.591 110.026L149.325 107.079C150.911 116.813 150.81 126.568 149.029 135.454ZM75.9615 119.999L92.6904 117.053C94.0607 124.576 95.831 131.621 97.8817 137.979C93.5758 140.317 89.565 143.199 85.9328 146.566C81.2239 138.823 77.7961 129.689 75.9615 119.999ZM75.8813 89.4411C80.4041 91.3579 85.1553 92.6964 90.036 93.4284C90.2807 100.104 91.0265 107.33 92.3057 114.869L75.5768 117.815C73.9878 108.064 74.092 98.3089 75.8786 89.4416L75.8813 89.4411ZM101.515 56.7577L107.573 91.1572C102.5 91.951 97.3247 92.0708 92.236 91.4836C91.8364 73.1446 95.2426 59.2147 101.515 56.7577ZM103.699 56.3731C110.431 56.5427 118.393 68.4678 124.283 85.84C119.704 88.1297 114.796 89.7854 109.757 90.7725L103.699 56.3731ZM92.3026 93.7211C97.4967 94.2926 102.751 94.1702 107.959 93.3525L111.164 111.548L94.49 114.484C93.2667 107.263 92.5482 100.24 92.3026 93.7211ZM111.548 113.732L114.755 131.938C109.61 132.941 104.598 134.618 99.9114 136.927C97.9179 130.715 96.1919 123.873 94.8747 116.668L111.548 113.732ZM115.139 134.123L121.198 168.525C114.463 168.356 106.504 156.43 100.614 139.058C105.193 136.768 110.101 135.113 115.14 134.125L115.139 134.123ZM123.382 168.137L117.323 133.735C122.396 132.941 127.574 132.821 132.66 133.412C133.06 151.751 129.653 165.678 123.382 168.137ZM132.594 131.174C127.397 130.603 122.117 130.741 116.939 131.554L113.733 113.347L130.406 110.411C131.63 117.632 132.348 124.655 132.594 131.174ZM113.348 111.163L110.144 92.9679C115.318 91.957 120.298 90.2771 124.984 87.9656C126.978 94.1771 128.704 101.019 130.022 108.227L113.348 111.163ZM109.279 56.1933C119.59 57.1733 129.882 64.3947 137.757 76.4119C134.288 79.6849 130.446 82.4883 126.307 84.7745C121.528 70.7458 115.389 60.3788 109.279 56.1933ZM89.9693 91.1739C85.2724 90.4351 80.7062 89.1125 76.358 87.2332C79.6562 73.2397 86.8632 62.931 96.2114 58.4917C91.8965 64.513 89.6683 76.3536 89.9693 91.1739ZM98.5891 140.121C103.369 154.152 109.508 164.516 115.617 168.702C105.309 167.721 95.0116 160.498 87.1346 148.475C90.6127 145.204 94.4579 142.4 98.5886 140.118L98.5891 140.121ZM134.924 133.722C139.598 134.456 144.172 135.777 148.552 137.659C145.262 151.617 138.075 161.911 128.698 166.381C133.001 160.354 135.225 148.525 134.924 133.722ZM132.206 107.842C130.836 100.319 129.065 93.2715 127.015 86.9162C131.328 84.5736 135.336 81.6898 138.959 78.3213C143.672 86.0526 147.103 95.1911 148.94 104.895L132.206 107.842ZM73.8076 88.5137C71.8693 97.7807 71.727 107.998 73.3925 118.2L56.266 121.216C54.1719 107.822 56.8985 94.2361 63.9907 82.7092C67.082 84.9691 70.3775 86.917 73.8076 88.5137ZM73.7772 120.384C75.6906 130.521 79.3121 140.076 84.3002 148.143C81.6206 150.825 79.1911 153.778 77.0568 156.952C66.4566 148.527 59.2558 136.69 56.6511 123.403L73.7777 120.387L73.7772 120.384ZM151.1 136.382C153.032 127.096 153.172 116.879 151.507 106.695L168.622 103.681C170.713 117.059 167.989 130.643 160.906 142.186C157.842 139.955 154.553 138.009 151.098 136.383L151.1 136.382Z" fill="#D0EAFD"/>
</svg>
