<svg width="526" height="409" viewBox="0 0 526 409" fill="none" xmlns="http://www.w3.org/2000/svg">
<g clip-path="url(#clip0_1140_2951)">
<path d="M185.318 162.647C182.629 158.382 179.351 155.355 175.49 153.566C171.629 151.777 167.419 150.951 162.855 151.08C158.292 151.209 153.671 151.963 148.992 153.343C140.945 155.716 134.119 159.226 128.519 163.864C122.922 168.509 118.967 174.247 116.657 181.07C115.551 184.336 114.934 187.847 114.785 191.588C114.483 190.944 114.188 190.299 113.866 189.684C110.166 182.523 105.573 177.485 100.096 174.566C94.6116 171.649 88.4163 171.203 81.5076 173.242C77.9742 174.286 74.9358 175.805 72.4074 177.801C69.8726 179.799 67.7734 182.175 66.1119 184.934C64.4419 187.689 63.175 190.81 62.3158 194.288C61.4546 197.76 60.8958 201.506 60.6393 205.526L59.7391 198.794L57.0501 182.526L32.2398 189.845L38.8203 238.909C38.4818 238.357 38.1276 237.824 37.7488 237.327C34.964 233.612 31.4729 230.876 27.2776 229.126C23.0803 227.37 18.4407 226.142 13.3371 225.442C8.24206 224.746 2.93303 224.06 -2.58796 223.389C-8.51102 222.633 -13.1898 221.743 -16.6047 220.711C-20.024 219.688 -22.5229 218.234 -24.1017 216.369C-25.6826 214.498 -26.6854 211.955 -27.1142 208.727C-27.6968 204.426 -26.7249 200.869 -24.218 198.063C-21.7133 195.25 -17.8197 193.067 -12.546 191.509C-9.06319 190.487 -6.06109 190.288 -3.5421 190.927C-1.0297 191.568 1.01194 192.97 2.57626 195.135C4.13605 197.309 5.2214 200.21 5.8212 203.848L30.6315 196.529C28.8318 187.329 25.9414 180.032 21.965 174.628C17.9906 169.23 12.8502 165.794 6.54797 164.333C0.245728 162.872 -7.2892 163.436 -16.0457 166.015C-28.8843 169.803 -38.6066 176.074 -45.2082 184.821C-51.8143 193.577 -54.2713 204.212 -52.5989 216.733C-51.5165 224.768 -49.118 231.091 -45.3861 235.711C-41.6542 240.331 -36.8056 243.735 -30.8292 245.913C-24.8508 248.097 -18.0197 249.632 -10.3208 250.52C-4.1264 251.126 0.953795 251.797 4.92641 252.532C8.89245 253.269 11.8944 254.436 13.9191 256.039C15.9458 257.648 17.1759 260.062 17.6026 263.284C17.9981 266.197 17.6855 268.832 16.6753 271.201C15.6585 273.571 13.8616 275.665 11.2778 277.483C8.69192 279.294 5.28222 280.828 1.04001 282.078C-4.18968 283.616 -8.54019 284.033 -12.0288 283.32C-15.5195 282.602 -18.2442 280.863 -20.196 278.081C-22.1523 275.308 -23.4917 271.662 -24.2096 267.136L-49.5027 274.598C-48.3841 285.507 -45.3151 293.84 -40.3045 299.594C-35.2874 305.346 -28.93 308.814 -21.2213 309.989C-13.5171 311.172 -5.11654 310.417 3.9713 307.742C17.6241 303.715 28.0656 297.038 35.3004 287.703C39.2413 282.613 41.8181 276.857 43.0481 270.444L51.2377 331.571L76.5308 324.109L71.4221 285.973L67.8975 267.884C69.0222 271.235 70.7891 274.097 73.2004 276.475C75.6116 278.854 78.5858 280.442 82.1164 281.242C85.6404 282.045 89.6101 281.797 94.017 280.495C99.1853 278.97 103.733 276.38 107.652 272.728C111.572 269.076 114.763 264.502 117.219 259.008C118.473 256.216 119.507 253.204 120.33 249.983C121.338 253.052 122.719 255.673 124.483 257.805C127.453 261.397 131.141 263.696 135.544 264.701C139.946 265.7 144.677 265.46 149.74 263.968C157.9 261.56 163.588 257.299 166.813 251.189C170.038 245.078 171.677 238.4 171.721 231.149L174.802 255.392L199.937 247.979L190.858 180.246C189.86 172.784 188.009 166.92 185.318 162.647ZM121.582 216.552C120.965 211.958 120.133 207.713 119.105 203.768L139.999 197.612C139.334 193.07 139.339 189.424 140.016 186.661C140.687 183.899 141.986 181.737 143.894 180.188C145.81 178.636 148.264 177.422 151.255 176.54C155.934 175.16 159.386 175.522 161.624 177.622C163.855 179.724 165.412 184.068 166.293 190.647L166.675 193.493C164.58 194.305 162.04 195.314 159.064 196.524C156.086 197.728 152.933 199.087 149.602 200.596C146.265 202.107 143.05 203.71 139.941 205.417C135.302 207.97 131.241 210.958 127.744 214.391C125.502 216.587 123.644 219.039 122.156 221.752C122.007 220.048 121.822 218.32 121.582 216.552ZM63.5846 208.504C64.2933 207.51 65.1563 206.546 66.1692 205.623C66.8535 204.99 67.6028 204.381 68.4262 203.777C70.4559 202.291 72.804 201.153 75.4705 200.365C80.9702 198.744 85.4781 199.897 89.0008 203.823C92.5235 207.749 94.9272 214.483 96.2073 224.032C97.5638 234.15 97.0835 242.087 94.7689 247.826C92.4563 253.573 88.5798 257.247 83.1394 258.85C80.4202 259.655 77.9934 259.891 75.8546 259.568C73.7245 259.249 71.8991 258.401 70.3912 257.042C68.8747 255.679 67.6852 253.881 66.8185 251.635L61.6717 213.215C61.7173 212.434 61.916 211.635 62.2703 210.801C62.5813 210.061 63.0216 209.295 63.5846 208.504ZM168.432 231.286C167.729 232.553 166.92 233.738 166.009 234.847C165.084 235.959 164.056 236.996 162.918 237.936C160.652 239.822 158.193 241.16 155.524 241.941C153.453 242.551 151.625 242.601 150.027 242.087C148.435 241.571 147.15 240.533 146.181 238.978C145.207 237.431 144.556 235.414 144.228 232.949C143.699 229.029 144.277 225.552 145.963 222.525C147.649 219.497 151.125 216.483 156.376 213.486C157.995 212.489 159.892 211.435 162.062 210.331C164.235 209.234 166.383 208.174 168.507 207.15L170.691 223.467C170.665 224.241 170.58 225.012 170.436 225.78C170.099 227.642 169.429 229.478 168.432 231.286Z" fill="#D0EAFD"/>
<path d="M211.542 105.506C212.265 110.883 211.358 115.736 208.835 120.065C206.303 124.391 202.943 127.174 198.754 128.408C194.505 129.661 190.66 129.009 187.207 126.442C183.754 123.876 181.664 119.908 180.947 114.528C180.225 109.157 181.135 104.333 183.672 100.071C186.207 95.8027 189.603 93.0443 193.845 91.7935C198.035 90.559 201.852 91.1903 205.3 93.6939C208.738 96.1929 210.827 100.133 211.542 105.506Z" fill="#D0EAFD"/>
<path d="M423.532 72.3802C422.395 72.5828 421.284 72.8427 420.2 73.1664C416.447 74.2718 413.229 76.143 410.558 78.7693C407.886 81.3955 405.729 84.6278 404.1 88.4619C402.463 92.2981 401.288 96.6411 400.58 101.482C400.164 104.345 399.915 107.343 399.824 110.459L394.626 82.9722L371.94 89.6648L375.585 116.877C374.603 114.515 373.524 112.329 372.305 110.366C368.338 103.976 363.211 99.7693 356.913 97.7426C350.617 95.7226 343.226 95.9601 334.741 98.4618C325.98 101.05 318.615 105.357 312.636 111.394C306.662 117.429 302.41 124.973 299.896 134.035C299.05 137.068 298.441 140.259 298.054 143.582L288.002 68.5607L262.7 76.0186L270.479 133.79C269.474 131.934 268.223 130.264 266.72 128.781C264.309 126.402 261.367 124.803 257.889 123.987C254.418 123.168 250.45 123.422 245.989 124.734C239.08 126.773 233.264 130.67 228.557 136.432C223.844 142.197 220.55 149.478 218.672 158.285C217.931 161.77 217.462 165.458 217.25 169.32L212.915 136.561L188.024 143.898L202.771 253.945C203.282 257.74 203.125 260.479 202.307 262.166C201.482 263.855 200.452 264.885 199.201 265.253C197.891 265.64 196.534 265.854 195.127 265.909C193.721 265.964 192.531 265.902 191.545 265.732L194.928 290.965C197.411 290.957 199.924 290.81 202.458 290.525C204.991 290.234 208.081 289.553 211.728 288.48C216.46 287.084 220.194 284.784 222.929 281.574C225.673 278.368 227.475 274.321 228.348 269.429C229.215 264.539 229.225 258.896 228.369 252.512C228.209 251.303 228.008 249.92 227.77 248.346C227.526 246.774 227.313 245.257 227.12 243.806L222.178 206.529C223.247 209.724 224.473 212.682 225.857 215.381C229.573 222.637 234.23 227.721 239.823 230.64C245.417 233.558 251.695 233.993 258.656 231.938C262.198 230.898 265.198 229.37 267.672 227.362C270.15 225.345 272.182 222.94 273.792 220.131C275.389 217.327 276.635 214.162 277.526 210.645C278.409 207.13 278.977 203.367 279.234 199.347L279.243 198.889L282.565 223.606L307.781 216.174L303.632 185.215C304.738 187.813 305.982 190.201 307.376 192.377C311.811 199.322 317.494 203.941 324.418 206.235C331.343 208.536 339.32 208.347 348.349 205.69C355.966 203.445 362.382 200.055 367.602 195.521C372.817 190.995 376.689 185.615 379.223 179.374C380.865 175.326 381.865 171.045 382.239 166.547L385.807 193.161L411.267 185.654L402.302 118.774C403.229 116.395 404.505 114.299 406.124 112.47C407.746 110.649 409.727 109.055 412.062 107.712C414.397 106.369 417.061 105.249 420.052 104.367C421.74 103.869 423.454 103.479 425.201 103.195C426.941 102.912 428.779 102.78 430.703 102.809L426.593 72.1628C425.686 72.1058 424.662 72.1796 423.532 72.3802ZM355.081 176.485C353.077 179.445 349.841 181.583 345.38 182.895C339.994 184.488 335.541 183.744 332.018 180.671C328.496 177.605 325.857 171.856 324.11 163.428L379.63 147.059L381.286 159.39L357.997 166.256C358.06 170.119 357.084 173.525 355.081 176.485ZM336.768 121.826C341.991 120.291 346.092 120.79 349.061 123.335C352.028 125.873 354.072 130.434 355.176 137.008L332.245 143.77C328.983 144.737 326.597 146.146 325.095 148.003C323.593 149.86 322.86 152.655 322.911 156.384C321.708 147.013 322.183 139.361 324.33 133.434C326.472 127.51 330.621 123.642 336.768 121.826ZM276.319 196.605C275.593 197.684 274.713 198.732 273.673 199.729C273.017 200.36 272.298 200.975 271.516 201.573C269.485 203.125 267.139 204.291 264.479 205.077C258.926 206.715 254.375 205.56 250.822 201.607C247.265 197.663 244.849 190.912 243.568 181.363C242.229 171.369 242.747 163.508 245.116 157.78C247.485 152.052 251.421 148.381 256.912 146.755C259.633 145.957 262.051 145.738 264.165 146.098C266.274 146.467 268.088 147.325 269.598 148.691C271.113 150.048 272.298 151.854 273.162 154.093L273.201 154.009L278.303 191.915L278.226 191.853C278.192 192.391 278.076 192.948 277.884 193.536C277.568 194.494 277.047 195.51 276.319 196.605Z" fill="#D0EAFD"/>
<path d="M423.529 72.3843C422.392 72.5869 421.281 72.8468 420.197 73.1705C416.444 74.2759 413.226 76.1471 410.555 78.7734C407.883 81.3997 405.726 84.6319 404.097 88.4661C402.46 92.3023 401.285 96.6452 400.577 101.486C400.161 104.349 399.912 107.348 399.821 110.463L394.623 82.9763L371.937 89.6689L375.582 116.881C374.6 114.519 373.521 112.333 372.302 110.37C368.335 103.98 363.208 99.7734 356.91 97.7468C350.614 95.7267 343.223 95.9642 334.738 98.466C325.977 101.054 318.613 105.361 312.633 111.398C306.66 117.433 302.407 124.977 299.893 134.039C299.047 137.072 298.438 140.263 298.051 143.586L287.999 68.5649L262.698 76.0227L270.476 133.794C269.471 131.938 268.22 130.268 266.717 128.785C264.306 126.406 261.364 124.807 257.887 123.991C254.415 123.172 250.448 123.426 245.986 124.738C239.077 126.777 233.261 130.674 228.554 136.436C223.841 142.201 220.547 149.482 218.669 158.289C217.928 161.774 217.459 165.462 217.247 169.324L212.912 136.565L188.021 143.902L202.768 253.949C203.279 257.745 203.122 260.483 202.304 262.17C201.479 263.859 200.449 264.889 199.198 265.257C197.888 265.644 196.531 265.858 195.124 265.913C193.718 265.969 192.528 265.906 191.542 265.736L194.925 290.97C197.408 290.961 199.921 290.814 202.455 290.53C204.988 290.238 208.078 289.557 211.725 288.484C216.457 287.088 220.191 284.788 222.926 281.578C225.67 278.372 227.472 274.326 228.345 269.433C229.212 264.543 229.222 258.9 228.366 252.516C228.206 251.308 228.005 249.924 227.767 248.35C227.523 246.778 227.31 245.261 227.117 243.81L222.175 206.533C223.244 209.728 224.47 212.686 225.854 215.385C229.57 222.641 234.227 227.725 239.82 230.644C245.414 233.563 251.692 233.997 258.653 231.942C262.195 230.902 265.195 229.374 267.669 227.366C270.147 225.349 272.179 222.944 273.789 220.135C275.386 217.331 276.632 214.166 277.523 210.649C278.406 207.135 278.974 203.371 279.231 199.351L279.24 198.893L282.562 223.61L307.778 216.179L303.629 185.22C304.735 187.817 305.979 190.206 307.373 192.381C311.809 199.326 317.491 203.945 324.415 206.24C331.34 208.54 339.317 208.351 348.346 205.694C355.963 203.449 362.379 200.06 367.599 195.525C372.814 190.999 376.686 185.62 379.22 179.378C380.863 175.33 381.862 171.049 382.236 166.551L385.804 193.165L411.264 185.658L402.299 118.778C403.226 116.4 404.502 114.303 406.121 112.474C407.743 110.653 409.725 109.059 412.059 107.716C414.394 106.373 417.058 105.253 420.049 104.371C421.737 103.873 423.451 103.483 425.198 103.199C426.938 102.916 428.776 102.784 430.7 102.813L426.59 72.1669C425.683 72.1099 424.659 72.1837 423.529 72.3843ZM276.316 196.609C275.59 197.688 274.71 198.736 273.67 199.733C273.014 200.365 272.295 200.979 271.513 201.577C269.482 203.129 267.136 204.295 264.476 205.081C258.924 206.719 254.372 205.564 250.819 201.612C247.262 197.667 244.846 190.916 243.565 181.367C242.226 171.373 242.744 163.512 245.113 157.784C247.482 152.057 251.418 148.385 256.909 146.759C259.63 145.961 262.048 145.742 264.162 146.102C266.271 146.471 268.086 147.329 269.595 148.695C271.11 150.052 272.295 151.858 273.16 154.098L273.198 154.013L278.3 191.919L278.223 191.857C278.189 192.395 278.073 192.952 277.881 193.54C277.566 194.498 277.044 195.514 276.316 196.609ZM205.3 93.6938C201.853 91.1902 198.035 90.5589 193.846 91.7933C189.604 93.0442 186.207 95.8025 183.672 100.071C181.135 104.333 180.226 109.157 180.947 114.528C181.664 119.907 183.755 123.875 187.208 126.442C190.66 129.009 194.506 129.661 198.755 128.408C202.944 127.173 206.304 124.39 208.836 120.065C211.359 115.736 212.266 110.883 211.543 105.505C210.828 100.132 208.739 96.1928 205.3 93.6938ZM185.318 162.647C182.629 158.381 179.351 155.355 175.49 153.566C171.63 151.777 167.419 150.95 162.856 151.079C158.292 151.208 153.671 151.963 148.992 153.342C140.945 155.715 134.119 159.225 128.52 163.864C122.922 168.509 118.967 174.247 116.657 181.069C115.551 184.335 114.934 187.846 114.785 191.587C114.484 190.944 114.188 190.298 113.866 189.683C110.166 182.523 105.574 177.484 100.096 174.565C94.6117 171.649 88.4165 171.202 81.5078 173.241C77.9744 174.286 74.9359 175.805 72.4076 177.801C69.8727 179.799 67.7735 182.174 66.1121 184.934C64.442 187.689 63.1751 190.81 62.316 194.288C61.4547 197.759 60.8959 201.505 60.6395 205.525L59.7393 198.793L57.0502 182.526L32.24 189.845L38.8204 238.908C38.482 238.356 38.1278 237.823 37.749 237.327C34.9641 233.611 31.4731 230.876 27.2778 229.126C23.0804 227.369 18.4409 226.141 13.3372 225.441C8.24223 224.746 2.9332 224.059 -2.58779 223.388C-8.51085 222.633 -13.1897 221.742 -16.6045 220.711C-20.0238 219.688 -22.5227 218.233 -24.1016 216.368C-25.6825 214.497 -26.6852 211.954 -27.114 208.726C-27.6967 204.425 -26.7247 200.868 -24.2179 198.062C-21.7131 195.249 -17.8195 193.066 -12.5458 191.508C-9.06303 190.487 -6.06092 190.288 -3.54194 190.926C-1.02954 191.567 1.0121 192.969 2.57642 195.135C4.13621 197.309 5.22157 200.209 5.82137 203.847L30.6316 196.528C28.8319 187.329 25.9416 180.031 21.9652 174.627C17.9908 169.23 12.8504 165.794 6.54814 164.332C0.245894 162.871 -7.28904 163.435 -16.0455 166.015C-28.8841 169.802 -38.6064 176.074 -45.208 184.82C-51.8141 193.576 -54.2711 204.211 -52.5987 216.733C-51.5163 224.767 -49.1178 231.09 -45.3859 235.71C-41.654 240.33 -36.8055 243.734 -30.8291 245.912C-24.8506 248.096 -18.0195 249.631 -10.3206 250.519C-4.12623 251.125 0.953969 251.796 4.92659 252.531C8.89262 253.268 11.8946 254.436 13.9193 256.038C15.946 257.647 17.176 260.062 17.6027 263.283C17.9983 266.197 17.6856 268.832 16.6755 271.2C15.6587 273.571 13.8617 275.664 11.2779 277.482C8.69209 279.294 5.28239 280.827 1.04019 282.078C-4.1895 283.615 -8.54001 284.032 -12.0286 283.32C-15.5193 282.601 -18.244 280.863 -20.1958 278.08C-22.1521 275.307 -23.4915 271.661 -24.2095 267.135L-49.5026 274.598C-48.3839 285.506 -45.315 293.839 -40.3044 299.593C-35.2872 305.345 -28.9298 308.814 -21.2211 309.988C-13.5169 311.171 -5.11637 310.417 3.97148 307.741C17.6242 303.714 28.0658 297.038 35.3006 287.703C39.2415 282.613 41.8182 276.857 43.0482 270.443L51.2379 331.571L76.531 324.108L71.4223 285.973L67.8977 267.884C69.0224 271.235 70.7893 274.096 73.2005 276.475C75.6118 278.853 78.586 280.442 82.1166 281.242C85.6405 282.044 89.6103 281.797 94.0171 280.494C99.1855 278.969 103.733 276.379 107.653 272.728C111.572 269.076 114.763 264.502 117.219 259.007C118.473 256.216 119.507 253.204 120.331 249.982C121.339 253.052 122.72 255.672 124.483 257.804C127.454 261.397 131.141 263.695 135.545 264.7C139.946 265.699 144.677 265.46 149.74 263.967C157.9 261.56 163.588 257.298 166.813 251.188C170.038 245.078 171.677 238.399 171.721 231.148L174.802 255.391L199.937 247.978L190.858 180.245C189.86 172.784 188.009 166.919 185.318 162.647ZM63.5847 208.504C64.2935 207.509 65.1565 206.546 66.1694 205.623C66.8537 204.99 67.603 204.38 68.4264 203.776C70.4561 202.29 72.8042 201.153 75.4707 200.365C80.9704 198.743 85.4783 199.897 89.001 203.823C92.5236 207.749 94.9273 214.482 96.2075 224.031C97.5639 234.15 97.0836 242.086 94.769 247.826C92.4565 253.572 88.58 257.247 83.1395 258.849C80.4204 259.654 77.9936 259.891 75.8548 259.567C73.7246 259.248 71.8992 258.401 70.3914 257.042C68.8749 255.678 67.6854 253.88 66.8187 251.634L61.6718 213.214C61.7174 212.434 61.9161 211.634 62.2704 210.801C62.5815 210.06 63.0218 209.294 63.5847 208.504ZM168.432 231.285C167.729 232.553 166.921 233.737 166.009 234.846C165.084 235.959 164.056 236.995 162.918 237.936C160.652 239.821 158.193 241.159 155.524 241.941C153.453 242.551 151.625 242.6 150.027 242.087C148.435 241.571 147.15 240.533 146.181 238.977C145.207 237.43 144.556 235.413 144.228 232.949C143.699 229.029 144.277 225.552 145.963 222.524C147.65 219.497 151.125 216.482 156.376 213.485C157.995 212.489 159.892 211.434 162.063 210.331C164.235 209.234 166.383 208.173 168.507 207.149L170.691 223.466C170.665 224.241 170.58 225.012 170.437 225.779C170.1 227.641 169.429 229.477 168.432 231.285Z" fill="#3652ED"/>
<path d="M473.64 84.4024C473.349 84.233 473.055 84.0788 472.759 83.9399C472.468 83.7705 472.182 83.6208 471.895 83.4864C471.604 83.317 471.318 83.1673 471.031 83.0329C470.739 82.8635 470.454 82.7138 470.167 82.5794C469.875 82.41 469.59 82.2604 469.302 82.126C469.011 81.9565 468.726 81.8069 468.438 81.6725C468.147 81.503 467.862 81.3534 467.574 81.219C467.283 81.0496 466.998 80.8999 466.71 80.7655C466.419 80.5961 466.134 80.4464 465.846 80.312C465.555 80.1426 465.27 79.993 464.982 79.8585C464.691 79.6891 464.405 79.5395 464.118 79.4051C463.826 79.2356 463.541 79.086 463.254 78.9516C462.962 78.7822 462.677 78.6325 462.39 78.4981C462.098 78.3287 461.813 78.179 461.525 78.0446C461.234 77.8752 460.949 77.7255 460.661 77.5911C460.37 77.4217 460.085 77.2721 459.797 77.1376C459.506 76.9682 459.221 76.8186 458.933 76.6842C458.642 76.5147 458.357 76.3651 458.069 76.2307C457.778 76.0613 457.493 75.9116 457.205 75.7772C456.914 75.6078 456.628 75.4581 456.341 75.3237C456.049 75.1543 455.764 75.0046 455.477 74.8702C455.185 74.7008 454.9 74.5512 454.613 74.4167C454.321 74.2473 454.036 74.0977 453.748 73.9633C453.457 73.7939 453.172 73.6442 452.884 73.5098C452.593 73.3404 452.308 73.1907 452.02 73.0563C451.729 72.8869 451.444 72.7372 451.156 72.6028C450.865 72.4334 450.58 72.2837 450.292 72.1493C450.001 71.9799 449.715 71.8303 449.428 71.6959C449.136 71.5264 448.851 71.3768 448.564 71.2424C448.272 71.073 447.987 70.9233 447.7 70.7889C447.408 70.6195 447.123 70.4698 446.835 70.3354C446.544 70.166 446.259 70.0163 445.971 69.8819C445.68 69.7125 445.395 69.5629 445.107 69.4284C444.816 69.259 444.531 69.1094 444.243 68.975C443.952 68.8055 443.667 68.6559 443.379 68.5215C443.088 68.3521 442.802 68.2024 442.515 68.068C442.224 67.8986 441.938 67.7489 441.651 67.6145C441.359 67.4451 441.074 67.2954 440.787 67.161C440.495 66.9916 440.21 66.842 439.922 66.7076C439.631 66.5381 439.346 66.3885 439.058 66.2541C438.767 66.0846 438.482 65.935 438.194 65.8006C437.903 65.6312 437.618 65.4815 437.33 65.3471C437.039 65.1777 436.754 65.028 436.466 64.8936C436.175 64.7242 435.89 64.5746 435.602 64.4401C435.311 64.2707 435.025 64.1211 434.738 63.9866C434.446 63.8172 434.161 63.6676 433.874 63.5332C433.582 63.3638 433.297 63.2141 433.01 63.0797C432.718 62.9103 432.433 62.7606 432.137 62.6216C430.663 61.7655 429.001 61.2571 427.336 61.1547C425.549 61.0325 423.613 61.1518 421.566 61.5156C420.055 61.7917 418.567 62.1403 417.136 62.5576C416.936 62.6127 416.725 62.6784 416.528 62.74C411.266 64.3813 406.65 67.1224 402.813 70.9003C401.968 71.7351 401.158 72.6165 400.383 73.5378C400.325 73.5127 400.267 73.4875 400.213 73.4537C397.589 71.9224 394.43 71.5267 391.496 72.384C376.311 76.8649 368.696 79.1122 368.652 79.1259C364.694 80.3604 361.877 83.6322 361.106 87.5093C360.831 87.4145 360.564 87.3241 360.291 87.2358C354.234 85.2859 347.523 84.8557 340.266 85.9406C339.393 84.1597 338.045 82.6206 336.343 81.5177C335.944 81.2588 335.525 81.028 335.075 80.814C334.795 80.6557 334.51 80.5061 334.211 80.3605C333.931 80.2022 333.646 80.0526 333.347 79.907C333.067 79.7487 332.781 79.5991 332.483 79.4535C332.203 79.2953 331.917 79.1456 331.619 79.0001C331.338 78.8418 331.053 78.6921 330.755 78.5466C330.474 78.3883 330.189 78.2386 329.891 78.0931C329.61 77.9348 329.325 77.7852 329.027 77.6396C328.746 77.4813 328.461 77.3317 328.163 77.1861C327.882 77.0278 327.597 76.8782 327.298 76.7327C327.018 76.5744 326.733 76.4247 326.434 76.2792C326.154 76.1209 325.869 75.9712 325.57 75.8257C325.29 75.6674 325.004 75.5178 324.706 75.3722C324.425 75.2139 324.14 75.0643 323.842 74.9187C323.561 74.7604 323.276 74.6108 322.978 74.4652C322.697 74.307 322.412 74.1573 322.114 74.0118C321.833 73.8535 321.548 73.7038 321.25 73.5583C320.969 73.4 320.684 73.2503 320.385 73.1048C320.105 72.9465 319.82 72.7969 319.521 72.6513C319.241 72.493 318.956 72.3434 318.657 72.1978C318.377 72.0395 318.091 71.8899 317.793 71.7443C317.513 71.5861 317.227 71.4364 316.929 71.2909C316.648 71.1326 316.363 70.9829 316.065 70.8374C315.784 70.6791 315.499 70.5294 315.201 70.3839C314.92 70.2256 314.635 70.076 314.337 69.9304C314.056 69.7721 313.771 69.6225 313.473 69.4769C313.192 69.3186 312.907 69.169 312.608 69.0235C312.328 68.8652 312.043 68.7155 311.744 68.57C311.464 68.4117 311.179 68.262 310.88 68.1165C310.6 67.9582 310.314 67.8086 310.016 67.663C309.735 67.5047 309.45 67.3551 309.152 67.2095C308.871 67.0512 308.586 66.9016 308.288 66.756C308.007 66.5977 307.722 66.4481 307.424 66.3026C307.143 66.1443 306.858 65.9946 306.56 65.8491C306.279 65.6908 305.994 65.5411 305.695 65.3956C305.415 65.2373 305.13 65.0877 304.831 64.9421C304.551 64.7838 304.266 64.6342 303.967 64.4886C303.687 64.3303 303.401 64.1807 303.103 64.0351C302.823 63.8769 302.537 63.7272 302.239 63.5817C301.958 63.4234 301.673 63.2737 301.375 63.1282C301.094 62.9699 300.809 62.8202 300.511 62.6747C300.23 62.5164 299.945 62.3668 299.647 62.2212C299.366 62.0629 299.081 61.9133 298.783 61.7677C298.502 61.6094 298.217 61.4598 297.918 61.3142C297.638 61.156 297.353 61.0063 297.054 60.8608C296.774 60.7025 296.489 60.5528 296.19 60.4073C295.91 60.249 295.624 60.0993 295.326 59.9538C295.045 59.7955 294.76 59.6459 294.462 59.5003C294.19 59.3466 293.905 59.1969 293.609 59.058C290.985 57.5048 287.833 57.107 284.879 57.9705C267.945 62.9629 259.457 65.466 259.413 65.4797C254.262 67.0861 251.047 72.1379 251.757 77.4979L255.923 108.416C255.346 107.909 254.748 107.43 254.122 106.975C252.981 106.145 251.78 105.42 250.541 104.809C250.261 104.651 249.974 104.494 249.684 104.353C249.397 104.197 249.111 104.048 248.82 103.9C248.532 103.744 248.247 103.594 247.956 103.447C247.668 103.29 247.383 103.141 247.091 102.993C246.804 102.837 246.519 102.687 246.227 102.54C245.94 102.383 245.655 102.234 245.363 102.086C245.076 101.93 244.791 101.78 244.499 101.633C244.212 101.476 243.927 101.327 243.635 101.179C243.348 101.023 243.063 100.873 242.771 100.726C242.484 100.569 242.198 100.42 241.907 100.272C241.62 100.116 241.334 99.9662 241.043 99.8187C240.755 99.6624 240.47 99.5128 240.179 99.3652C239.891 99.2089 239.606 99.0593 239.314 98.9117C239.027 98.7554 238.742 98.6058 238.45 98.4582C238.163 98.302 237.878 98.1523 237.586 98.0047C237.299 97.8485 237.014 97.6988 236.722 97.5512C236.435 97.395 236.15 97.2454 235.858 97.0978C235.571 96.9415 235.286 96.7919 234.994 96.6443C234.707 96.488 234.421 96.3384 234.13 96.1908C233.842 96.0345 233.557 95.8849 233.266 95.7373C232.978 95.5811 232.693 95.4314 232.401 95.2838C232.114 95.1276 231.829 94.9779 231.537 94.8303C231.25 94.6741 230.965 94.5245 230.673 94.3769C230.386 94.2206 230.101 94.071 229.809 93.9234C229.522 93.7671 229.237 93.6175 228.945 93.4699C228.658 93.3137 228.373 93.164 228.081 93.0164C227.794 92.8602 227.508 92.7105 227.217 92.5629C226.93 92.4067 226.644 92.257 226.353 92.1094C226.065 91.9532 225.78 91.8036 225.489 91.656C225.201 91.4997 224.916 91.3501 224.624 91.2025C224.337 91.0462 224.052 90.8966 223.76 90.749C223.473 90.5928 223.188 90.4431 222.896 90.2955C222.609 90.1393 222.324 89.9896 222.032 89.842C221.745 89.6858 221.46 89.5362 221.168 89.3886C220.881 89.2323 220.596 89.0827 220.304 88.9351C220.017 88.7788 219.731 88.6292 219.44 88.4816C219.152 88.3253 218.867 88.1757 218.576 88.0281C218.288 87.8719 218.003 87.7222 217.711 87.5746C217.424 87.4184 217.139 87.2687 216.847 87.1211C216.56 86.9649 216.275 86.8153 215.983 86.6677C215.696 86.5114 215.411 86.3618 215.119 86.2142C214.832 86.0579 214.547 85.9083 214.255 85.7607C213.968 85.6045 213.683 85.4548 213.391 85.3072C213.104 85.151 212.818 85.0013 212.527 84.8537C212.24 84.6975 211.954 84.5478 211.663 84.4002C211.375 84.244 211.09 84.0944 210.798 83.9468C210.511 83.7905 210.226 83.6409 209.934 83.4933C209.647 83.337 209.351 83.1763 209.055 83.0373C203.432 79.9542 197.099 79.3196 190.725 81.199L190.304 81.3304C183.52 83.4463 178.1 87.8481 174.194 94.4167C170.36 100.847 168.955 108.111 170.012 115.994C171.133 124.407 174.706 130.906 180.644 135.322C180.717 135.372 180.792 135.428 180.868 135.484C178.833 137.21 177.484 139.627 177.096 142.3C172.537 140.656 167.659 139.893 162.552 140.04C157.05 140.194 151.444 141.104 145.885 142.744C145.462 142.869 145.047 142.998 144.625 143.13C135.695 145.915 127.908 150.028 121.477 155.36C117.184 158.926 113.597 163.067 110.78 167.705C110.668 167.646 110.555 167.587 110.441 167.522C110.305 167.456 109.961 167.281 109.961 167.281C109.838 167.211 109.708 167.143 109.577 167.068C109.441 167.002 109.097 166.827 109.097 166.827C108.974 166.757 108.844 166.689 108.713 166.615C108.576 166.549 108.233 166.374 108.233 166.374C108.11 166.304 107.98 166.236 107.849 166.161C107.712 166.095 107.369 165.921 107.369 165.921C107.246 165.85 107.116 165.782 106.984 165.708C106.848 165.642 106.505 165.467 106.505 165.467C106.382 165.397 106.252 165.329 106.12 165.254C105.984 165.188 105.641 165.014 105.641 165.014C105.518 164.943 105.397 164.88 105.284 164.821C97.1887 160.506 88.1446 159.777 78.3941 162.645C78.3677 162.653 77.7202 162.848 77.7202 162.848C73.1232 164.282 69.0346 166.396 65.5778 169.122C64.2394 170.183 62.9692 171.324 61.7912 172.552C59.3564 171.395 56.5524 171.164 53.9234 171.933L49.2839 173.301C49.1975 173.255 48.8 173.047 48.8 173.047L18.7719 157.288L18.5645 157.179C15.606 155.572 12.3999 154.352 9.04344 153.577C0.894638 151.687 -8.59653 152.304 -19.1658 155.42C-19.6289 155.557 -20.0833 155.699 -20.5378 155.841C-34.981 160.346 -46.246 167.858 -54.0146 178.169C-62.4075 189.282 -65.6065 202.751 -63.5365 218.193C-62.1915 228.228 -58.9764 236.45 -53.9722 242.647C-50.172 247.347 -45.4512 251.153 -39.941 253.967C-39.6538 254.124 -39.362 254.271 -39.0703 254.419C-38.7831 254.575 -38.4979 254.725 -38.2062 254.872C-37.9189 255.029 -37.6338 255.178 -37.342 255.326C-37.0548 255.482 -36.7697 255.632 -36.4779 255.779C-36.1907 255.935 -35.9056 256.085 -35.6138 256.233C-35.3266 256.389 -35.0414 256.539 -34.7497 256.686C-34.4625 256.842 -34.1773 256.992 -33.8856 257.14C-33.5984 257.296 -33.3132 257.446 -33.0215 257.593C-32.7688 257.731 -32.5182 257.863 -32.259 257.999C-45.9008 262.022 -52.7436 264.041 -52.7875 264.055C-57.7929 265.616 -61.0233 270.528 -60.4797 275.723C-59.132 288.895 -55.1374 299.362 -48.6196 306.843C-45.0821 310.91 -40.9381 314.186 -36.2928 316.591C-36.0036 316.754 -35.7098 316.908 -35.4094 317.06C-35.1222 317.217 -34.837 317.366 -34.5453 317.514C-34.258 317.67 -33.9729 317.82 -33.6811 317.967C-33.3939 318.124 -33.1088 318.273 -32.817 318.421C-32.5298 318.577 -32.2446 318.727 -31.9529 318.874C-31.6657 319.031 -31.3805 319.18 -31.0888 319.328C-30.8016 319.484 -30.5164 319.634 -30.2247 319.781C-29.9375 319.937 -29.6523 320.087 -29.3606 320.235C-29.0733 320.391 -28.7882 320.541 -28.4964 320.688C-28.2092 320.844 -27.9241 320.994 -27.6323 321.142C-27.3451 321.298 -27.0599 321.448 -26.7682 321.595C-26.481 321.751 -26.1958 321.901 -25.9041 322.049C-25.6169 322.205 -25.3317 322.355 -25.04 322.502C-24.7527 322.658 -24.4676 322.808 -24.1758 322.956C-23.8886 323.112 -23.6035 323.261 -23.3117 323.409C-23.0245 323.565 -22.7394 323.715 -22.4476 323.863C-22.1604 324.019 -21.8752 324.168 -21.5835 324.316C-21.2963 324.472 -21.0111 324.622 -20.7194 324.77C-20.4322 324.926 -20.147 325.075 -19.8553 325.223C-19.568 325.379 -19.2829 325.529 -18.9911 325.676C-18.7039 325.833 -18.4188 325.982 -18.127 326.13C-17.8398 326.286 -17.5546 326.436 -17.2629 326.583C-16.9757 326.74 -16.6905 326.889 -16.3988 327.037C-16.1116 327.193 -15.8264 327.343 -15.5347 327.49C-15.2475 327.647 -14.9623 327.796 -14.6705 327.944C-14.3833 328.1 -14.0982 328.25 -13.8064 328.397C-13.5192 328.554 -13.2341 328.703 -12.9423 328.851C-12.6551 329.007 -12.3699 329.157 -12.0782 329.304C-11.791 329.461 -11.5058 329.61 -11.2141 329.758C-10.9269 329.914 -10.6417 330.064 -10.35 330.211C-10.0627 330.368 -9.77758 330.517 -9.48584 330.665C-9.19862 330.821 -8.91346 330.971 -8.62172 331.118C-8.33451 331.275 -8.04934 331.424 -7.7576 331.572C-7.47038 331.728 -7.18523 331.878 -6.89348 332.025C-6.60627 332.181 -6.32111 332.331 -6.02936 332.479C-5.74215 332.635 -5.45699 332.785 -5.16525 332.932C-4.87803 333.088 -4.59287 333.238 -4.30113 333.386C-4.01391 333.542 -3.72875 333.692 -3.43701 333.839C-3.14979 333.995 -2.86464 334.145 -2.57289 334.293C-2.28568 334.449 -2.00052 334.599 -1.70877 334.746C-1.42156 334.902 -1.1364 335.052 -0.844656 335.2C-0.557444 335.356 -0.272283 335.506 0.0194635 335.653C0.306679 335.809 0.591836 335.959 0.883582 336.107C1.1708 336.263 1.45596 336.412 1.7477 336.56C2.03491 336.716 2.32007 336.866 2.61182 337.014C2.89903 337.17 3.18419 337.319 3.47594 337.467C3.76315 337.623 4.04831 337.773 4.34005 337.921C4.62727 338.077 4.92106 338.231 5.21939 338.376C9.52719 340.742 14.3123 342.344 19.4558 343.125C27.7909 344.408 36.8034 343.831 46.2616 341.416C46.348 341.462 46.4323 341.5 46.5167 341.539C46.7907 341.7 47.0759 341.849 47.3808 341.993C47.6549 342.153 47.94 342.303 48.2449 342.446C48.519 342.606 48.8041 342.756 49.109 342.9C49.3831 343.06 49.6682 343.21 49.9732 343.353C50.2472 343.513 50.5324 343.663 50.8373 343.807C51.1113 343.967 51.3965 344.117 51.7014 344.26C51.9754 344.42 52.2606 344.57 52.5655 344.714C52.8396 344.874 53.1247 345.024 53.4296 345.167C53.7037 345.327 53.9888 345.477 54.2938 345.621C54.5678 345.781 54.853 345.931 55.1579 346.074C55.4319 346.234 55.7171 346.384 56.022 346.527C56.296 346.688 56.5812 346.837 56.8861 346.981C57.1602 347.141 57.4453 347.291 57.7502 347.434C58.0243 347.595 58.3094 347.744 58.6143 347.888C58.8884 348.048 59.1736 348.198 59.4785 348.341C59.7525 348.502 60.0377 348.651 60.3426 348.795C60.6166 348.955 60.9018 349.105 61.2067 349.248C61.4807 349.409 61.7659 349.558 62.0708 349.702C62.3449 349.862 62.63 350.012 62.9349 350.155C63.209 350.316 63.4941 350.465 63.7991 350.609C64.0731 350.769 64.3583 350.919 64.6632 351.062C64.9372 351.223 65.2224 351.372 65.5273 351.516C65.8013 351.676 66.0865 351.826 66.3914 351.969C66.6655 352.13 66.9506 352.279 67.2555 352.423C67.5296 352.583 67.8147 352.733 68.1196 352.876C68.3937 353.037 68.6788 353.186 68.9838 353.33C69.2578 353.49 69.543 353.64 69.8479 353.783C70.1219 353.944 70.4071 354.093 70.712 354.237C70.986 354.397 71.2712 354.547 71.5761 354.69C71.8502 354.851 72.1353 355 72.4402 355.144C72.7143 355.304 72.9994 355.454 73.3044 355.597C73.5784 355.757 73.8636 355.907 74.1685 356.051C74.4425 356.211 74.7277 356.361 75.0326 356.504C75.3066 356.664 75.5918 356.814 75.8967 356.958C76.1707 357.118 76.4559 357.268 76.7608 357.411C77.0349 357.571 77.32 357.721 77.6249 357.865C77.899 358.025 78.1841 358.175 78.4891 358.318C78.7631 358.478 79.0483 358.628 79.3532 358.772C79.6272 358.932 79.9124 359.082 80.2173 359.225C80.4913 359.385 80.7765 359.535 81.0814 359.678C81.3555 359.839 81.6406 359.988 81.9455 360.132C82.2196 360.292 82.5047 360.442 82.8097 360.585C83.0837 360.746 83.3689 360.895 83.6738 361.039C83.9478 361.199 84.233 361.349 84.5379 361.492C84.8119 361.653 85.0971 361.802 85.402 361.946C85.676 362.106 85.9612 362.256 86.2661 362.399C86.5402 362.56 86.8253 362.709 87.1302 362.853C87.4043 363.013 87.6808 363.158 87.9791 363.304C90.6006 364.85 93.7527 365.248 96.7131 364.383C113.637 359.389 122.123 356.884 122.171 356.869C127.315 355.265 130.532 350.219 129.824 344.866L125.794 314.824C130.103 315.223 134.693 314.716 139.486 313.308C139.512 313.3 140.186 313.097 140.186 313.097C146.693 311.068 152.523 307.68 157.525 303.026C160.458 300.289 163.092 297.125 165.384 293.583C165.568 293.685 165.756 293.778 165.944 293.871C166.021 293.912 166.099 293.953 166.177 293.994C166.386 294.109 166.594 294.218 166.808 294.325C166.879 294.367 166.955 294.402 167.024 294.438C169.623 295.912 172.451 297.011 175.445 297.689C179.071 298.518 182.873 298.749 186.774 298.4C187.742 299.464 188.919 300.341 190.24 300.963C190.517 301.129 190.808 301.277 191.107 301.423C191.387 301.581 191.674 301.737 191.971 301.876C192.251 302.034 192.539 302.191 192.835 302.33C193.116 302.488 193.403 302.644 193.699 302.783C193.98 302.941 194.267 303.098 194.563 303.237C194.844 303.395 195.131 303.551 195.427 303.69C195.708 303.848 195.995 304.005 196.291 304.144C196.572 304.302 196.859 304.458 197.155 304.597C197.436 304.755 197.723 304.912 198.02 305.05C198.3 305.209 198.587 305.365 198.884 305.504C199.164 305.662 199.452 305.819 199.748 305.957C200.028 306.116 200.316 306.272 200.612 306.411C200.893 306.569 201.18 306.725 201.476 306.864C201.757 307.023 202.044 307.179 202.34 307.318C202.621 307.476 202.908 307.632 203.204 307.771C203.485 307.93 203.772 308.086 204.068 308.225C204.349 308.383 204.636 308.539 204.933 308.678C205.213 308.837 205.5 308.993 205.797 309.132C206.077 309.29 206.364 309.446 206.661 309.585C206.941 309.744 207.229 309.9 207.525 310.039C207.806 310.197 208.093 310.353 208.389 310.492C208.67 310.651 208.957 310.807 209.253 310.946C209.534 311.104 209.821 311.26 210.117 311.399C210.398 311.558 210.685 311.714 210.981 311.853C211.262 312.011 211.549 312.167 211.845 312.306C212.126 312.465 212.413 312.621 212.71 312.76C212.99 312.918 213.277 313.074 213.574 313.213C213.854 313.371 214.142 313.528 214.438 313.667C214.718 313.825 215.006 313.981 215.302 314.12C215.583 314.278 215.87 314.435 216.166 314.574C216.447 314.732 216.734 314.888 217.03 315.027C217.311 315.185 217.598 315.342 217.894 315.481C218.175 315.639 218.462 315.795 218.758 315.934C219.039 316.092 219.326 316.249 219.623 316.388C219.903 316.546 220.19 316.702 220.487 316.841C220.767 316.999 221.054 317.156 221.351 317.295C221.631 317.453 221.919 317.609 222.215 317.748C222.496 317.906 222.783 318.063 223.079 318.201C223.36 318.36 223.647 318.516 223.943 318.655C224.224 318.813 224.511 318.97 224.807 319.108C225.088 319.267 225.375 319.423 225.671 319.562C225.952 319.72 226.239 319.876 226.535 320.015C226.816 320.174 227.103 320.33 227.4 320.469C227.68 320.627 227.967 320.783 228.264 320.922C228.544 321.081 228.832 321.237 229.128 321.376C229.408 321.534 229.696 321.69 229.992 321.829C230.273 321.988 230.56 322.144 230.856 322.283C231.13 322.443 231.422 322.591 231.718 322.73C233.416 323.726 235.342 324.246 237.31 324.232C240.206 324.225 243.151 324.051 246.053 323.717C249.242 323.352 252.89 322.561 257.194 321.298L257.826 321.101C264.333 319.071 269.667 315.665 273.672 310.967C277.684 306.267 280.334 300.423 281.557 293.592C282.624 287.606 282.653 280.771 281.654 273.26C281.478 271.999 281.272 270.552 281.022 268.917C280.792 267.413 280.584 265.959 280.401 264.584L280.348 264.16C287.653 267.051 295.622 267.255 304.089 264.766C304.322 264.701 304.552 264.629 304.783 264.557C309.432 263.107 313.537 260.951 316.971 258.152C317.947 257.364 318.888 256.513 319.785 255.612C322.319 256.947 325.281 257.245 328.031 256.424C344.912 251.448 353.374 248.953 353.418 248.939C358.16 247.46 361.265 243.05 361.161 238.173C361.86 238.447 362.569 238.703 363.28 238.944C372.348 241.95 382.622 241.804 393.815 238.508C393.848 238.498 394.949 238.162 394.949 238.162C403.571 235.473 411.049 231.412 417.172 226.09C418.117 225.274 419.041 224.415 419.934 223.522C419.938 223.535 419.953 223.538 419.968 223.54C420.242 223.701 420.527 223.85 420.832 223.994C421.106 224.154 421.391 224.304 421.696 224.447C421.964 224.61 422.247 224.753 422.543 224.892C425.167 226.445 428.319 226.843 431.279 225.977C448.314 220.953 456.855 218.434 456.904 218.418C462.054 216.812 465.265 211.769 464.557 206.416L456.04 142.895C456.249 142.592 456.477 142.304 456.718 142.033C457.541 141.104 458.62 140.254 459.92 139.509C461.358 138.677 463.074 137.947 465.011 137.343L465.557 137.172C466.81 136.81 468.073 136.525 469.296 136.324C470.426 136.145 471.648 136.054 472.874 136.069C474.045 136.094 475.213 135.925 476.333 135.575C478.269 134.971 479.993 133.848 481.305 132.355C483.44 129.954 484.418 126.742 483.99 123.564L479.876 92.9265C479.383 89.2124 477.012 85.9898 473.64 84.4024ZM409.311 102.927C408.018 103.67 406.8 104.491 405.666 105.373C405.771 104.32 405.898 103.29 406.04 102.284C406.68 97.9419 407.733 94.0201 409.182 90.6255C410.515 87.4841 412.279 84.8227 414.425 82.7144C416.394 80.7773 418.689 79.4251 421.456 78.5624L421.864 78.435L424.455 97.7262L424.311 97.7496C422.343 98.0669 420.388 98.5177 418.487 99.0743C418.237 99.1523 417.991 99.2218 417.741 99.2998C414.659 100.261 411.825 101.485 409.311 102.927ZM397.673 115.544C397.489 115.948 397.319 116.355 397.159 116.767C396.823 117.638 396.707 118.585 396.829 119.509L405.168 181.696L390.424 186.049L387.714 165.819C387.333 163.024 384.918 160.957 382.102 161.033C381.578 161.045 381.07 161.131 380.596 161.279C378.501 161.932 376.931 163.803 376.741 166.089C376.412 170.038 375.527 173.806 374.109 177.299C371.885 182.772 368.578 187.368 363.981 191.354C359.587 195.176 354.103 198.122 347.675 200.127C347.379 200.22 347.089 200.31 346.791 200.396C338.895 202.721 331.947 202.922 326.151 200.999C320.412 199.094 315.791 195.308 312.025 189.397C310.817 187.518 309.702 185.379 308.71 183.057C307.629 180.516 304.836 179.161 302.166 179.892L301.988 179.948C299.426 180.747 297.802 183.278 298.159 185.95L301.683 212.217L287.176 216.496L284.715 198.154C284.329 195.296 281.809 193.219 278.932 193.378C278.578 193.402 278.226 193.454 277.884 193.539C277.569 194.498 277.047 195.514 276.319 196.608C275.594 197.688 274.714 198.736 273.673 199.733C273.426 203.136 272.917 206.345 272.175 209.295C271.41 212.31 270.338 215.038 269.004 217.385C267.723 219.628 266.142 221.487 264.196 223.078C262.391 224.544 260.15 225.699 257.535 226.514C257.39 226.56 257.245 226.605 257.092 226.645C251.506 228.293 246.696 228.001 242.373 225.749C237.84 223.381 233.931 219.048 230.766 212.863C229.525 210.437 228.395 207.717 227.415 204.784C226.507 202.081 223.704 200.511 220.934 201.151C220.8 201.186 220.66 201.222 220.528 201.263C217.986 202.056 216.351 204.576 216.709 207.255L221.651 244.532C221.876 246.226 222.093 247.756 222.312 249.177C222.545 250.709 222.741 252.058 222.897 253.253C223.672 259.027 223.68 264.15 222.914 268.46C222.209 272.41 220.847 275.525 218.726 277.994C216.759 280.306 214.084 281.972 210.548 283.075L210.172 283.192C206.841 284.166 204.036 284.788 201.838 285.04C201.14 285.12 200.432 285.189 199.726 285.243L197.845 271.196C198.845 271.043 199.82 270.833 200.76 270.554L200.898 270.511C203.618 269.663 205.764 267.67 207.273 264.583C208.611 261.83 208.914 258.214 208.245 253.218L194.123 147.863L208.292 143.682L211.781 170.046C212.15 172.874 214.618 174.946 217.461 174.84C217.961 174.821 218.44 174.737 218.895 174.595C221.048 173.923 222.631 171.976 222.759 169.63C222.962 166.017 223.397 162.592 224.068 159.439C225.755 151.546 228.701 144.981 232.835 139.931C236.746 135.14 241.414 131.942 247.091 130.171C247.243 130.124 247.396 130.083 247.548 130.036C251.07 129.002 254.121 128.774 256.632 129.364C259.119 129.947 261.154 131.048 262.843 132.712C263.95 133.805 264.882 135.055 265.626 136.421C266.886 138.746 269.608 139.849 272.124 139.064L272.19 139.044C274.721 138.218 276.306 135.699 275.951 133.055L268.807 79.9813L283.386 75.68L292.58 144.317C292.951 147.079 295.318 149.132 298.101 149.11C298.655 149.103 299.191 149.015 299.698 148.857C301.733 148.222 303.28 146.439 303.537 144.226C303.897 141.163 304.457 138.234 305.215 135.518C307.461 127.428 311.278 120.62 316.559 115.285C321.664 110.129 328.039 106.333 335.508 104.003C335.771 103.921 336.035 103.839 336.305 103.755C343.663 101.582 350.031 101.331 355.219 102.996C360.279 104.621 364.334 107.983 367.618 113.278C368.624 114.902 369.561 116.771 370.485 118.992C371.55 121.551 374.35 122.927 377.022 122.202C377.09 122.188 377.162 122.165 377.228 122.145C379.783 121.348 381.414 118.815 381.058 116.142L378.035 93.6164L390.332 89.9907L394.397 111.483C394.756 113.352 396.022 114.837 397.671 115.537L397.673 115.544ZM206.074 106.243C206.631 110.393 205.981 114.008 204.074 117.278C202.296 120.312 200.097 122.206 197.364 123.058L197.199 123.109C194.612 123.873 192.548 123.534 190.504 122.009C188.273 120.348 186.937 117.663 186.423 113.789C185.863 109.655 186.521 106.088 188.422 102.892C190.199 99.9009 192.431 98.0192 195.236 97.1441L195.408 97.0907C197.956 96.3394 200.009 96.6677 202.058 98.1616C204.253 99.7544 205.566 102.389 206.074 106.243ZM171.392 225.634C171.066 225.656 170.742 225.706 170.44 225.779C170.103 227.641 169.433 229.477 168.435 231.284C167.732 232.552 166.924 233.737 166.012 234.845C165.542 239.757 164.17 244.371 161.937 248.61C159.477 253.26 155.162 256.5 148.734 258.505C148.55 258.562 148.365 258.62 148.185 258.669C144.068 259.881 140.228 260.102 136.773 259.314C133.56 258.581 130.929 256.937 128.737 254.287C127.437 252.712 126.371 250.687 125.578 248.259C124.816 245.931 122.598 244.381 120.152 244.464C119.643 244.478 119.157 244.565 118.69 244.711C116.898 245.269 115.467 246.728 114.986 248.613C114.237 251.544 113.297 254.274 112.184 256.753C110.043 261.542 107.255 265.557 103.895 268.687C100.736 271.625 97.0413 273.775 92.9118 275.063C92.7603 275.11 92.6068 275.151 92.4553 275.198C88.9878 276.222 85.9219 276.448 83.3387 275.858C80.8032 275.282 78.7598 274.199 77.0788 272.54C75.2756 270.767 73.9849 268.668 73.1349 266.128C72.2083 263.366 69.2991 261.8 66.4894 262.547C66.4083 262.565 66.3293 262.589 66.2503 262.614C63.5829 263.446 61.9441 266.162 62.4842 268.936L65.9747 286.87L70.4352 320.147L55.8562 324.448L48.5253 269.711C48.1647 267.026 45.9146 265.002 43.2081 264.921C42.5821 264.906 41.9738 264.995 41.4074 265.171C39.5106 265.763 38.0201 267.356 37.6315 269.4C36.569 274.937 34.3185 279.955 30.9393 284.321C24.68 292.404 15.485 298.374 3.61697 302.075C3.21522 302.201 2.82006 302.324 2.41625 302.443C-5.86399 304.881 -13.5303 305.58 -20.3904 304.531C-26.8175 303.55 -31.9701 300.747 -36.1419 295.967C-39.6814 291.895 -42.1175 286.054 -43.3936 278.556L-28.2199 274.077C-27.3254 276.805 -26.1497 279.208 -24.7096 281.253C-21.9381 285.204 -18.0477 287.714 -13.1269 288.731C-8.71234 289.632 -3.56707 289.191 2.60853 287.373C2.91355 287.285 3.22309 287.189 3.52605 287.094C7.89918 285.73 11.572 284.021 14.4608 281.999C17.8721 279.59 20.3284 276.691 21.7563 273.368C23.1574 270.075 23.605 266.437 23.0753 262.56C22.4562 257.887 20.5299 254.237 17.349 251.708C14.587 249.526 10.8563 248.014 5.93141 247.099C1.82833 246.34 -3.44118 245.641 -9.73143 245.029C-16.9447 244.192 -23.4022 242.743 -28.9386 240.725C-33.9941 238.882 -37.9667 236.108 -41.0889 232.238C-44.1515 228.443 -46.1869 222.983 -47.1216 216.001C-48.6135 204.869 -46.5415 195.757 -40.7998 188.146C-35.1433 180.655 -26.6634 175.104 -15.5989 171.653C-15.23 171.538 -14.8546 171.42 -14.4837 171.312C-6.67976 169.015 -0.0268467 168.473 5.3087 169.708C10.327 170.876 14.321 173.556 17.5258 177.899C20.2879 181.658 22.4944 186.624 24.0991 192.695L9.7066 196.946C8.99454 195.057 8.10829 193.374 7.05651 191.901C4.71846 188.669 1.61277 186.543 -2.18731 185.573C-5.65528 184.696 -9.6571 184.91 -14.1076 186.211C-14.3513 186.287 -14.5904 186.355 -14.8275 186.429C-20.7286 188.269 -25.271 190.944 -28.3333 194.379C-31.9042 198.385 -33.3773 203.602 -32.58 209.448C-32.0122 213.725 -30.581 217.248 -28.311 219.938C-26.0258 222.63 -22.6217 224.67 -18.1978 225.994C-14.4707 227.124 -9.5898 228.06 -3.25313 228.867C2.07197 229.512 7.40281 230.199 12.5892 230.91C17.1878 231.543 21.4151 232.654 25.1556 234.22C28.4547 235.599 31.1331 237.699 33.3626 240.676C33.5946 240.98 33.8472 241.349 34.1244 241.798C35.4488 243.959 38.0639 244.929 40.4678 244.179C40.5337 244.159 40.6061 244.136 40.6765 244.107C43.1286 243.234 44.6406 240.759 44.2976 238.177L38.3424 193.805L52.6295 189.588L54.2802 199.607L55.1689 206.256C55.5468 209.066 57.9944 211.144 60.8311 211.041C61.3332 211.029 61.8193 210.942 62.2737 210.8C62.5848 210.06 63.0251 209.293 63.588 208.503C64.2967 207.509 65.1598 206.545 66.1727 205.622C66.4075 202.042 66.9197 198.68 67.677 195.616C68.3989 192.694 69.4643 190.063 70.8416 187.783C72.1648 185.584 73.8 183.736 75.8297 182.135C77.6976 180.663 79.9984 179.49 82.6723 178.656L83.0741 178.53C88.589 176.911 93.3055 177.204 97.5068 179.437C101.954 181.809 105.81 186.109 108.98 192.241C109.212 192.682 109.419 193.138 109.635 193.599L109.797 193.932C110.878 196.24 113.389 197.503 115.885 197C116.075 196.962 116.255 196.913 116.439 196.856C118.646 196.167 120.21 194.161 120.305 191.803C120.429 188.584 120.962 185.569 121.89 182.843C123.882 176.951 127.207 172.132 132.046 168.114C136.811 164.163 142.702 161.082 149.551 158.945C149.887 158.841 150.223 158.736 150.561 158.638C154.757 157.401 158.951 156.715 163.019 156.596C166.752 156.494 170.076 157.142 173.176 158.576C176.08 159.918 178.524 162.214 180.654 165.591C182.913 169.174 184.507 174.353 185.387 180.976L193.841 244.016L179.462 248.263L177.202 230.452C176.83 227.567 174.293 225.459 171.392 225.634Z" fill="#FAFAFA"/>
<path d="M471.058 89.2996C470.787 89.124 470.499 88.9678 470.194 88.8461C469.922 88.6706 469.635 88.5143 469.33 88.3926C469.058 88.2171 468.771 88.0608 468.466 87.9392C468.194 87.7636 467.907 87.6074 467.602 87.4857C467.33 87.3101 467.043 87.1539 466.738 87.0322C466.466 86.8566 466.179 86.7004 465.873 86.5787C465.602 86.4031 465.315 86.2469 465.009 86.1253C464.738 85.9497 464.45 85.7934 464.145 85.6718C463.874 85.4962 463.586 85.3399 463.281 85.2183C463.009 85.0427 462.722 84.8865 462.417 84.7648C462.145 84.5892 461.858 84.433 461.553 84.3113C461.281 84.1357 460.994 83.9795 460.689 83.8578C460.417 83.6823 460.13 83.526 459.825 83.4043C459.553 83.2288 459.266 83.0725 458.96 82.9509C458.689 82.7753 458.402 82.6191 458.096 82.4974C457.825 82.3218 457.538 82.1656 457.232 82.0439C456.961 81.8683 456.673 81.7121 456.368 81.5904C456.097 81.4148 455.809 81.2586 455.504 81.1369C455.232 80.9613 454.945 80.8051 454.64 80.6835C454.368 80.5079 454.081 80.3516 453.776 80.23C453.504 80.0544 453.217 79.8982 452.912 79.7765C452.64 79.6009 452.353 79.4447 452.047 79.323C451.776 79.1474 451.489 78.9912 451.183 78.8695C450.912 78.6939 450.625 78.5377 450.319 78.416C450.048 78.2405 449.761 78.0842 449.455 77.9626C449.184 77.787 448.896 77.6307 448.591 77.5091C448.319 77.3335 448.032 77.1773 447.727 77.0556C447.455 76.88 447.168 76.7238 446.863 76.6021C446.591 76.4265 446.304 76.2703 445.999 76.1486C445.727 75.973 445.44 75.8168 445.135 75.6951C444.863 75.5196 444.576 75.3633 444.27 75.2417C443.999 75.0661 443.712 74.9098 443.406 74.7882C443.135 74.6126 442.848 74.4564 442.542 74.3347C442.271 74.1591 441.983 74.0029 441.678 73.8812C441.407 73.7056 441.119 73.5494 440.814 73.4277C440.542 73.2522 440.255 73.0959 439.95 72.9742C439.678 72.7987 439.391 72.6424 439.086 72.5208C438.814 72.3452 438.527 72.189 438.222 72.0673C437.95 71.8917 437.663 71.7355 437.358 71.6138C437.086 71.4382 436.799 71.282 436.493 71.1603C436.222 70.9847 435.935 70.8285 435.629 70.7068C435.358 70.5313 435.07 70.375 434.765 70.2534C434.494 70.0778 434.206 69.9215 433.901 69.7999C433.629 69.6243 433.342 69.4681 433.037 69.3464C432.765 69.1708 432.478 69.0146 432.173 68.8929C431.901 68.7173 431.614 68.5611 431.309 68.4394C431.037 68.2638 430.75 68.1076 430.445 67.9859C430.173 67.8104 429.886 67.6541 429.58 67.5325C428.811 67.035 427.911 66.7227 426.946 66.6624C425.601 66.5684 424.122 66.6683 422.548 66.9497C421.221 67.19 419.901 67.5004 418.63 67.8751C418.477 67.9157 418.319 67.965 418.167 68.0123C413.748 69.3906 409.883 71.688 406.686 74.8322C404.94 76.5554 403.371 78.4981 402.001 80.639C401.977 80.6319 401.953 80.6249 401.927 80.6113C401.89 80.5866 401.854 80.5619 401.817 80.5372C401.576 80.3883 401.321 80.2655 401.063 80.1578C401.026 80.1331 400.99 80.1084 400.953 80.0837C400.712 79.9349 400.456 79.812 400.199 79.7044C400.162 79.6796 400.126 79.6549 400.089 79.6302C399.847 79.4814 399.592 79.3585 399.335 79.2509C399.298 79.2261 399.261 79.2014 399.225 79.1767C398.983 79.0279 398.728 78.905 398.471 78.7974C398.434 78.7727 398.397 78.7479 398.361 78.7232C398.119 78.5744 397.864 78.4515 397.607 78.3439C397.57 78.3192 397.533 78.2945 397.497 78.2697C396.166 77.4557 394.553 77.2429 393.056 77.6808C393.056 77.6808 370.318 84.3899 370.292 84.3981C367.723 85.1992 366.105 87.7282 366.462 90.4006L367.284 96.5355C367.284 96.5355 367.234 96.5148 367.21 96.5078C366.923 96.3516 366.643 96.1933 366.346 96.0543C366.059 95.8981 365.778 95.7398 365.482 95.6009C365.195 95.4446 364.914 95.2863 364.618 95.1474C364.331 94.9911 364.05 94.8328 363.754 94.6939C362.115 93.8171 360.401 93.0719 358.594 92.493C352.023 90.3781 344.469 90.3483 336.12 92.3811L335.807 90.0567C335.596 88.4525 334.689 87.029 333.34 86.1556C333.068 85.98 332.785 85.837 332.493 85.7112C332.491 85.7046 332.489 85.698 332.476 85.7021C332.204 85.5265 331.921 85.3835 331.629 85.2577C331.627 85.2511 331.625 85.2445 331.612 85.2486C331.34 85.073 331.057 84.93 330.765 84.8042C330.763 84.7976 330.761 84.791 330.748 84.7951C330.476 84.6196 330.193 84.4765 329.901 84.3507C329.899 84.3441 329.897 84.3376 329.884 84.3417C329.612 84.1661 329.329 84.023 329.037 83.8972C329.035 83.8907 329.033 83.8841 329.019 83.8882C328.748 83.7126 328.465 83.5695 328.173 83.4438C328.171 83.4372 328.169 83.4306 328.155 83.4347C327.884 83.2591 327.601 83.1161 327.309 82.9903C327.306 82.9837 327.304 82.9771 327.291 82.9812C327.02 82.8056 326.737 82.6626 326.444 82.5368C326.442 82.5302 326.44 82.5236 326.427 82.5277C326.156 82.3522 325.872 82.2091 325.58 82.0833C325.578 82.0767 325.576 82.0701 325.563 82.0743C325.291 81.8987 325.008 81.7556 324.716 81.6298C324.714 81.6233 324.712 81.6167 324.699 81.6208C324.427 81.4452 324.144 81.3021 323.852 81.1764C323.85 81.1698 323.848 81.1632 323.835 81.1673C323.563 80.9917 323.28 80.8487 322.988 80.7229C322.986 80.7163 322.984 80.7097 322.971 80.7138C322.699 80.5382 322.416 80.3952 322.124 80.2694C322.122 80.2628 322.12 80.2562 322.107 80.2603C321.835 80.0847 321.552 79.9417 321.26 79.8159C321.258 79.8093 321.256 79.8027 321.242 79.8068C320.971 79.6313 320.688 79.4882 320.396 79.3624C320.394 79.3558 320.391 79.3493 320.378 79.3534C320.107 79.1778 319.824 79.0347 319.531 78.9089C319.529 78.9024 319.527 78.8958 319.514 78.8999C319.243 78.7243 318.96 78.5812 318.667 78.4555C318.665 78.4489 318.663 78.4423 318.65 78.4464C318.378 78.2708 318.095 78.1278 317.803 78.002C317.801 77.9954 317.799 77.9888 317.786 77.9929C317.514 77.8173 317.231 77.6743 316.939 77.5485C316.937 77.5419 316.935 77.5353 316.922 77.5394C316.65 77.3639 316.367 77.2208 316.075 77.095C316.073 77.0884 316.071 77.0818 316.058 77.086C315.786 76.9104 315.503 76.7673 315.211 76.6415C315.209 76.6349 315.207 76.6284 315.194 76.6325C314.922 76.4569 314.639 76.3138 314.347 76.188C314.345 76.1815 314.343 76.1749 314.329 76.179C314.058 76.0034 313.775 75.8603 313.483 75.7346C313.481 75.728 313.479 75.7214 313.465 75.7255C313.194 75.5499 312.911 75.4069 312.619 75.2811C312.616 75.2745 312.614 75.2679 312.601 75.272C312.33 75.0964 312.047 74.9534 311.754 74.8276C311.752 74.821 311.75 74.8144 311.737 74.8185C311.466 74.643 311.182 74.4999 310.89 74.3741C310.888 74.3675 310.886 74.3609 310.873 74.3651C310.601 74.1895 310.318 74.0464 310.026 73.9206C310.024 73.9141 310.022 73.9075 310.009 73.9116C309.737 73.736 309.454 73.5929 309.162 73.4672C309.16 73.4606 309.158 73.454 309.145 73.4581C308.873 73.2825 308.59 73.1395 308.298 73.0137C308.296 73.0071 308.294 73.0005 308.281 73.0046C308.009 72.829 307.726 72.686 307.434 72.5602C307.432 72.5536 307.43 72.547 307.417 72.5511C307.145 72.3755 306.862 72.2325 306.57 72.1067C306.568 72.1001 306.566 72.0935 306.552 72.0976C306.281 71.9221 305.998 71.779 305.706 71.6532C305.704 71.6466 305.701 71.6401 305.688 71.6442C305.417 71.4686 305.134 71.3255 304.841 71.1997C304.839 71.1932 304.837 71.1866 304.824 71.1907C304.553 71.0151 304.27 70.872 303.977 70.7463C303.975 70.7397 303.973 70.7331 303.96 70.7372C303.688 70.5616 303.405 70.4186 303.113 70.2928C303.111 70.2862 303.109 70.2796 303.096 70.2837C302.824 70.1081 302.541 69.9651 302.249 69.8393C302.247 69.8327 302.245 69.8261 302.232 69.8302C301.96 69.6547 301.677 69.5116 301.385 69.3858C301.383 69.3792 301.381 69.3726 301.368 69.3767C301.096 69.2012 300.813 69.0581 300.521 68.9323C300.519 68.9257 300.517 68.9192 300.504 68.9233C300.232 68.7477 299.949 68.6046 299.657 68.4788C299.655 68.4723 299.653 68.4657 299.639 68.4698C299.368 68.2942 299.085 68.1511 298.793 68.0254C298.791 68.0188 298.789 68.0122 298.775 68.0163C298.504 67.8407 298.221 67.6977 297.929 67.5719C297.926 67.5653 297.924 67.5587 297.911 67.5628C297.64 67.3872 297.357 67.2442 297.064 67.1184C297.062 67.1118 297.06 67.1052 297.047 67.1093C296.776 66.9338 296.492 66.7907 296.2 66.6649C296.198 66.6583 296.196 66.6517 296.183 66.6559C295.911 66.4803 295.628 66.3372 295.336 66.2114C295.334 66.2048 295.332 66.1983 295.319 66.2024C295.047 66.0268 294.764 65.8837 294.472 65.758C294.47 65.7514 294.468 65.7448 294.455 65.7489C294.183 65.5733 293.9 65.4302 293.608 65.3045C293.606 65.2979 293.604 65.2913 293.591 65.2954C293.319 65.1198 293.036 64.9768 292.744 64.851C292.742 64.8444 292.74 64.8378 292.727 64.8419C292.455 64.6663 292.172 64.5233 291.88 64.3975C291.878 64.3909 291.876 64.3843 291.862 64.3884C291.591 64.2129 291.308 64.0698 291.016 63.944C291.014 63.9374 291.011 63.9309 290.998 63.935C289.647 63.055 287.982 62.8151 286.433 63.2694C286.433 63.2694 261.079 70.7437 261.052 70.752C258.49 71.551 256.868 74.0887 257.225 76.761L263.028 119.857C261.791 119.346 260.499 118.932 259.15 118.615C258.346 118.425 257.519 118.3 256.677 118.194C255.25 115.472 253.31 113.214 250.878 111.442C249.944 110.764 248.976 110.184 247.979 109.7C247.698 109.542 247.404 109.388 247.115 109.247C246.834 109.088 246.54 108.934 246.251 108.793C245.97 108.635 245.676 108.481 245.387 108.34C245.106 108.181 244.812 108.027 244.522 107.886C244.242 107.728 243.948 107.574 243.658 107.433C243.378 107.274 243.084 107.12 242.794 106.979C242.514 106.821 242.22 106.667 241.93 106.526C241.649 106.367 241.356 106.213 241.066 106.072C240.785 105.914 240.492 105.76 240.202 105.619C239.921 105.46 239.627 105.306 239.338 105.165C239.057 105.007 238.763 104.853 238.474 104.712C238.193 104.553 237.899 104.399 237.609 104.258C237.329 104.1 237.035 103.946 236.745 103.805C236.465 103.646 236.171 103.492 235.881 103.351C235.601 103.193 235.307 103.039 235.017 102.898C234.736 102.739 234.443 102.585 234.153 102.444C233.872 102.286 233.579 102.132 233.289 101.991C233.008 101.833 232.714 101.678 232.425 101.537C232.144 101.379 231.85 101.225 231.561 101.084C231.28 100.926 230.986 100.771 230.697 100.63C230.416 100.472 230.122 100.318 229.832 100.177C229.552 100.019 229.258 99.8644 228.968 99.7234C228.688 99.5651 228.394 99.4109 228.104 99.2699C227.824 99.1116 227.53 98.9574 227.24 98.8164C226.959 98.6581 226.666 98.504 226.376 98.363C226.095 98.2047 225.802 98.0505 225.512 97.9095C225.231 97.7512 224.937 97.597 224.648 97.456C224.367 97.2977 224.073 97.1435 223.784 97.0025C223.503 96.8442 223.209 96.69 222.919 96.549C222.639 96.3907 222.345 96.2365 222.055 96.0955C221.775 95.9373 221.481 95.7831 221.191 95.6421C220.911 95.4838 220.617 95.3296 220.327 95.1886C220.046 95.0303 219.753 94.8761 219.463 94.7351C219.182 94.5768 218.889 94.4226 218.599 94.2816C218.318 94.1233 218.024 93.9691 217.735 93.8281C217.454 93.6698 217.16 93.5157 216.871 93.3747C216.59 93.2164 216.296 93.0622 216.007 92.9212C215.726 92.7629 215.432 92.6087 215.142 92.4677C214.862 92.3094 214.568 92.1552 214.278 92.0142C213.998 91.8559 213.704 91.7017 213.414 91.5607C213.134 91.4024 212.84 91.2482 212.55 91.1072C212.269 90.9489 211.976 90.7948 211.686 90.6538C211.405 90.4955 211.111 90.3413 210.822 90.2003C210.541 90.042 210.247 89.8878 209.958 89.7468C209.677 89.5885 209.383 89.4343 209.094 89.2933C208.813 89.135 208.519 88.9808 208.229 88.8398C207.949 88.6815 207.655 88.5273 207.365 88.3863C207.085 88.228 206.791 88.0739 206.501 87.9329C202.166 85.5254 197.296 85.0199 192.279 86.4979L191.944 86.6027C186.497 88.3015 182.12 91.8789 178.929 97.2412C175.747 102.586 174.589 108.652 175.474 115.266C176.394 122.151 179.238 127.403 183.913 130.875C184.898 131.602 185.916 132.224 186.965 132.736C187.252 132.892 187.539 133.048 187.829 133.189C188.116 133.346 188.404 133.502 188.693 133.643C188.98 133.799 189.268 133.955 189.557 134.096C189.845 134.253 190.132 134.409 190.421 134.55C190.709 134.706 190.996 134.862 191.286 135.003C191.573 135.16 191.86 135.316 192.15 135.457C192.437 135.613 192.724 135.769 193.014 135.91C193.301 136.066 193.588 136.223 193.878 136.364C193.904 136.377 193.921 136.386 193.947 136.4C189.718 137.647 186.382 138.629 186.376 138.631C183.814 139.431 182.191 141.968 182.546 144.634L183.469 151.511C183.364 151.45 183.253 151.397 183.141 151.338C182.861 151.18 182.562 151.035 182.277 150.885C181.996 150.727 181.698 150.581 181.413 150.432C181.132 150.273 180.834 150.128 180.549 149.978C180.268 149.82 179.97 149.674 179.685 149.525C179.069 149.174 178.447 148.848 177.807 148.556C173.179 146.413 168.103 145.408 162.701 145.56C157.679 145.702 152.542 146.538 147.433 148.045C147.042 148.16 146.653 148.281 146.265 148.402C138.032 150.97 130.87 154.744 124.995 159.613C119.788 163.933 115.806 169.145 113.08 175.143C113.074 175.145 113.065 175.14 113.057 175.136C112.875 175.04 112.698 174.958 112.516 174.863C112.411 174.802 112.305 174.741 112.192 174.682C112.011 174.587 111.834 174.505 111.652 174.41C111.546 174.349 111.441 174.288 111.328 174.229C111.147 174.133 110.97 174.051 110.788 173.956C110.682 173.895 110.577 173.834 110.464 173.775C110.283 173.68 110.105 173.598 109.924 173.503C109.818 173.442 109.712 173.381 109.6 173.322C109.419 173.227 109.241 173.144 109.06 173.049C108.954 172.988 108.848 172.927 108.736 172.868C108.555 172.773 108.377 172.691 108.196 172.596C108.09 172.535 107.984 172.474 107.872 172.415C107.69 172.32 107.513 172.238 107.332 172.142C107.226 172.081 107.12 172.02 107.008 171.961C106.826 171.866 106.649 171.784 106.467 171.689C106.362 171.628 106.256 171.567 106.144 171.508C105.962 171.413 105.785 171.331 105.603 171.235C105.498 171.174 105.392 171.113 105.28 171.054C105.098 170.959 104.921 170.877 104.739 170.782C104.634 170.721 104.528 170.66 104.415 170.601C104.234 170.506 104.057 170.424 103.875 170.328C103.769 170.267 103.664 170.206 103.551 170.147C103.37 170.052 103.192 169.97 103.011 169.875C102.905 169.814 102.8 169.753 102.687 169.694C95.9092 166.082 88.2612 165.496 79.948 167.944C79.7505 168.006 79.5508 168.061 79.3598 168.12C75.4082 169.353 71.9214 171.149 68.9876 173.467C66.7652 175.215 64.8015 177.238 63.1259 179.488C62.9704 179.407 62.8082 179.327 62.6436 179.263C62.6222 179.24 62.5963 179.227 62.5683 179.207C62.3182 179.053 62.0523 178.919 61.7795 178.809C61.7581 178.787 61.7322 178.773 61.7042 178.753C61.454 178.6 61.1882 178.466 60.9154 178.356C60.894 178.333 60.8681 178.32 60.8401 178.3C60.5899 178.146 60.3241 178.012 60.0513 177.902C60.0299 177.88 60.004 177.866 59.976 177.846C58.6371 177.006 57.0069 176.784 55.4839 177.23L48.6937 179.232C48.4411 179.094 48.1839 178.965 47.9333 178.833C47.6461 178.677 47.3544 178.529 47.0692 178.38C46.782 178.224 46.4902 178.076 46.2051 177.926C45.9179 177.77 45.6261 177.622 45.341 177.473C45.0538 177.317 44.762 177.169 44.4768 177.019C44.1896 176.863 43.8979 176.715 43.6127 176.566C43.3255 176.41 43.0338 176.262 42.7486 176.112C42.4614 175.956 42.1697 175.809 41.8845 175.659C41.5973 175.503 41.3055 175.355 41.0204 175.205C40.7332 175.049 40.4414 174.902 40.1563 174.752C39.869 174.596 39.5773 174.448 39.2921 174.298C39.0049 174.142 38.7132 173.995 38.428 173.845C38.1408 173.689 37.8491 173.541 37.5639 173.391C37.2767 173.235 36.9849 173.088 36.6998 172.938C36.4126 172.782 36.1208 172.634 35.8357 172.484C35.5484 172.328 35.2567 172.181 34.9715 172.031C34.6843 171.875 34.3926 171.727 34.1074 171.578C33.8202 171.421 33.5285 171.274 33.2433 171.124C32.9561 170.968 32.6644 170.82 32.3792 170.671C32.092 170.514 31.8002 170.367 31.5151 170.217C31.2279 170.061 30.9361 169.913 30.651 169.764C30.3637 169.607 30.072 169.46 29.7868 169.31C29.4996 169.154 29.2079 169.006 28.9227 168.857C28.6355 168.7 28.3438 168.553 28.0586 168.403C27.7714 168.247 27.4796 168.099 27.1945 167.95C26.9073 167.793 26.6155 167.646 26.3304 167.496C26.0432 167.34 25.7514 167.192 25.4663 167.043C25.179 166.886 24.8873 166.739 24.6021 166.589C24.3149 166.433 24.0232 166.285 23.738 166.136C23.4508 165.979 23.1591 165.832 22.8739 165.682C22.5867 165.526 22.2949 165.378 22.0098 165.229C21.7226 165.073 21.4308 164.925 21.1457 164.775C20.8584 164.619 20.5667 164.471 20.2815 164.322C19.9943 164.166 19.7026 164.018 19.4174 163.868C19.1302 163.712 18.8385 163.564 18.5533 163.415C18.2661 163.259 17.9744 163.111 17.6892 162.961C17.402 162.805 17.1102 162.658 16.8251 162.508C16.5379 162.352 16.2461 162.204 15.961 162.054C13.4411 160.671 10.7181 159.634 7.78961 158.956C0.574994 157.281 -7.96871 157.878 -17.6053 160.717C-18.042 160.846 -18.4701 160.98 -18.8982 161.113C-32.2086 165.265 -42.5444 172.118 -49.6142 181.495C-57.0958 191.406 -59.9411 203.507 -58.0672 217.462C-56.8597 226.477 -54.0393 233.782 -49.683 239.176C-46.3518 243.299 -42.2238 246.617 -37.381 249.076C-37.0938 249.233 -36.8086 249.382 -36.5169 249.53C-36.2297 249.686 -35.9445 249.836 -35.6528 249.983C-35.3656 250.139 -35.0804 250.289 -34.7887 250.437C-34.5014 250.593 -34.2163 250.743 -33.9245 250.89C-33.6373 251.046 -33.3522 251.196 -33.0604 251.344C-32.7732 251.5 -32.488 251.65 -32.1963 251.797C-31.9091 251.953 -31.6239 252.103 -31.3322 252.251C-31.045 252.407 -30.7598 252.557 -30.4681 252.704C-30.1808 252.86 -29.8957 253.01 -29.6039 253.158C-29.3167 253.314 -29.0316 253.464 -28.7398 253.611C-28.4526 253.767 -28.1675 253.917 -27.8757 254.065C-27.5885 254.221 -27.3033 254.37 -27.0116 254.518C-26.7244 254.674 -26.4392 254.824 -26.1475 254.972C-25.8603 255.128 -25.5751 255.277 -25.2834 255.425C-24.9961 255.581 -24.711 255.731 -24.4192 255.879C-24.132 256.035 -23.8469 256.184 -23.5551 256.332C-23.2679 256.488 -22.9827 256.638 -22.691 256.785C-22.4038 256.942 -22.1186 257.091 -21.8269 257.239C-21.5397 257.395 -21.2545 257.545 -20.9628 257.692C-20.6756 257.849 -20.3904 257.998 -20.0987 258.146C-19.8114 258.302 -19.5263 258.452 -19.2345 258.599C-18.9473 258.756 -18.6622 258.905 -18.3704 259.053C-18.0832 259.209 -17.798 259.359 -17.5063 259.506C-17.2191 259.663 -16.9339 259.812 -16.6422 259.96C-16.355 260.116 -16.0698 260.266 -15.7781 260.413C-15.4908 260.57 -15.2057 260.719 -14.9139 260.867C-14.6267 261.023 -14.3416 261.173 -14.0498 261.32C-13.7626 261.477 -13.4774 261.626 -13.1857 261.774C-12.8985 261.93 -12.6133 262.08 -12.3216 262.227C-12.0344 262.384 -11.7492 262.533 -11.4575 262.681C-11.1703 262.837 -10.8851 262.987 -10.5933 263.134C-10.3061 263.29 -10.021 263.44 -9.72923 263.588C-9.44202 263.744 -9.15686 263.894 -8.86512 264.041C-8.5779 264.197 -8.29274 264.347 -8.00099 264.495C-7.71378 264.651 -7.42862 264.801 -7.13688 264.948C-6.84966 265.104 -6.56451 265.254 -6.27276 265.402C-5.98555 265.558 -5.70039 265.708 -5.40864 265.855C-5.12143 266.011 -4.83627 266.161 -4.54452 266.309C-4.25731 266.465 -3.97215 266.615 -3.6804 266.762C-3.39319 266.918 -3.10803 267.068 -2.81629 267.216C-2.52907 267.372 -2.24392 267.521 -1.95217 267.669C-1.66496 267.825 -1.3798 267.975 -1.08805 268.123C-0.80084 268.279 -0.515678 268.428 -0.223936 268.576C0.063281 268.732 0.348439 268.882 0.640187 269.03C0.927398 269.186 1.21256 269.335 1.5043 269.483C1.79152 269.639 2.07667 269.789 2.36842 269.936C2.65563 270.093 2.94079 270.242 3.23254 270.39C3.51975 270.546 3.80491 270.696 4.09665 270.843C5.4422 271.566 6.84128 272.229 8.30295 272.814C8.23873 272.863 8.1745 272.912 8.11027 272.961C6.8472 273.846 5.27341 274.663 3.42595 275.412C3.2877 275.34 3.13627 275.271 2.99348 275.207C2.96755 275.194 2.9548 275.176 2.93093 275.169C2.67665 275.003 2.40424 274.871 2.12936 274.754C2.10343 274.74 2.09069 274.723 2.06682 274.716C1.81253 274.549 1.54013 274.417 1.26524 274.3C1.23932 274.287 1.22657 274.269 1.2027 274.262C0.948413 274.096 0.676009 273.964 0.401122 273.847C0.375201 273.833 0.362448 273.816 0.338582 273.809C0.0842963 273.642 -0.188112 273.51 -0.462995 273.394C-0.488916 273.38 -0.501669 273.362 -0.525537 273.355C-0.779821 273.189 -1.05223 273.057 -1.32711 272.94C-1.35303 272.926 -1.36579 272.909 -1.38966 272.902C-1.64394 272.735 -1.91635 272.603 -2.19123 272.487C-2.21715 272.473 -2.2299 272.455 -2.25377 272.448C-2.50806 272.282 -2.78046 272.15 -3.05535 272.033C-3.08127 272.019 -3.09402 272.002 -3.11789 271.995C-3.37217 271.828 -3.64458 271.696 -3.91946 271.58C-3.94539 271.566 -3.95814 271.548 -3.98201 271.541C-4.23629 271.375 -4.5087 271.243 -4.78359 271.126C-4.80951 271.112 -4.82226 271.095 -4.84613 271.088C-5.10041 270.921 -5.37282 270.789 -5.6477 270.673C-5.67362 270.659 -5.68638 270.641 -5.71024 270.634C-5.96453 270.468 -6.23694 270.336 -6.51182 270.219C-6.53774 270.206 -6.55049 270.188 -6.57437 270.181C-6.82865 270.014 -7.10105 269.882 -7.37594 269.766C-7.40186 269.752 -7.41461 269.734 -7.43848 269.727C-7.69276 269.561 -7.96517 269.429 -8.24005 269.312C-8.26598 269.299 -8.27873 269.281 -8.3026 269.274C-8.55688 269.107 -8.82929 268.975 -9.10417 268.859C-9.1301 268.845 -9.14285 268.827 -9.16672 268.82C-9.421 268.654 -9.69341 268.522 -9.96829 268.405C-9.99421 268.392 -10.007 268.374 -10.0308 268.367C-10.2851 268.2 -10.5575 268.068 -10.8324 267.952C-10.8583 267.938 -10.8711 267.92 -10.895 267.913C-11.1492 267.747 -11.4216 267.615 -11.6965 267.498C-11.7225 267.485 -11.7352 267.467 -11.7591 267.46C-12.0134 267.293 -12.2858 267.161 -12.5606 267.045C-12.5866 267.031 -12.5993 267.013 -12.6232 267.006C-12.8775 266.84 -13.1499 266.708 -13.4248 266.591C-13.4507 266.578 -13.4634 266.56 -13.4873 266.553C-13.7416 266.386 -14.014 266.254 -14.2889 266.138C-14.3148 266.124 -14.3276 266.106 -14.3514 266.099C-14.6057 265.933 -14.8781 265.801 -15.153 265.684C-15.1789 265.671 -15.1917 265.653 -15.2155 265.646C-15.4698 265.479 -15.7422 265.348 -16.0171 265.231C-16.043 265.217 -16.0558 265.2 -16.0797 265.192C-16.3339 265.026 -16.6064 264.894 -16.8812 264.777C-16.9072 264.764 -16.9199 264.746 -16.9438 264.739C-17.1981 264.572 -17.4705 264.441 -17.7454 264.324C-17.7713 264.31 -17.784 264.293 -17.8079 264.286C-18.0622 264.119 -18.3346 263.987 -18.6095 263.87C-18.6354 263.857 -18.6481 263.839 -18.672 263.832C-18.9263 263.666 -19.1987 263.534 -19.4736 263.417C-19.4995 263.403 -19.5123 263.386 -19.5361 263.379C-19.7904 263.212 -20.0628 263.08 -20.3377 262.963C-20.3636 262.95 -20.3764 262.932 -20.4003 262.925C-20.6545 262.759 -20.9269 262.627 -21.2018 262.51C-21.2277 262.496 -21.2405 262.479 -21.2644 262.472C-22.6074 261.618 -24.2462 261.392 -25.7692 261.838C-25.7692 261.838 -51.1216 269.319 -51.1479 269.327C-53.6506 270.108 -55.2687 272.543 -54.994 275.161C-53.7614 287.176 -50.2163 296.619 -44.4648 303.219C-41.3351 306.812 -37.7346 309.644 -33.6876 311.729C-33.407 311.888 -33.1152 312.035 -32.8235 312.183C-32.5428 312.341 -32.2511 312.489 -31.9594 312.636C-31.6787 312.795 -31.387 312.942 -31.0952 313.09C-30.8146 313.248 -30.5229 313.396 -30.2311 313.543C-29.9505 313.702 -29.6587 313.849 -29.367 313.997C-29.0864 314.155 -28.7946 314.303 -28.5029 314.45C-28.2223 314.609 -27.9305 314.756 -27.6388 314.904C-27.3581 315.062 -27.0664 315.21 -26.7746 315.357C-26.494 315.516 -26.2023 315.663 -25.9105 315.811C-25.6299 315.969 -25.3382 316.117 -25.0464 316.264C-24.7658 316.422 -24.474 316.57 -24.1823 316.718C-23.9017 316.876 -23.6099 317.024 -23.3182 317.171C-23.0375 317.329 -22.7458 317.477 -22.4541 317.625C-22.1734 317.783 -21.8817 317.931 -21.5899 318.078C-21.3093 318.236 -21.0176 318.384 -20.7258 318.532C-20.4452 318.69 -20.1534 318.837 -19.8617 318.985C-19.5811 319.143 -19.2893 319.291 -18.9976 319.439C-18.717 319.597 -18.4252 319.744 -18.1335 319.892C-17.8528 320.05 -17.5611 320.198 -17.2694 320.346C-16.9887 320.504 -16.697 320.651 -16.4052 320.799C-16.1246 320.957 -15.8329 321.105 -15.5411 321.252C-15.2605 321.411 -14.9687 321.558 -14.677 321.706C-14.3964 321.864 -14.1046 322.012 -13.8129 322.159C-13.5322 322.318 -13.2405 322.465 -12.9488 322.613C-12.6681 322.771 -12.3764 322.919 -12.0846 323.066C-11.804 323.225 -11.5123 323.372 -11.2205 323.52C-10.9399 323.678 -10.6482 323.826 -10.3564 323.973C-10.0758 324.132 -9.78404 324.279 -9.49229 324.427C-9.21166 324.585 -8.91992 324.733 -8.62817 324.88C-8.34754 325.039 -8.0558 325.186 -7.76405 325.334C-7.48342 325.492 -7.19168 325.64 -6.89993 325.787C-6.61931 325.946 -6.32756 326.093 -6.03582 326.241C-5.75519 326.399 -5.46345 326.547 -5.1717 326.694C-4.89107 326.853 -4.59933 327 -4.30758 327.148C-4.02695 327.306 -3.7352 327.454 -3.44346 327.601C-3.16283 327.76 -2.87109 327.907 -2.57935 328.055C-2.29871 328.213 -2.00697 328.361 -1.71522 328.508C-1.4346 328.667 -1.14285 328.814 -0.851109 328.962C-0.570477 329.12 -0.278736 329.268 0.01301 329.415C0.293637 329.573 0.585384 329.721 0.877129 329.869C1.15776 330.027 1.4495 330.175 1.74124 330.322C2.02187 330.48 2.31362 330.628 2.60536 330.776C2.88599 330.934 3.17773 331.082 3.46948 331.229C3.75011 331.387 4.04186 331.535 4.3336 331.683C4.61422 331.841 4.90597 331.988 5.19771 332.136C5.47834 332.294 5.77009 332.442 6.06183 332.59C6.34246 332.748 6.63421 332.895 6.92595 333.043C7.20658 333.201 7.49832 333.349 7.79007 333.497C11.5621 335.581 15.7403 336.974 20.2854 337.668C28.5966 338.944 37.6738 338.18 47.2848 335.421C47.5715 335.715 47.885 335.979 48.2364 336.202C48.508 336.377 48.7911 336.52 49.0832 336.646L49.1005 336.655C49.3721 336.831 49.6552 336.974 49.9474 337.1L49.9647 337.109C50.2362 337.284 50.5193 337.427 50.8115 337.553L50.8288 337.562C51.1003 337.738 51.3834 337.881 51.6756 338.006L51.6929 338.016C51.9645 338.191 52.2476 338.334 52.5397 338.46L52.557 338.469C52.8286 338.645 53.1117 338.788 53.4038 338.913L53.4211 338.923C53.6927 339.098 53.9758 339.241 54.268 339.367L54.2852 339.376C54.5568 339.552 54.8399 339.695 55.1321 339.82L55.1494 339.829C55.4209 340.005 55.704 340.148 55.9962 340.274L56.0135 340.283C56.285 340.459 56.5681 340.602 56.8603 340.727L56.8776 340.736C57.1492 340.912 57.4323 341.055 57.7244 341.181L57.7417 341.19C58.0133 341.366 58.2964 341.509 58.5885 341.634L58.6058 341.643C58.8774 341.819 59.1605 341.962 59.4527 342.088L59.4699 342.097C59.7415 342.272 60.0246 342.416 60.3168 342.541L60.3341 342.55C60.6056 342.726 60.8887 342.869 61.1809 342.995L61.1982 343.004C61.4697 343.179 61.7529 343.322 62.045 343.448L62.0623 343.457C62.3339 343.633 62.617 343.776 62.9091 343.902L62.9264 343.911C63.198 344.086 63.4811 344.229 63.7733 344.355L63.7905 344.364C64.0621 344.54 64.3452 344.683 64.6374 344.809L64.6547 344.818C64.9262 344.993 65.2093 345.136 65.5015 345.262L65.5188 345.271C65.7903 345.447 66.0734 345.59 66.3656 345.716L66.3829 345.725C66.6545 345.9 66.9376 346.043 67.2297 346.169L67.247 346.178C67.5186 346.354 67.8017 346.497 68.0938 346.623L68.1111 346.632C68.3827 346.807 68.6658 346.95 68.958 347.076L68.9752 347.085C69.2468 347.261 69.5299 347.404 69.8221 347.53L69.8394 347.539C70.1109 347.714 70.394 347.857 70.6862 347.983L70.7035 347.992C70.975 348.168 71.2582 348.311 71.5503 348.437L71.5676 348.446C71.8392 348.621 72.1223 348.764 72.4144 348.89L72.4317 348.899C72.7033 349.075 72.9864 349.218 73.2785 349.344L73.2958 349.353C73.5674 349.528 73.8505 349.671 74.1427 349.797L74.16 349.806C74.4315 349.982 74.7146 350.125 75.0068 350.251L75.0241 350.26C75.2956 350.435 75.5787 350.578 75.8709 350.704L75.8882 350.713C76.1598 350.889 76.4429 351.032 76.735 351.157L76.7523 351.167C77.0239 351.342 77.307 351.485 77.5991 351.611L77.6164 351.62C77.888 351.796 78.1711 351.939 78.4633 352.064L78.4805 352.074C78.7521 352.249 79.0352 352.392 79.3274 352.518L79.3447 352.527C79.6162 352.703 79.8993 352.846 80.1915 352.971L80.2088 352.98C80.4803 353.156 80.7634 353.299 81.0556 353.425L81.0729 353.434C81.3445 353.61 81.6276 353.753 81.9197 353.878L81.937 353.887C82.2086 354.063 82.4917 354.206 82.7838 354.332L82.8011 354.341C83.0727 354.517 83.3558 354.66 83.648 354.785L83.6653 354.794C83.9368 354.97 84.2199 355.113 84.5121 355.239L84.5294 355.248C84.8009 355.423 85.084 355.567 85.3762 355.692L85.3935 355.701C85.6651 355.877 85.9481 356.02 86.2403 356.146L86.2576 356.155C86.5292 356.33 86.8123 356.473 87.1044 356.599L87.1217 356.608C87.3933 356.784 87.6764 356.927 87.9686 357.053L87.9858 357.062C88.2574 357.237 88.5405 357.38 88.8327 357.506L88.85 357.515C89.1215 357.691 89.4046 357.834 89.6968 357.96L89.7141 357.969C89.9856 358.144 90.2687 358.287 90.5609 358.413L90.5782 358.422C91.9294 359.302 93.5942 359.542 95.1435 359.088C95.1435 359.088 120.489 351.609 120.522 351.599C123.084 350.8 124.702 348.271 124.345 345.598L119.253 307.609C120.518 308.119 121.848 308.535 123.238 308.846C127.679 309.854 132.621 309.571 137.923 308.011C138.127 307.948 138.333 307.891 138.537 307.827C144.261 306.042 149.374 303.066 153.754 298.989C157.516 295.48 160.703 291.196 163.267 286.232C163.39 286.302 163.52 286.37 163.649 286.438C163.93 286.596 164.226 286.735 164.513 286.891C164.794 287.05 165.09 287.189 165.378 287.345C165.658 287.503 165.954 287.642 166.242 287.798C166.522 287.957 166.819 288.096 167.106 288.252C167.386 288.41 167.683 288.549 167.97 288.705C168.251 288.864 168.547 289.003 168.834 289.159C169.115 289.317 169.411 289.456 169.698 289.612C171.844 290.837 174.17 291.739 176.66 292.307C180.766 293.239 185.106 293.273 189.608 292.44C190.061 294.099 191.261 295.424 192.807 296.069C193.079 296.245 193.364 296.395 193.671 296.523C193.943 296.698 194.228 296.848 194.535 296.976C194.807 297.152 195.092 297.302 195.399 297.43C195.671 297.605 195.956 297.755 196.263 297.883C196.535 298.059 196.82 298.209 197.128 298.337C197.399 298.512 197.684 298.662 197.992 298.79C198.263 298.966 198.548 299.116 198.856 299.244C199.127 299.419 199.413 299.569 199.72 299.697C199.992 299.873 200.277 300.022 200.584 300.151C200.856 300.326 201.141 300.476 201.448 300.604C201.72 300.78 202.005 300.929 202.312 301.058C202.584 301.233 202.869 301.383 203.176 301.511C203.448 301.687 203.733 301.836 204.041 301.965C204.312 302.14 204.597 302.29 204.905 302.418C205.176 302.594 205.461 302.743 205.769 302.872C206.04 303.047 206.326 303.197 206.633 303.325C206.904 303.501 207.19 303.65 207.497 303.779C207.769 303.954 208.054 304.104 208.361 304.232C208.633 304.408 208.918 304.557 209.225 304.686C209.497 304.861 209.782 305.011 210.089 305.139C210.361 305.315 210.646 305.464 210.953 305.593C211.225 305.768 211.51 305.918 211.818 306.046C212.089 306.222 212.374 306.371 212.682 306.5C212.953 306.675 213.238 306.825 213.546 306.953C213.817 307.129 214.103 307.278 214.41 307.406C214.682 307.582 214.967 307.732 215.274 307.86C215.546 308.036 215.831 308.185 216.138 308.313C216.41 308.489 216.695 308.639 217.002 308.767C217.274 308.943 217.559 309.092 217.866 309.22C218.138 309.396 218.423 309.546 218.731 309.674C219.002 309.849 219.287 309.999 219.595 310.127C219.866 310.303 220.151 310.453 220.459 310.581C220.73 310.756 221.016 310.906 221.323 311.034C221.594 311.21 221.88 311.36 222.187 311.488C222.459 311.663 222.744 311.813 223.051 311.941C223.323 312.117 223.608 312.267 223.915 312.395C224.187 312.57 224.472 312.72 224.779 312.848C225.051 313.024 225.336 313.173 225.643 313.302C225.915 313.477 226.2 313.627 226.508 313.755C226.779 313.931 227.064 314.08 227.372 314.209C227.643 314.384 227.928 314.534 228.236 314.662C228.507 314.838 228.793 314.987 229.1 315.116C229.372 315.291 229.657 315.441 229.964 315.569C230.236 315.745 230.521 315.894 230.828 316.023C231.1 316.198 231.385 316.348 231.692 316.476C231.964 316.652 232.249 316.801 232.556 316.93C232.828 317.105 233.113 317.255 233.421 317.383C233.692 317.559 233.977 317.708 234.285 317.837C235.153 318.397 236.186 318.719 237.29 318.714C239.961 318.705 242.701 318.545 245.421 318.231C248.304 317.903 251.639 317.174 255.631 316.001L256.178 315.831C261.67 314.117 266.146 311.275 269.47 307.383C272.842 303.432 275.074 298.47 276.118 292.62C277.085 287.193 277.103 280.926 276.178 273.999C276.012 272.771 275.808 271.352 275.56 269.745C275.325 268.206 275.114 266.718 274.927 265.308L273.502 254.553C273.502 254.553 273.539 254.578 273.563 254.585C273.71 254.662 273.861 254.73 274.008 254.808C274.146 254.88 274.282 254.968 274.427 255.038C274.574 255.116 274.725 255.184 274.872 255.261C275.01 255.334 275.146 255.421 275.291 255.492C275.438 255.569 275.589 255.637 275.736 255.715C275.874 255.787 276.01 255.875 276.155 255.945C276.302 256.022 276.453 256.091 276.6 256.168C276.739 256.241 276.874 256.328 277.019 256.399C277.166 256.476 277.318 256.544 277.464 256.622C277.603 256.694 277.738 256.782 277.883 256.852C278.03 256.929 278.182 256.998 278.329 257.075C278.467 257.148 278.603 257.235 278.747 257.306C278.894 257.383 279.046 257.451 279.193 257.528C279.331 257.601 279.467 257.689 279.612 257.759C286.484 261.349 294.208 261.926 302.559 259.459C302.752 259.406 302.943 259.346 303.134 259.287C307.112 258.046 310.597 256.221 313.49 253.866C315.37 252.34 317.04 250.604 318.511 248.692C318.761 248.845 319.027 248.979 319.293 249.092C319.295 249.098 319.297 249.105 319.312 249.107C319.584 249.283 319.867 249.426 320.157 249.545C320.159 249.552 320.161 249.558 320.176 249.561C320.448 249.736 320.731 249.879 321.021 249.999C321.023 250.005 321.025 250.012 321.041 250.014C321.312 250.19 321.595 250.333 321.885 250.452C321.887 250.459 321.889 250.465 321.905 250.468C323.254 251.341 324.921 251.588 326.468 251.127C326.468 251.127 351.743 243.677 351.77 243.669C354.332 242.87 355.947 240.334 355.591 237.662L354.383 228.647C354.541 228.735 354.694 228.81 354.856 228.889C355.144 229.046 355.429 229.195 355.721 229.343C356.008 229.499 356.293 229.649 356.585 229.796C356.872 229.953 357.157 230.102 357.449 230.25C357.736 230.406 358.021 230.556 358.313 230.703C358.6 230.86 358.885 231.009 359.177 231.157C361.034 232.175 362.984 233.028 365.015 233.703C372.997 236.354 382.158 236.186 392.252 233.211C392.601 233.102 392.952 233 393.301 232.891C401.191 230.43 408.009 226.735 413.553 221.918C415.442 220.281 417.166 218.536 418.751 216.689C418.855 216.744 418.97 216.787 419.078 216.833C419.08 216.84 419.082 216.846 419.095 216.842C419.367 217.018 419.65 217.161 419.942 217.287C419.944 217.293 419.946 217.3 419.96 217.296C420.231 217.471 420.514 217.614 420.806 217.74C420.808 217.747 420.81 217.753 420.824 217.749C421.095 217.925 421.378 218.068 421.67 218.194C421.673 218.2 421.675 218.207 421.688 218.203C421.959 218.378 422.242 218.521 422.535 218.647C422.537 218.654 422.539 218.66 422.552 218.656C422.823 218.832 423.107 218.975 423.399 219.101C423.401 219.107 423.403 219.114 423.416 219.11C423.688 219.285 423.971 219.428 424.263 219.554C424.265 219.561 424.267 219.567 424.28 219.563C424.552 219.739 424.835 219.882 425.127 220.008C425.129 220.014 425.131 220.021 425.144 220.017C426.495 220.897 428.16 221.136 429.71 220.682C429.71 220.682 455.222 213.159 455.255 213.148C457.817 212.349 459.435 209.82 459.078 207.148L450.318 141.781C450.929 140.52 451.675 139.391 452.59 138.361C453.81 136.99 455.35 135.764 457.157 134.724C458.958 133.685 461.044 132.796 463.362 132.073L463.955 131.888C465.412 131.462 466.916 131.116 468.422 130.87C469.847 130.643 471.381 130.533 472.975 130.549C473.564 130.561 474.138 130.476 474.684 130.305C475.639 130.007 476.501 129.457 477.173 128.69C478.237 127.491 478.726 125.885 478.512 124.296L474.404 93.6567C474.139 91.6716 472.827 90.0349 471.058 89.2996ZM187.206 126.443C183.753 123.876 181.663 119.908 180.946 114.528C180.225 109.157 181.134 104.333 183.671 100.071C186.206 95.803 189.602 93.0446 193.844 91.7938C198.034 90.5593 201.852 91.1906 205.299 93.6942C208.738 96.1932 210.827 100.133 211.541 105.506C212.265 110.884 211.357 115.736 208.834 120.066C206.303 124.391 202.943 127.174 198.753 128.408C194.505 129.661 190.659 129.01 187.206 126.443ZM174.801 255.392L171.72 231.149C171.676 238.4 170.037 245.078 166.812 251.188C163.587 257.299 157.899 261.56 149.739 263.968C144.676 265.46 139.945 265.699 135.543 264.701C131.139 263.696 127.452 261.397 124.482 257.805C122.718 255.672 121.337 253.052 120.329 249.983C119.506 253.204 118.472 256.216 117.218 259.007C114.762 264.502 111.571 269.076 107.651 272.728C103.732 276.38 99.1842 278.969 94.0159 280.495C89.609 281.797 85.6393 282.045 82.1153 281.242C78.5847 280.442 75.6105 278.854 73.1993 276.475C70.788 274.097 69.0211 271.235 67.8964 267.884L71.421 285.973L76.5297 324.109L51.2366 331.571L43.047 270.444C41.817 276.857 39.2402 282.613 35.2993 287.703C28.0645 297.038 17.623 303.715 3.97023 307.742C-5.11762 310.417 -13.5182 311.172 -21.2223 309.989C-28.9311 308.814 -35.2884 305.346 -40.3056 299.594C-45.3162 293.84 -48.3851 285.506 -49.5038 274.598L-24.2107 267.136C-23.4927 271.662 -22.1533 275.307 -20.197 278.081C-18.2453 280.863 -15.5206 282.602 -12.0299 283.32C-8.54127 284.032 -4.19075 283.615 1.03894 282.078C5.28114 280.827 8.69085 279.294 11.2767 277.482C13.8605 275.664 15.6575 273.571 16.6742 271.201C17.6844 268.832 17.997 266.197 17.6015 263.284C17.1748 260.062 15.9448 257.648 13.918 256.039C11.8933 254.436 8.89138 253.268 4.92535 252.532C0.952723 251.797 -4.12747 251.126 -10.3218 250.52C-18.0208 249.632 -24.8519 248.097 -30.8303 245.912C-36.8067 243.735 -41.6553 240.331 -45.3872 235.711C-49.1191 231.091 -51.5176 224.768 -52.6 216.733C-54.2723 204.212 -51.8154 193.576 -45.2093 184.821C-38.6077 176.074 -28.8853 169.803 -16.0468 166.015C-7.29027 163.436 0.244657 162.871 6.5469 164.333C12.8491 165.794 17.9895 169.23 21.9639 174.628C25.9404 180.032 28.8307 187.329 30.6304 196.528L5.82013 203.847C5.22033 200.21 4.13497 197.309 2.57519 195.135C1.01087 192.97 -1.03078 191.568 -3.54317 190.927C-6.06216 190.288 -9.06427 190.487 -12.547 191.508C-17.8208 193.066 -21.7143 195.25 -24.2191 198.063C-26.7259 200.869 -27.6979 204.426 -27.1152 208.726C-26.6865 211.955 -25.6837 214.498 -24.1028 216.369C-22.524 218.233 -20.0251 219.688 -16.6057 220.711C-13.1909 221.743 -8.51209 222.633 -2.58903 223.389C2.93196 224.06 8.24099 224.746 13.336 225.442C18.4396 226.142 23.0792 227.37 27.2765 229.126C31.4718 230.876 34.9629 233.612 37.7477 237.327C38.1266 237.824 38.4807 238.357 38.8192 238.909L32.2387 189.845L57.049 182.526L59.738 198.794L60.6382 205.526C60.8947 201.506 61.4535 197.76 62.3147 194.288C63.1739 190.81 64.4408 187.689 66.1108 184.934C67.7723 182.175 69.8715 179.799 72.4064 177.801C74.9347 175.805 77.9731 174.286 81.5065 173.242C88.4152 171.203 94.6105 171.649 100.095 174.566C105.572 177.485 110.165 182.523 113.865 189.683C114.187 190.299 114.482 190.944 114.784 191.587C114.933 187.847 115.55 184.335 116.656 181.069C118.966 174.247 122.921 168.509 128.518 163.864C134.118 159.225 140.943 155.716 148.991 153.343C153.67 151.963 158.291 151.209 162.854 151.079C167.417 150.95 171.628 151.777 175.489 153.566C179.35 155.355 182.628 158.382 185.317 162.647C188.008 166.919 189.859 172.784 190.856 180.245L199.936 247.979L174.801 255.392ZM430.698 102.813C428.774 102.784 426.937 102.917 425.196 103.199C423.45 103.484 421.736 103.874 420.048 104.371C417.057 105.254 414.392 106.374 412.058 107.716C409.723 109.059 407.742 110.653 406.12 112.475C404.501 114.303 403.225 116.4 402.298 118.779L411.262 185.658L385.803 193.166L382.235 166.551C381.86 171.05 380.861 175.33 379.219 179.378C376.685 185.62 372.813 190.999 367.597 195.525C362.378 200.06 355.962 203.449 348.345 205.695C339.316 208.352 331.339 208.541 324.413 206.24C317.49 203.946 311.807 199.327 307.372 192.381C305.978 190.206 304.734 187.818 303.628 185.22L307.777 216.179L282.561 223.61L279.238 198.893L279.23 199.351C278.973 203.372 278.405 207.135 277.521 210.65C276.631 214.166 275.385 217.331 273.788 220.136C272.178 222.944 270.146 225.35 267.668 227.366C265.194 229.374 262.194 230.903 258.652 231.942C251.691 233.998 245.412 233.563 239.819 230.644C234.226 227.725 229.569 222.642 225.853 215.385C224.469 212.686 223.243 209.728 222.174 206.533L227.116 243.81C227.309 245.261 227.522 246.778 227.766 248.35C228.004 249.924 228.205 251.308 228.365 252.516C229.221 258.9 229.211 264.543 228.344 269.434C227.471 274.326 225.669 278.373 222.925 281.578C220.19 284.788 216.456 287.088 211.724 288.485C208.077 289.557 204.987 290.239 202.454 290.53C199.92 290.814 197.407 290.962 194.924 290.97L191.541 265.737C192.526 265.906 193.717 265.969 195.123 265.914C196.529 265.858 197.887 265.645 199.197 265.258C200.448 264.889 201.478 263.859 202.303 262.17C203.121 260.484 203.278 257.745 202.766 253.95L188.02 143.903L212.911 136.566L217.246 169.325C217.458 165.463 217.926 161.774 218.668 158.289C220.546 149.483 223.84 142.202 228.553 136.437C233.26 130.674 239.076 126.778 245.985 124.739C250.446 123.427 254.414 123.172 257.885 123.991C261.363 124.808 264.304 126.407 266.716 128.785C268.219 130.268 269.47 131.939 270.475 133.794L262.696 76.0232L287.998 68.5653L298.05 143.587C298.437 140.263 299.046 137.073 299.892 134.04C302.406 124.977 306.658 117.433 312.632 111.398C318.611 105.361 325.976 101.054 334.737 98.4664C343.222 95.9647 350.613 95.7271 356.909 97.7472C363.206 99.7738 368.334 103.98 372.3 110.371C373.519 112.333 374.599 114.52 375.581 116.881L371.936 89.6693L394.622 82.9767L399.82 110.463C399.91 107.348 400.16 104.349 400.575 101.487C401.284 96.6456 402.459 92.3027 404.095 88.4665C405.725 84.6323 407.882 81.4001 410.554 78.7738C413.225 76.1476 416.443 74.2764 420.195 73.1709C421.28 72.8472 422.391 72.5873 423.527 72.3847C424.657 72.1841 425.682 72.1103 426.589 72.1673L430.698 102.813Z" fill="#3652ED"/>
<path d="M185.318 162.647C182.629 158.382 179.351 155.355 175.49 153.566C171.629 151.777 167.419 150.951 162.855 151.08C158.292 151.209 153.671 151.963 148.992 153.343C140.945 155.716 134.119 159.226 128.519 163.864C122.922 168.509 118.967 174.247 116.657 181.07C115.551 184.336 114.934 187.847 114.785 191.588C114.483 190.944 114.188 190.299 113.866 189.684C110.166 182.523 105.573 177.485 100.096 174.566C94.6116 171.649 88.4163 171.203 81.5076 173.242C77.9742 174.286 74.9358 175.805 72.4074 177.801C69.8726 179.799 67.7734 182.175 66.1119 184.934C64.4419 187.689 63.175 190.81 62.3158 194.288C61.4546 197.76 60.8958 201.506 60.6393 205.526L59.7391 198.794L57.0501 182.526L32.2398 189.845L38.8203 238.909C38.4818 238.357 38.1276 237.824 37.7488 237.327C34.964 233.612 31.4729 230.876 27.2776 229.126C23.0803 227.37 18.4407 226.142 13.3371 225.442C8.24206 224.746 2.93303 224.06 -2.58796 223.389C-8.51102 222.633 -13.1898 221.743 -16.6047 220.711C-20.024 219.688 -22.5229 218.234 -24.1017 216.369C-25.6826 214.498 -26.6854 211.955 -27.1142 208.727C-27.6968 204.426 -26.7249 200.869 -24.218 198.063C-21.7133 195.25 -17.8197 193.067 -12.546 191.509C-9.06319 190.487 -6.06109 190.288 -3.5421 190.927C-1.0297 191.568 1.01194 192.97 2.57626 195.135C4.13605 197.309 5.2214 200.21 5.8212 203.848L30.6315 196.529C28.8318 187.329 25.9414 180.032 21.965 174.628C17.9906 169.23 12.8502 165.794 6.54797 164.333C0.245728 162.872 -7.2892 163.436 -16.0457 166.015C-28.8843 169.803 -38.6066 176.074 -45.2082 184.821C-51.8143 193.577 -54.2713 204.212 -52.5989 216.733C-51.5165 224.768 -49.118 231.091 -45.3861 235.711C-41.6542 240.331 -36.8056 243.735 -30.8292 245.913C-24.8508 248.097 -18.0197 249.632 -10.3208 250.52C-4.1264 251.126 0.953795 251.797 4.92641 252.532C8.89245 253.269 11.8944 254.436 13.9191 256.039C15.9458 257.648 17.1759 260.062 17.6026 263.284C17.9981 266.197 17.6855 268.832 16.6753 271.201C15.6585 273.571 13.8616 275.665 11.2778 277.483C8.69192 279.294 5.28222 280.828 1.04001 282.078C-4.18968 283.616 -8.54019 284.033 -12.0288 283.32C-15.5195 282.602 -18.2442 280.863 -20.196 278.081C-22.1523 275.308 -23.4917 271.662 -24.2096 267.136L-49.5027 274.598C-48.3841 285.507 -45.3151 293.84 -40.3045 299.594C-35.2874 305.346 -28.93 308.814 -21.2213 309.989C-13.5171 311.172 -5.11654 310.417 3.9713 307.742C17.6241 303.715 28.0656 297.038 35.3004 287.703C39.2413 282.613 41.8181 276.857 43.0481 270.444L51.2377 331.571L76.5308 324.109L71.4221 285.973L67.8975 267.884C69.0222 271.235 70.7891 274.097 73.2004 276.475C75.6116 278.854 78.5858 280.442 82.1164 281.242C85.6404 282.045 89.6101 281.797 94.017 280.495C99.1853 278.97 103.733 276.38 107.652 272.728C111.572 269.076 114.763 264.502 117.219 259.008C118.473 256.216 119.507 253.204 120.33 249.983C121.338 253.052 122.719 255.673 124.483 257.805C127.453 261.397 131.141 263.696 135.544 264.701C139.946 265.7 144.677 265.46 149.74 263.968C157.9 261.56 163.588 257.299 166.813 251.189C170.038 245.078 171.677 238.4 171.721 231.149L174.802 255.392L199.937 247.979L190.858 180.246C189.86 172.784 188.009 166.92 185.318 162.647ZM121.582 216.552C120.965 211.958 120.133 207.713 119.105 203.768L139.999 197.612C139.334 193.07 139.339 189.424 140.016 186.661C140.687 183.899 141.986 181.737 143.894 180.188C145.81 178.636 148.264 177.422 151.255 176.54C155.934 175.16 159.386 175.522 161.624 177.622C163.855 179.724 165.412 184.068 166.293 190.647L166.675 193.493C164.58 194.305 162.04 195.314 159.064 196.524C156.086 197.728 152.933 199.087 149.602 200.596C146.265 202.107 143.05 203.71 139.941 205.417C135.302 207.97 131.241 210.958 127.744 214.391C125.502 216.587 123.644 219.039 122.156 221.752C122.007 220.048 121.822 218.32 121.582 216.552ZM63.5846 208.504C64.2933 207.51 65.1563 206.546 66.1692 205.623C66.8535 204.99 67.6028 204.381 68.4262 203.777C70.4559 202.291 72.804 201.153 75.4705 200.365C80.9702 198.744 85.4781 199.897 89.0008 203.823C92.5235 207.749 94.9272 214.483 96.2073 224.032C97.5638 234.15 97.0835 242.087 94.7689 247.826C92.4563 253.573 88.5798 257.247 83.1394 258.85C80.4202 259.655 77.9934 259.891 75.8546 259.568C73.7245 259.249 71.8991 258.401 70.3912 257.042C68.8747 255.679 67.6852 253.881 66.8185 251.635L61.6717 213.215C61.7173 212.434 61.916 211.635 62.2703 210.801C62.5813 210.061 63.0216 209.295 63.5846 208.504ZM168.432 231.286C167.729 232.553 166.92 233.738 166.009 234.847C165.084 235.959 164.056 236.996 162.918 237.936C160.652 239.822 158.193 241.16 155.524 241.941C153.453 242.551 151.625 242.601 150.027 242.087C148.435 241.571 147.15 240.533 146.181 238.978C145.207 237.431 144.556 235.414 144.228 232.949C143.699 229.029 144.277 225.552 145.963 222.525C147.649 219.497 151.125 216.483 156.376 213.486C157.995 212.489 159.892 211.435 162.062 210.331C164.235 209.234 166.383 208.174 168.507 207.15L170.691 223.467C170.665 224.241 170.58 225.012 170.436 225.78C170.099 227.642 169.429 229.478 168.432 231.286Z" fill="#D0EAFD"/>
<path d="M168.506 207.148L170.69 223.465C170.664 224.239 170.579 225.01 170.436 225.778C170.099 227.64 169.428 229.476 168.431 231.283C167.728 232.551 166.919 233.736 166.008 234.844C165.083 235.957 164.055 236.994 162.917 237.934C160.651 239.819 158.192 241.158 155.523 241.939C153.452 242.549 151.624 242.599 150.026 242.085C148.434 241.569 147.149 240.531 146.18 238.976C145.206 237.428 144.555 235.412 144.227 232.947C143.698 229.027 144.276 225.55 145.962 222.523C147.648 219.495 151.124 216.481 156.375 213.484C157.994 212.487 159.891 211.433 162.062 210.329C164.234 209.232 166.382 208.172 168.506 207.148Z" fill="#3652ED"/>
<path d="M96.2098 224.028C97.5662 234.147 97.0859 242.083 94.7713 247.823C92.4588 253.569 88.5823 257.243 83.1419 258.846C80.4227 259.651 77.9959 259.887 75.8571 259.564C73.7269 259.245 71.9015 258.397 70.3937 257.038C68.8772 255.675 67.6877 253.877 66.821 251.631L61.6741 213.211C61.7197 212.431 61.9184 211.631 62.2727 210.798C62.5838 210.057 63.0241 209.291 63.587 208.501C64.2958 207.506 65.1588 206.543 66.1717 205.619C66.856 204.987 67.6053 204.377 68.4287 203.773C70.4584 202.287 72.8065 201.15 75.473 200.361C80.9727 198.74 85.4806 199.893 89.0033 203.819C92.5259 207.746 94.9296 214.479 96.2098 224.028Z" fill="#3652ED"/>
<path d="M211.54 105.51C212.264 110.887 211.356 115.74 208.833 120.069C206.301 124.394 202.942 127.178 198.752 128.412C194.503 129.665 190.658 129.013 187.205 126.446C183.752 123.879 181.662 119.911 180.945 114.532C180.224 109.161 181.133 104.337 183.67 100.075C186.205 95.8066 189.601 93.0482 193.843 91.7974C198.033 90.5629 201.85 91.1942 205.298 93.6978C208.737 96.1968 210.826 100.136 211.54 105.51Z" fill="#D0EAFD"/>
<path d="M423.526 72.3841C422.389 72.5867 421.278 72.8466 420.194 73.1703C416.441 74.2757 413.223 76.1469 410.552 78.7732C407.881 81.3994 405.723 84.6317 404.094 88.4658C402.457 92.3021 401.282 96.645 400.574 101.486C400.159 104.348 399.909 107.347 399.818 110.463L394.62 82.9761L371.934 89.6687L375.58 116.881C374.597 114.519 373.518 112.332 372.299 110.37C368.333 103.98 363.205 99.7732 356.907 97.7465C350.611 95.7265 343.22 95.964 334.736 98.4657C325.974 101.054 318.61 105.361 312.63 111.398C306.657 117.432 302.404 124.977 299.89 134.039C299.044 137.072 298.435 140.263 298.048 143.586L287.996 68.5646L262.695 76.0225L270.473 133.794C269.468 131.938 268.217 130.268 266.714 128.784C264.303 126.406 261.361 124.807 257.884 123.991C254.412 123.172 250.445 123.426 245.983 124.738C239.074 126.777 233.258 130.674 228.551 136.436C223.838 142.201 220.544 149.482 218.666 158.289C217.925 161.773 217.456 165.462 217.244 169.324L212.909 136.565L188.018 143.902L202.765 253.949C203.276 257.744 203.119 260.483 202.301 262.17C201.476 263.859 200.446 264.888 199.195 265.257C197.885 265.644 196.528 265.857 195.121 265.913C193.715 265.968 192.525 265.906 191.54 265.736L194.922 290.969C197.406 290.961 199.918 290.814 202.452 290.529C204.985 290.238 208.075 289.556 211.722 288.484C216.454 287.088 220.188 284.788 222.923 281.578C225.667 278.372 227.469 274.325 228.342 269.433C229.209 264.543 229.22 258.9 228.363 252.515C228.203 251.307 228.003 249.924 227.764 248.35C227.52 246.777 227.307 245.26 227.114 243.809L222.172 206.533C223.241 209.728 224.467 212.686 225.851 215.385C229.567 222.641 234.224 227.725 239.817 230.644C245.411 233.562 251.689 233.997 258.65 231.942C262.192 230.902 265.192 229.374 267.666 227.366C270.144 225.349 272.176 222.944 273.786 220.135C275.383 217.331 276.629 214.166 277.52 210.649C278.404 207.134 278.971 203.371 279.228 199.351L279.237 198.892L282.559 223.61L307.776 216.178L303.626 185.219C304.733 187.817 305.976 190.205 307.37 192.381C311.806 199.326 317.488 203.945 324.412 206.239C331.337 208.54 339.314 208.351 348.343 205.694C355.961 203.448 362.376 200.059 367.596 195.525C372.811 190.999 376.683 185.619 379.217 179.378C380.86 175.33 381.859 171.049 382.233 166.551L385.801 193.165L411.261 185.658L402.296 118.778C403.224 116.399 404.499 114.302 406.119 112.474C407.74 110.653 409.722 109.059 412.056 107.716C414.391 106.373 417.055 105.253 420.046 104.371C421.734 103.873 423.448 103.483 425.195 103.199C426.935 102.916 428.773 102.784 430.697 102.813L426.587 72.1667C425.68 72.1097 424.656 72.1835 423.526 72.3841ZM355.075 176.489C353.071 179.449 349.835 181.586 345.374 182.899C339.988 184.492 335.536 183.747 332.012 180.675C328.49 177.609 325.851 171.86 324.104 163.432L379.624 147.063L381.28 159.394L357.991 166.26C358.054 170.123 357.078 173.529 355.075 176.489ZM336.762 121.83C341.985 120.295 346.087 120.794 349.055 123.339C352.022 125.877 354.066 130.437 355.17 137.012L332.239 143.774C328.977 144.741 326.591 146.15 325.089 148.007C323.587 149.864 322.854 152.659 322.905 156.388C321.702 147.017 322.177 139.365 324.325 133.438C326.466 127.514 330.615 123.646 336.762 121.83ZM276.313 196.609C275.587 197.688 274.707 198.736 273.667 199.733C273.011 200.364 272.292 200.979 271.51 201.577C269.479 203.129 267.133 204.294 264.473 205.081C258.921 206.719 254.369 205.564 250.816 201.611C247.259 197.667 244.843 190.916 243.563 181.367C242.223 171.373 242.741 163.512 245.11 157.784C247.479 152.056 251.415 148.385 256.906 146.759C259.627 145.961 262.045 145.742 264.159 146.102C266.268 146.471 268.083 147.329 269.593 148.695C271.107 150.052 272.292 151.858 273.157 154.097L273.195 154.013L278.298 191.919L278.22 191.857C278.186 192.395 278.07 192.952 277.878 193.54C277.563 194.498 277.041 195.514 276.313 196.609Z" fill="#D0EAFD"/>
<path d="M273.2 154.011L278.302 191.917L278.225 191.854C278.19 192.393 278.075 192.949 277.883 193.537C277.567 194.496 277.046 195.512 276.318 196.606C275.592 197.686 274.712 198.734 273.672 199.731C273.016 200.362 272.297 200.977 271.515 201.575C269.484 203.126 267.138 204.292 264.478 205.078C258.925 206.716 254.374 205.562 250.821 201.609C247.264 197.665 244.847 190.914 243.567 181.364C242.228 171.371 242.746 163.509 245.115 157.782C247.484 152.054 251.419 148.383 256.91 146.757C259.632 145.959 262.049 145.74 264.163 146.1C266.273 146.468 268.087 147.327 269.597 148.692C271.112 150.049 272.297 151.856 273.161 154.095L273.2 154.011Z" fill="#3652ED"/>
</g>
<defs>
<clipPath id="clip0_1140_2951">
<rect width="572" height="249" fill="white" transform="translate(-95 170.316) rotate(-17.3229)"/>
</clipPath>
</defs>
</svg>
