<svg width="339" height="222" viewBox="0 0 339 222" fill="none" xmlns="http://www.w3.org/2000/svg">
<g clip-path="url(#clip0_1140_2828)">
<path d="M191.727 112.534C196.942 115.095 206.139 111.616 208.6 106.605C210.006 103.741 209.222 100.945 206.256 99.4885C201.041 96.9275 191.793 100.51 189.333 105.52C187.927 108.384 188.864 111.128 191.727 112.534Z" fill="#F2CEDA"/>
<path d="M285.956 172.513C282.501 173.863 277.425 176.447 272.397 178.674C268.944 180.278 265.541 181.78 263.607 182.1C267.027 175.91 274.588 171.627 282.115 169.739C284.084 167.279 285.596 164.975 286.701 162.726C287.103 161.907 287.402 161.039 288.602 157.821C283.507 157.857 278.559 157.078 275.086 155.88C275.289 155.726 275.337 155.369 275.54 155.214C276.196 154.394 276.903 153.472 277.556 152.143C278.359 150.507 278.646 147.855 275.987 146.549C273.328 145.244 269.26 146.292 267.277 146.969C262.958 148.528 260.083 152.574 258.325 156.153C257.193 158.458 256.446 159.473 254.14 161.416C253.049 161.978 252.059 162.483 251.037 162.982C244.741 165.983 232.247 171.524 225.805 168.361C223.555 167.256 222.878 165.274 223.983 163.024C224.284 162.41 224.688 161.847 225.244 161.232C234.91 166.359 244.734 164.964 253.502 158.481C255.681 156.886 257.959 154.831 259.315 152.07C262.227 146.139 258.42 140.969 253.716 138.659C242.715 133.258 224.274 140.829 215.681 149.253C215.041 149.592 214.396 149.93 213.752 150.258C209.843 152.273 206.089 154.491 205.066 153.989C204.453 153.688 205.823 152.965 205.974 152.658C211.297 141.818 241.453 119.692 255.755 110.469L239.411 104.982C230.539 111.16 223.149 117.939 215.244 123.957C214.064 122.743 212.68 121.683 211.146 120.929C204.661 117.745 196.578 119.531 189.135 123.516C192.251 120.848 195.47 118.25 198.881 115.795C193.052 112.933 187.848 111.9 183.768 111.42C181.17 113.561 177.019 117.283 172.343 121.426C169.778 122.803 166.923 124.383 164.104 125.879C160.195 127.894 156.593 130.06 155.366 129.457C155.059 129.307 155.823 129.301 155.924 129.097C158.485 123.881 173.478 111.698 182.203 106.336L167.49 100.889L165.967 101.664C164.735 100.297 163.199 99.2892 161.563 98.4857C153.15 94.3546 141.116 97.8764 131.597 104C134.538 100.983 136.89 97.8128 138.354 94.8314C139.911 91.6613 141.654 86.0442 136.131 83.3326C133.268 81.9266 129.852 81.6455 126.543 81.924L127.961 80.8439C120.656 78.1451 115.959 76.8542 110.552 75.976C109.648 76.733 108.745 77.4901 107.845 78.249C109.492 71.6234 103.089 66.5999 97.622 63.9153C92.7134 61.505 87.457 60.32 82.6598 59.2337C80.2612 58.6905 77.9147 58.2997 75.6686 57.7045C73.5247 57.1595 71.3791 56.3597 69.4361 55.4056C66.1637 53.7987 64.7749 51.9745 65.9801 49.5202C68.0891 45.2252 75.5623 42.9296 79.8335 41.727C86.6466 39.7419 102.749 40.0336 108.68 42.9461C111.032 44.101 111.863 46.2859 110.708 48.6379C109.101 51.9103 105.299 54.4852 100.111 55.7454L100.49 58.8506C106.613 60.0803 111.717 61.3174 117.274 61.8888C121.691 59.6152 126.448 55.0973 128.456 51.0068C131.62 44.5643 125.928 39.6121 121.736 37.5533C118.463 35.9464 114.38 34.9568 110.351 34.3744C106.322 33.7919 102.142 33.5163 98.7762 33.1329C88.5272 32.0348 77.4338 33.9488 67.772 36.5659C59.8395 38.7629 46.3395 46.095 42.3223 54.276C39.2592 60.514 43.7323 66.1373 48.5387 68.4974C49.8681 69.1502 51.2979 69.5985 52.6255 69.9965C57.7815 71.386 63.1384 72.3665 68.497 73.6017C73.7535 74.7867 78.8593 76.2785 83.4611 78.5381C86.1199 79.8437 91.233 82.3545 89.4755 85.9336C86.3622 92.2739 63.0339 93.257 56.3869 89.993C53.319 88.4866 51.7686 85.4407 53.0239 82.8841C53.5261 81.8615 54.2328 80.9393 56.5628 79.0374L54.2518 76.5065L34.9748 81.1288C34.1157 82.1031 33.5094 82.8207 33.1077 83.6388C30.4965 88.9565 32.3831 96.2288 38.0075 98.9906C48.336 104.062 63.256 102.885 73.5853 100.976C76.7753 100.395 81.0175 98.9732 85.4359 96.9935C75.7449 105.078 65.8686 113.282 55.3511 121.976C61.18 124.838 67.911 125.605 71.9385 125.933C78.3744 121.097 83.8416 116.166 89.5653 111.489C90.294 113.623 91.8855 115.293 94.033 116.348C102.658 120.583 113.515 117.362 122.516 111.467C120.527 113.59 118.936 115.777 117.889 117.908C115.077 123.635 116.434 128.109 122.263 130.971C127.376 133.482 133.384 132.878 138.57 131.363C138.081 134.169 138.257 137.429 140.916 138.734C143.775 140.138 147.914 139.593 152.262 138.253C149.666 140.17 147.641 141.451 146.542 141.751C144.762 142.273 143.386 142.232 141.853 141.479C140.012 140.575 138.573 138.853 137.575 134.682L134.531 136.487L132.629 148.373C133.518 151.474 135.269 154.111 138.132 155.517C141.916 157.375 146.089 156.632 149.339 155.182C155.836 152.309 163.019 146.727 170.046 140.62C169.557 141.395 169.126 142.155 168.765 142.89C166.254 148.003 165.783 153.357 172.328 156.57C177.543 159.131 183.902 157.812 188.882 155.942C188.393 158.747 188.417 162.059 190.769 163.214C194.902 165.244 202.068 162.929 208.481 160.108C205.948 166.528 207.778 172.962 214.657 176.34C224.891 181.366 247.69 172.771 258.104 166.804C259.625 166.916 260.895 167.144 262.181 167.439C262.742 167.587 263.354 167.634 263.915 167.783C256.812 171.91 244.85 180.505 242.992 184.288C241.435 187.459 243.287 189.891 245.639 191.046C250.752 193.557 259.244 191.254 266.764 188.346C274.436 185.387 282.101 181.409 287.28 178.875L285.96 172.515L285.956 172.513ZM247.004 147.675C247.413 147.876 247.06 148.337 246.909 148.644C244.348 153.859 236.628 157.176 231.012 155.687C235.215 152.04 243.527 145.968 247.004 147.675ZM105.85 109.331C103.498 108.177 104.952 104.956 106.351 101.074C105.382 100.979 104.566 100.832 103.802 100.837L106.589 98.7794C109.935 96.3606 112.875 94.2505 113.992 93.7839C115.415 93.2132 119.035 93.5948 120.773 94.4484C123.125 95.6034 123.65 97.6376 122.344 100.296C120.034 105 109.941 111.34 105.85 109.331ZM142.579 122.671C139.937 123.658 136.579 124.294 134.738 123.39C134.125 123.088 133.814 122.428 134.517 120.997C137.53 114.861 153.903 103.228 159.628 105.786C153.748 110.006 146.462 117.089 142.579 122.671ZM192.683 146.639C190.551 147.623 187.045 149.075 185 148.07C183.773 147.468 184.629 145.984 185.131 144.961C188.194 138.723 202.883 126.644 209.061 128.536C203.084 133.47 196.764 140.139 192.683 146.639Z" fill="#F2CEDA"/>
<path d="M61.2709 154.654C59.4852 153.777 58.1668 152.197 57.624 150.29C57.5481 150.097 57.482 149.903 57.4258 149.71C57.3479 149.511 57.2818 149.317 57.2256 149.123C57.1477 148.924 57.0817 148.731 57.0254 148.537C56.9475 148.338 56.8815 148.144 56.8252 147.951C56.7474 147.751 56.6813 147.558 56.625 147.364C56.5472 147.165 56.4811 146.971 56.4248 146.778C56.347 146.578 56.2809 146.385 56.2247 146.191C56.1468 145.992 56.0807 145.798 56.0245 145.605C55.9466 145.405 55.8806 145.212 55.8243 145.018C55.7464 144.819 55.6804 144.625 55.6241 144.432C55.5463 144.232 55.4802 144.039 55.4239 143.845C55.3461 143.646 55.28 143.453 55.2237 143.259C55.1459 143.06 55.0798 142.866 55.0236 142.672C54.9457 142.473 54.8797 142.28 54.8234 142.086C54.7455 141.887 54.6795 141.693 54.6232 141.5C54.5453 141.3 54.4793 141.107 54.423 140.913C54.3452 140.714 54.2791 140.52 54.2228 140.327C54.145 140.127 54.0789 139.934 54.0227 139.74C53.9448 139.541 53.8787 139.347 53.8225 139.154C53.7446 138.954 53.6786 138.761 53.6223 138.567C53.5444 138.368 53.4784 138.174 53.4221 137.981C53.3442 137.782 53.2782 137.588 53.2219 137.394C53.1441 137.195 53.078 137.002 53.0217 136.808C52.9439 136.609 52.8778 136.415 52.8216 136.222C52.7437 136.022 52.6776 135.829 52.6214 135.635C52.5435 135.436 52.4775 135.242 52.4212 135.049C52.3593 134.886 52.3013 134.726 52.2531 134.566C49.2027 133.859 46.4131 132.889 43.9313 131.671C39.6638 129.575 36.3553 125.676 34.8439 120.97C34.7739 120.774 34.7078 120.581 34.6437 120.383C34.5737 120.188 34.5076 119.994 34.4435 119.797C34.3735 119.601 34.3074 119.408 34.2433 119.21C34.1733 119.015 34.1073 118.821 34.0431 118.624C33.9731 118.428 33.9071 118.235 33.8429 118.037C33.7729 117.842 33.7069 117.648 33.6428 117.451C33.5728 117.256 33.5067 117.062 33.4426 116.865C33.3726 116.669 33.3065 116.476 33.2424 116.278C33.1724 116.083 33.1063 115.889 33.0422 115.692C32.9722 115.496 32.9062 115.303 32.842 115.105C32.772 114.91 32.706 114.716 32.6418 114.519C32.5718 114.323 32.5058 114.13 32.4417 113.932C32.3717 113.737 32.3056 113.543 32.2415 113.346C32.1715 113.15 32.1054 112.957 32.0413 112.759C31.9713 112.564 31.9052 112.37 31.8411 112.173C31.7711 111.977 31.7051 111.784 31.6409 111.586C31.5709 111.391 31.5049 111.197 31.4407 111C31.3707 110.805 31.3047 110.611 31.2406 110.414C31.1706 110.218 31.1045 110.025 31.0404 109.827C30.9704 109.632 30.9043 109.438 30.8402 109.241C30.7702 109.045 30.7041 108.852 30.64 108.654C30.57 108.459 30.504 108.265 30.4398 108.068C30.3698 107.872 30.3038 107.679 30.2396 107.481C30.1696 107.286 30.1036 107.092 30.0395 106.895C29.9695 106.699 29.9034 106.506 29.8393 106.308C29.7693 106.113 29.7032 105.919 29.6391 105.722C29.5691 105.527 29.503 105.333 29.4389 105.136C29.3689 104.94 29.3029 104.747 29.2387 104.549C29.1687 104.354 29.1027 104.16 29.0385 103.963C28.9685 103.767 28.9025 103.574 28.8384 103.376C28.7684 103.181 28.7023 102.987 28.6382 102.79C28.5682 102.594 28.5021 102.401 28.438 102.203C28.368 102.008 28.3019 101.814 28.2378 101.617C28.1678 101.421 28.1018 101.228 28.0376 101.03C27.9676 100.835 27.9016 100.641 27.8374 100.444C27.7675 100.248 27.7014 100.055 27.6373 99.8575C27.5673 99.662 27.5012 99.4685 27.4371 99.271C27.3671 99.0756 27.301 98.882 27.2369 98.6846C27.1669 98.4891 27.1008 98.2956 27.0367 98.0981C26.9667 97.9027 26.9007 97.7091 26.8365 97.5117C26.7665 97.3162 26.7005 97.1227 26.6363 96.9252C26.5664 96.7298 26.5003 96.5362 26.4362 96.3388C26.3662 96.1433 26.3001 95.9498 26.236 95.7523C26.166 95.5569 26.0999 95.3633 26.0358 95.1659C24.3219 90.3751 24.6089 85.0487 26.8222 80.5413C27.6083 78.9405 28.605 77.7556 29.7285 76.4816C30.6868 75.395 31.9395 74.6432 33.35 74.3058L38.4401 73.0856C38.3862 72.937 38.3361 72.7904 38.2919 72.6418C38.2219 72.4464 38.1559 72.2528 38.0918 72.0554C38.0218 71.8599 37.9557 71.6664 37.8916 71.4689C37.8216 71.2735 37.7555 71.0799 37.6914 70.8825C37.6214 70.687 37.5553 70.4935 37.4912 70.296C37.4212 70.1006 37.3551 69.907 37.291 69.7096C37.221 69.5141 37.155 69.3206 37.0908 69.1231C37.0208 68.9277 36.9548 68.7341 36.8907 68.5367C36.8207 68.3412 36.7546 68.1477 36.6905 67.9502C36.6205 67.7548 36.5544 67.5612 36.4903 67.3638C36.4203 67.1683 36.3542 66.9748 36.2901 66.7773C36.2201 66.5819 36.1541 66.3883 36.0899 66.1909C36.0199 65.9954 35.9539 65.8019 35.8897 65.6044C35.8197 65.409 35.7537 65.2154 35.6896 65.018C35.6196 64.8225 35.5535 64.629 35.4894 64.4315C35.4194 64.2361 35.3533 64.0425 35.2892 63.8451C33.7975 59.7053 34.065 55.2138 36.0446 51.1823C41.182 40.7201 56.6051 32.3845 65.9164 29.8053C78.6468 26.3568 89.9549 25.1291 99.539 26.1595C100.755 26.2977 102.043 26.4178 103.41 26.5471C105.869 26.7783 108.642 27.0366 111.371 27.4343C116.716 28.2091 121.25 29.4934 124.845 31.2586C130.261 33.9181 134.225 38.1439 135.732 42.8578C135.802 43.0532 135.868 43.2467 135.932 43.4442C136.002 43.6397 136.068 43.8332 136.133 44.0307C136.203 44.2261 136.269 44.4196 136.333 44.6171C136.403 44.8126 136.469 45.0061 136.533 45.2036C136.603 45.399 136.669 45.5925 136.733 45.79C136.803 45.9855 136.869 46.179 136.933 46.3765C137.003 46.5719 137.069 46.7654 137.133 46.9629C137.203 47.1584 137.269 47.3519 137.334 47.5494C137.404 47.7448 137.47 47.9383 137.534 48.1358C137.604 48.3313 137.67 48.5248 137.734 48.7223C137.804 48.9177 137.87 49.1112 137.934 49.3087C138.004 49.5042 138.07 49.6977 138.134 49.8952C138.204 50.0906 138.27 50.2841 138.335 50.4816C138.405 50.6771 138.471 50.8706 138.535 51.0681C138.605 51.2635 138.671 51.457 138.735 51.6545C138.805 51.85 138.871 52.0435 138.935 52.241C139.005 52.4364 139.071 52.6299 139.135 52.8274C139.205 53.0229 139.271 53.2164 139.335 53.4139C139.405 53.6093 139.472 53.8028 139.536 54.0003C139.606 54.1958 139.672 54.3893 139.736 54.5868C139.806 54.7822 139.872 54.9757 139.936 55.1732C140.006 55.3687 140.072 55.5622 140.136 55.7597C140.206 55.9551 140.272 56.1486 140.336 56.3461C140.406 56.5416 140.472 56.7351 140.537 56.9326C140.607 57.128 140.673 57.3215 140.737 57.519C140.807 57.7145 140.873 57.908 140.937 58.1055C141.007 58.3009 141.073 58.4944 141.137 58.6919C141.207 58.8874 141.273 59.0809 141.337 59.2784C141.407 59.4738 141.473 59.6673 141.537 59.8648C141.607 60.0603 141.674 60.2538 141.738 60.4513C141.808 60.6467 141.874 60.8402 141.938 61.0377C142.008 61.2332 142.074 61.4267 142.138 61.6242C142.208 61.8196 142.274 62.0132 142.338 62.2106C142.408 62.4061 142.474 62.5996 142.538 62.7971C142.608 62.9925 142.674 63.1861 142.739 63.3835C142.809 63.579 142.875 63.7725 142.939 63.97C143.009 64.1654 143.075 64.359 143.139 64.5564C143.209 64.7519 143.275 64.9454 143.339 65.1429C143.409 65.3383 143.475 65.5319 143.539 65.7293C143.609 65.9248 143.675 66.1183 143.739 66.3158C143.809 66.5112 143.876 66.7048 143.94 66.9022C144.01 67.0977 144.076 67.2912 144.14 67.4887C144.21 67.6841 144.276 67.8777 144.34 68.0751C144.41 68.2706 144.476 68.4641 144.54 68.6616C145.942 72.508 145.683 76.584 143.79 80.4581C144.95 81.7843 145.816 83.3124 146.339 84.99C146.411 85.1816 146.477 85.3751 146.539 85.5765C146.611 85.768 146.675 85.9655 146.739 86.1629C146.811 86.3545 146.875 86.5519 146.94 86.7494C147.012 86.9409 147.076 87.1384 147.14 87.3358C147.212 87.5274 147.276 87.7248 147.34 87.9223C147.412 88.1138 147.476 88.3113 147.54 88.5087C147.612 88.7003 147.676 88.8977 147.74 89.0952C147.812 89.2867 147.876 89.4842 147.941 89.6816C147.989 89.8126 148.035 89.9475 148.081 90.0823C154.276 89.1657 159.968 89.8812 164.676 92.193C165.742 92.7164 166.712 93.2757 167.608 93.8768C168.4 93.8848 169.191 94.0339 169.947 94.3126C169.947 94.3126 184.705 99.7777 184.731 99.7853C190.158 92.8386 201.758 89.4551 209.369 93.1922C212.539 94.7489 214.815 97.331 215.786 100.473C215.86 100.671 215.926 100.864 215.986 101.06C216.06 101.257 216.126 101.45 216.187 101.646C216.261 101.843 216.327 102.037 216.387 102.232C216.461 102.43 216.527 102.623 216.587 102.819C216.661 103.016 216.727 103.21 216.787 103.405C216.861 103.603 216.927 103.796 216.987 103.992C217.061 104.189 217.127 104.383 217.188 104.578C217.262 104.776 217.328 104.969 217.388 105.165C217.462 105.362 217.528 105.556 217.588 105.751C217.662 105.949 217.728 106.142 217.788 106.338C217.862 106.535 217.928 106.729 217.988 106.924C218.062 107.121 218.128 107.315 218.189 107.511C218.262 107.708 218.328 107.901 218.389 108.097C218.463 108.294 218.529 108.488 218.589 108.683C218.663 108.881 218.729 109.074 218.789 109.27C218.863 109.467 218.929 109.661 218.989 109.856C219.063 110.054 219.129 110.247 219.189 110.443C219.263 110.64 219.329 110.834 219.39 111.029C219.456 111.203 219.516 111.379 219.57 111.547C219.733 111.413 219.895 111.282 220.059 111.148C224.873 107.2 229.836 103.125 235.436 99.2265C237.248 97.9632 239.579 97.629 241.673 98.3351L258.017 103.822C258.31 103.922 258.599 104.039 258.878 104.176C260.66 105.051 261.976 106.625 262.521 108.528C262.597 108.721 262.663 108.915 262.719 109.109C262.795 109.302 262.863 109.501 262.919 109.695C262.995 109.889 263.063 110.088 263.119 110.281C263.195 110.475 263.263 110.674 263.32 110.868C263.395 111.061 263.463 111.261 263.52 111.454C263.596 111.648 263.664 111.847 263.72 112.041C263.796 112.234 263.864 112.434 263.92 112.627C263.996 112.821 264.064 113.02 264.12 113.214C264.196 113.407 264.264 113.607 264.32 113.8C264.396 113.994 264.464 114.193 264.521 114.387C264.597 114.58 264.665 114.78 264.721 114.973C264.797 115.167 264.865 115.366 264.921 115.56C264.997 115.753 265.065 115.952 265.121 116.146C265.197 116.339 265.265 116.539 265.321 116.732C265.397 116.926 265.465 117.125 265.522 117.319C265.597 117.512 265.665 117.712 265.722 117.905C265.798 118.099 265.866 118.298 265.922 118.492C265.998 118.685 266.066 118.885 266.122 119.078C266.198 119.272 266.266 119.471 266.322 119.665C266.398 119.858 266.466 120.058 266.522 120.251C266.598 120.445 266.666 120.644 266.723 120.838C266.799 121.031 266.867 121.23 266.923 121.424C266.999 121.618 267.067 121.817 267.123 122.011C267.199 122.204 267.267 122.403 267.323 122.597C267.399 122.79 267.467 122.99 267.523 123.183C267.599 123.377 267.667 123.576 267.724 123.77C267.799 123.963 267.868 124.163 267.924 124.356C268 124.55 268.068 124.749 268.124 124.943C268.2 125.136 268.268 125.336 268.324 125.529C268.4 125.723 268.468 125.922 268.524 126.116C268.6 126.309 268.668 126.509 268.724 126.702C268.8 126.896 268.868 127.095 268.925 127.289C269.001 127.482 269.069 127.681 269.125 127.875C269.201 128.068 269.269 128.268 269.325 128.461C269.401 128.655 269.469 128.854 269.525 129.048C269.601 129.241 269.669 129.441 269.725 129.634C269.801 129.828 269.869 130.027 269.926 130.221C270.001 130.414 270.07 130.614 270.126 130.807C270.202 131.001 270.27 131.2 270.326 131.394C270.402 131.587 270.47 131.787 270.526 131.98C270.602 132.174 270.67 132.373 270.726 132.567C270.802 132.76 270.87 132.959 270.927 133.153C271.002 133.347 271.07 133.546 271.127 133.74C271.203 133.933 271.271 134.132 271.327 134.326C271.539 134.869 271.684 135.429 271.754 135.991C271.881 136.995 271.782 138.001 271.487 138.94C274.345 138.727 276.896 139.169 279.11 140.257C281.832 141.593 283.796 143.846 284.653 146.605C284.724 146.797 284.791 146.99 284.853 147.192C284.925 147.383 284.991 147.577 285.053 147.778C285.125 147.97 285.191 148.163 285.253 148.365C285.325 148.556 285.391 148.75 285.453 148.951C285.525 149.142 285.591 149.336 285.653 149.537C285.725 149.729 285.791 149.922 285.854 150.124C285.926 150.315 285.992 150.509 286.054 150.71C286.058 150.722 286.066 150.736 286.068 150.751C286.909 150.798 287.75 150.816 288.582 150.81C289.664 150.804 290.75 151.049 291.721 151.526C292.779 152.045 293.696 152.832 294.373 153.8C294.817 154.437 295.151 155.138 295.364 155.887C295.44 156.081 295.502 156.272 295.56 156.462C295.636 156.655 295.704 156.855 295.76 157.048C295.836 157.242 295.904 157.441 295.961 157.635C296.036 157.828 296.105 158.028 296.161 158.221C296.237 158.415 296.305 158.614 296.361 158.808C296.437 159.001 296.505 159.201 296.561 159.394C296.637 159.588 296.705 159.787 296.761 159.981C296.837 160.174 296.905 160.374 296.962 160.567C297.037 160.761 297.105 160.96 297.162 161.154C297.238 161.347 297.306 161.546 297.362 161.74C297.438 161.934 297.506 162.133 297.562 162.327C297.638 162.52 297.706 162.719 297.762 162.913C297.838 163.106 297.906 163.306 297.962 163.499C298.038 163.693 298.106 163.892 298.163 164.086C298.239 164.279 298.307 164.479 298.363 164.672C298.439 164.866 298.507 165.065 298.563 165.259C298.639 165.452 298.707 165.652 298.763 165.845C298.839 166.039 298.907 166.238 298.963 166.432C299.039 166.625 299.107 166.825 299.164 167.018C299.239 167.212 299.307 167.411 299.364 167.605C299.44 167.798 299.508 167.997 299.564 168.191C299.64 168.384 299.708 168.584 299.764 168.777C299.84 168.971 299.908 169.17 299.964 169.364C300.04 169.557 300.108 169.757 300.164 169.95C300.24 170.144 300.308 170.343 300.365 170.537C300.441 170.73 300.509 170.93 300.565 171.123C300.641 171.317 300.709 171.516 300.765 171.71C300.841 171.903 300.909 172.103 300.965 172.296C301.041 172.49 301.109 172.689 301.165 172.883C301.241 173.076 301.309 173.276 301.366 173.469C301.441 173.663 301.51 173.862 301.566 174.056C301.642 174.249 301.71 174.448 301.766 174.642C301.842 174.835 301.91 175.035 301.966 175.228C302.042 175.422 302.11 175.621 302.166 175.815C302.242 176.008 302.31 176.208 302.366 176.401C302.442 176.595 302.51 176.794 302.567 176.988C302.643 177.181 302.711 177.381 302.767 177.574C302.843 177.768 302.911 177.967 302.967 178.161C303.043 178.354 303.111 178.554 303.167 178.747C303.243 178.941 303.311 179.14 303.367 179.334C303.443 179.527 303.511 179.726 303.568 179.92C303.643 180.114 303.712 180.313 303.768 180.507C303.844 180.7 303.912 180.899 303.968 181.093C304.046 181.292 304.112 181.486 304.17 181.685C304.793 183.29 304.806 185.043 304.204 186.657L303.62 188.234C302.837 190.345 302.51 191.219 302.028 192.202C301.672 192.926 301.282 193.652 300.856 194.39C300.874 194.443 300.888 194.494 300.904 194.55C300.978 194.738 301.044 194.931 301.104 195.137C301.178 195.324 301.244 195.518 301.304 195.723C301.378 195.911 301.444 196.104 301.502 196.304C301.654 196.681 301.773 197.076 301.856 197.473L303.173 203.836C303.825 206.973 302.27 210.149 299.392 211.557C298.55 211.969 297.64 212.42 296.68 212.895L296.564 212.951C291.406 215.514 284.985 218.698 278.319 221.268C266.209 225.948 257.712 226.731 251.58 223.72C248.312 222.115 245.973 219.502 244.974 216.356C244.892 216.135 244.822 215.93 244.772 215.764C244.69 215.543 244.624 215.339 244.572 215.177C244.49 214.956 244.424 214.753 244.372 214.591C244.29 214.37 244.223 214.166 244.171 214.004C244.089 213.783 244.023 213.58 243.971 213.418C243.889 213.197 243.823 212.994 243.771 212.831C243.689 212.61 243.623 212.407 243.571 212.245C243.489 212.024 243.423 211.821 243.371 211.658C243.289 211.438 243.223 211.234 243.17 211.072C243.088 210.851 243.022 210.648 242.97 210.485C242.89 210.27 242.822 210.071 242.774 209.911C233.376 211.93 225.928 211.631 220.598 209.014C215.269 206.397 211.734 202.333 210.207 197.351L210.185 197.286C210.123 197.114 210.065 196.944 210.008 196.77C210.008 196.77 209.95 196.6 209.93 196.551C204.535 197.817 200.187 197.595 196.71 195.888C194.645 194.874 193.007 193.21 191.966 191.103C186.853 191.824 182.253 191.201 178.269 189.244C174.89 187.585 172.358 185.267 170.821 182.453C167.355 184.837 164.182 186.657 161.201 187.976C155.269 190.623 149.179 190.698 144.07 188.189C139.842 186.113 136.76 182.398 135.152 177.44C135.086 177.246 135.016 177.051 134.952 176.853C134.882 176.658 134.816 176.464 134.752 176.267C134.682 176.072 134.616 175.878 134.552 175.681C134.482 175.485 134.416 175.292 134.352 175.094C134.282 174.899 134.216 174.705 134.151 174.508C134.081 174.312 134.015 174.119 133.951 173.921C133.881 173.726 133.815 173.532 133.751 173.335C133.681 173.139 133.615 172.946 133.551 172.748C133.481 172.553 133.415 172.359 133.351 172.162C133.281 171.966 133.215 171.773 133.151 171.575C133.081 171.38 133.015 171.186 132.95 170.989C132.88 170.793 132.814 170.6 132.75 170.402C132.68 170.207 132.614 170.014 132.55 169.816C132.48 169.621 132.414 169.427 132.35 169.23C132.28 169.034 132.214 168.841 132.15 168.643C132.08 168.448 132.014 168.254 131.949 168.057C131.879 167.861 131.813 167.668 131.749 167.47C131.679 167.275 131.613 167.081 131.549 166.884C131.479 166.688 131.413 166.495 131.349 166.297C131.279 166.102 131.213 165.908 131.149 165.711C131.079 165.515 131.013 165.322 130.949 165.124C130.901 164.993 130.855 164.859 130.808 164.724C129.907 164.413 129.034 164.053 128.2 163.643C123.654 161.411 120.549 158.139 119.224 154.178C119.154 153.992 119.094 153.807 119.03 153.619L119.016 153.578C118.948 153.398 118.888 153.212 118.829 153.033L118.815 152.991C118.747 152.812 118.687 152.626 118.629 152.446L118.615 152.405C118.547 152.225 118.487 152.039 118.429 151.86L118.415 151.819C118.347 151.639 118.287 151.453 118.229 151.273C118.229 151.273 118.169 151.097 118.143 151.031C111.503 152.305 105.274 151.629 99.9684 149.024C99.1857 148.639 98.4399 148.2 97.7407 147.715C97.6044 147.833 97.4661 147.946 97.3298 148.065C93.5257 151.278 89.5951 154.601 85.1765 157.923C83.8063 158.954 82.1049 159.446 80.3971 159.306C75.4402 158.902 68.0634 157.979 61.2905 154.654L61.2709 154.654Z" fill="#F2CEDA"/>
<path d="M299.718 204.551L298.399 198.191C298.348 197.937 298.264 197.691 298.158 197.458C298.106 197.257 298.042 197.059 297.958 196.872C297.906 196.67 297.841 196.473 297.758 196.285C297.705 196.084 297.641 195.886 297.558 195.699C297.505 195.497 297.441 195.3 297.357 195.112C297.305 194.911 297.241 194.713 297.157 194.526C297.111 194.342 297.049 194.16 296.977 193.988C297.69 192.864 298.319 191.762 298.858 190.665C299.262 189.843 299.546 189.075 300.309 187.023L300.896 185.442C301.215 184.583 301.179 183.643 300.818 182.816C300.769 182.617 300.699 182.421 300.618 182.23C300.569 182.03 300.499 181.835 300.418 181.643C300.369 181.444 300.299 181.248 300.217 181.057C300.169 180.857 300.099 180.662 300.017 180.47C299.969 180.271 299.899 180.075 299.817 179.884C299.768 179.684 299.698 179.489 299.617 179.297C299.568 179.098 299.498 178.902 299.417 178.711C299.368 178.512 299.298 178.316 299.216 178.125C299.168 177.925 299.098 177.73 299.016 177.538C298.968 177.339 298.898 177.143 298.816 176.952C298.768 176.752 298.698 176.557 298.616 176.365C298.567 176.166 298.497 175.97 298.416 175.779C298.367 175.579 298.297 175.384 298.215 175.192C298.167 174.993 298.097 174.797 298.015 174.606C297.967 174.406 297.897 174.211 297.815 174.019C297.767 173.82 297.697 173.624 297.615 173.433C297.566 173.233 297.497 173.038 297.415 172.847C297.366 172.647 297.296 172.452 297.215 172.26C297.166 172.061 297.096 171.865 297.014 171.674C296.966 171.474 296.896 171.279 296.814 171.087C296.766 170.888 296.696 170.692 296.614 170.501C296.566 170.301 296.496 170.106 296.414 169.914C296.365 169.715 296.295 169.519 296.214 169.328C296.165 169.128 296.095 168.933 296.013 168.741C295.965 168.542 295.895 168.346 295.813 168.155C295.765 167.955 295.695 167.76 295.613 167.568C295.565 167.369 295.495 167.173 295.413 166.982C295.364 166.783 295.294 166.587 295.213 166.396C295.164 166.196 295.094 166.001 295.013 165.809C294.964 165.61 294.894 165.414 294.812 165.223C294.764 165.023 294.694 164.828 294.612 164.636C294.564 164.437 294.494 164.241 294.412 164.05C294.364 163.85 294.294 163.655 294.212 163.463C294.163 163.264 294.093 163.068 294.012 162.877C293.963 162.677 293.893 162.482 293.811 162.29C293.763 162.091 293.693 161.895 293.611 161.704C293.563 161.504 293.493 161.309 293.411 161.118C293.363 160.918 293.293 160.723 293.211 160.531C293.162 160.332 293.092 160.136 293.011 159.945C292.962 159.745 292.892 159.55 292.811 159.358C292.762 159.159 292.692 158.963 292.61 158.772C292.562 158.572 292.492 158.377 292.41 158.185C292.362 157.986 292.292 157.79 292.21 157.599C292.162 157.399 292.092 157.204 292.01 157.012C291.909 156.592 291.729 156.182 291.474 155.817C291.13 155.326 290.67 154.939 290.147 154.682C289.667 154.446 289.129 154.319 288.577 154.321C286.866 154.335 285.135 154.242 283.464 154.066C283.416 153.915 283.364 153.763 283.306 153.612C283.248 153.413 283.182 153.219 283.106 153.026C283.048 152.826 282.982 152.633 282.906 152.439C282.847 152.24 282.781 152.046 282.706 151.853C282.647 151.654 282.581 151.46 282.505 151.267C282.447 151.067 282.381 150.874 282.305 150.68C282.247 150.481 282.181 150.287 282.105 150.094C282.047 149.894 281.981 149.701 281.905 149.507C281.847 149.308 281.781 149.114 281.705 148.921C281.646 148.721 281.58 148.528 281.504 148.334C281.446 148.135 281.38 147.941 281.304 147.748C280.788 145.996 279.595 144.419 277.534 143.407C274.635 141.984 270.803 142.064 266.146 143.653C266.129 143.659 266.105 143.667 266.088 143.673C265.191 143.999 264.318 144.415 263.477 144.915C263.417 144.729 263.353 144.542 263.287 144.358C263.094 143.736 262.845 143.121 262.548 142.521C263.962 141.57 265.341 140.661 266.667 139.809C267.797 139.08 268.413 137.766 268.244 136.429C268.203 136.086 268.106 135.766 267.973 135.461C267.926 135.257 267.856 135.062 267.772 134.874C267.726 134.671 267.656 134.475 267.572 134.288C267.526 134.084 267.456 133.889 267.372 133.701C267.326 133.498 267.256 133.303 267.172 133.115C267.125 132.912 267.055 132.716 266.972 132.529C266.925 132.325 266.855 132.13 266.772 131.942C266.725 131.739 266.655 131.543 266.571 131.356C266.525 131.152 266.455 130.957 266.371 130.769C266.325 130.566 266.255 130.37 266.171 130.183C266.124 129.979 266.054 129.784 265.971 129.596C265.924 129.393 265.854 129.197 265.771 129.01C265.724 128.806 265.654 128.611 265.57 128.423C265.524 128.22 265.454 128.024 265.37 127.837C265.324 127.633 265.254 127.438 265.17 127.251C265.124 127.047 265.054 126.852 264.97 126.664C264.923 126.461 264.853 126.265 264.77 126.078C264.723 125.874 264.653 125.679 264.57 125.491C264.523 125.288 264.453 125.092 264.369 124.905C264.323 124.701 264.253 124.506 264.169 124.318C264.123 124.115 264.053 123.919 263.969 123.732C263.922 123.528 263.852 123.333 263.769 123.145C263.722 122.942 263.652 122.746 263.569 122.559C263.522 122.355 263.452 122.16 263.368 121.972C263.322 121.769 263.252 121.574 263.168 121.386C263.122 121.183 263.052 120.987 262.968 120.8C262.922 120.596 262.852 120.401 262.768 120.213C262.721 120.01 262.651 119.814 262.568 119.627C262.521 119.423 262.451 119.228 262.368 119.04C262.321 118.837 262.251 118.641 262.167 118.454C262.121 118.25 262.051 118.055 261.967 117.867C261.921 117.664 261.851 117.468 261.767 117.281C261.72 117.077 261.65 116.882 261.567 116.694C261.52 116.491 261.45 116.295 261.367 116.108C261.32 115.904 261.25 115.709 261.166 115.522C261.12 115.318 261.05 115.123 260.966 114.935C260.92 114.732 260.85 114.536 260.766 114.349C260.72 114.145 260.65 113.95 260.566 113.762C260.519 113.559 260.449 113.363 260.366 113.176C260.319 112.972 260.249 112.777 260.166 112.589C260.119 112.386 260.049 112.19 259.965 112.003C259.919 111.799 259.849 111.604 259.765 111.416C259.719 111.213 259.649 111.017 259.565 110.83C259.518 110.626 259.448 110.431 259.365 110.243C259.318 110.04 259.248 109.845 259.165 109.657C258.92 108.644 258.238 107.786 257.306 107.329C257.168 107.261 257.023 107.199 256.875 107.151L240.532 101.664C239.481 101.309 238.324 101.479 237.413 102.11C231.924 105.932 227.011 109.963 222.256 113.861C220.76 115.089 219.3 116.281 217.851 117.454C217.851 117.454 217.845 117.446 217.847 117.442C217.789 117.243 217.722 117.049 217.647 116.856C217.588 116.656 217.522 116.463 217.446 116.269C217.388 116.07 217.322 115.876 217.246 115.683C217.188 115.483 217.122 115.29 217.046 115.096C216.988 114.897 216.922 114.703 216.846 114.51C216.788 114.31 216.722 114.117 216.646 113.923C216.587 113.724 216.521 113.53 216.446 113.337C216.387 113.137 216.321 112.944 216.245 112.75C216.187 112.551 216.121 112.357 216.045 112.164C215.987 111.965 215.921 111.771 215.845 111.578C215.787 111.378 215.721 111.185 215.645 110.991C215.587 110.792 215.52 110.598 215.445 110.405C215.386 110.205 215.32 110.012 215.244 109.818C215.186 109.619 215.12 109.425 215.044 109.232C214.986 109.032 214.92 108.839 214.844 108.645C214.786 108.446 214.72 108.252 214.644 108.059C214.586 107.859 214.52 107.666 214.444 107.472C214.385 107.273 214.319 107.079 214.244 106.886C214.185 106.686 214.119 106.493 214.043 106.3C213.985 106.1 213.919 105.907 213.843 105.713C213.785 105.514 213.719 105.32 213.643 105.127C213.585 104.927 213.519 104.734 213.443 104.54C213.385 104.341 213.318 104.147 213.243 103.954C213.184 103.754 213.118 103.561 213.042 103.367C212.984 103.168 212.918 102.974 212.842 102.781C212.784 102.581 212.718 102.388 212.642 102.194C212.584 101.995 212.518 101.801 212.442 101.608C211.791 99.4139 210.208 97.5283 207.801 96.3464C201.075 93.0438 189.56 97.1086 186.186 103.98C185.943 104.475 185.75 104.977 185.599 105.473C185.347 104.486 184.675 103.648 183.751 103.194C183.644 103.142 183.536 103.094 183.42 103.051L168.707 97.6035C168.029 97.3537 167.294 97.3198 166.606 97.4991C165.589 96.7069 164.428 95.9902 163.106 95.3413C158.481 93.07 152.651 92.5946 146.253 93.9732C146.077 94.0137 145.897 94.0522 145.719 94.0966C145.679 93.9793 145.639 93.862 145.595 93.7428C145.537 93.5433 145.467 93.3479 145.395 93.1563C145.337 92.9569 145.267 92.7614 145.195 92.5699C145.136 92.3704 145.066 92.175 144.994 91.9834C144.936 91.784 144.866 91.5885 144.794 91.397C144.736 91.1975 144.666 91.0021 144.594 90.8105C144.536 90.6111 144.466 90.4156 144.394 90.2241C144.336 90.0246 144.266 89.8292 144.194 89.6376C144.135 89.4382 144.066 89.2427 143.994 89.0512C143.935 88.8517 143.865 88.6563 143.793 88.4647C143.735 88.2653 143.665 88.0698 143.593 87.8783C143.535 87.6788 143.465 87.4834 143.393 87.2918C143.335 87.0924 143.265 86.8969 143.193 86.7054C143.135 86.5059 143.065 86.3105 142.993 86.1189C142.394 84.1362 141.161 82.4519 139.316 81.1601C139.806 80.4197 140.246 79.6739 140.603 78.9462C142.208 75.6778 142.223 72.5658 141.194 69.8003C141.134 69.6048 141.066 69.4054 140.994 69.2138C140.933 69.0183 140.865 68.8189 140.794 68.6274C140.733 68.4319 140.665 68.2325 140.593 68.0409C140.533 67.8454 140.465 67.646 140.393 67.4545C140.333 67.259 140.265 67.0596 140.193 66.868C140.133 66.6725 140.065 66.4731 139.993 66.2816C139.933 66.0861 139.865 65.8867 139.793 65.6951C139.732 65.4996 139.664 65.3002 139.592 65.1087C139.532 64.9132 139.464 64.7138 139.392 64.5222C139.332 64.3267 139.264 64.1273 139.192 63.9358C139.132 63.7403 139.064 63.5409 138.992 63.3493C138.932 63.1538 138.864 62.9544 138.792 62.7629C138.731 62.5674 138.663 62.368 138.591 62.1764C138.531 61.9809 138.463 61.7815 138.391 61.59C138.331 61.3945 138.263 61.1951 138.191 61.0035C138.131 60.808 138.063 60.6086 137.991 60.4171C137.931 60.2215 137.863 60.0222 137.791 59.8306C137.731 59.6351 137.663 59.4357 137.591 59.2442C137.53 59.0486 137.462 58.8493 137.39 58.6577C137.33 58.4622 137.262 58.2628 137.19 58.0713C137.13 57.8757 137.062 57.6764 136.99 57.4848C136.93 57.2893 136.862 57.0899 136.79 56.8984C136.73 56.7028 136.662 56.5035 136.59 56.3119C136.529 56.1164 136.461 55.917 136.389 55.7255C136.329 55.5299 136.261 55.3306 136.189 55.139C136.129 54.9435 136.061 54.7441 135.989 54.5526C135.929 54.357 135.861 54.1577 135.789 53.9661C135.729 53.7706 135.661 53.5712 135.589 53.3797C135.529 53.1841 135.46 52.9848 135.389 52.7932C135.328 52.5977 135.26 52.3983 135.188 52.2068C135.128 52.0112 135.06 51.8119 134.988 51.6203C134.928 51.4248 134.86 51.2254 134.788 51.0339C134.728 50.8383 134.66 50.639 134.588 50.4474C134.528 50.2519 134.46 50.0525 134.388 49.861C134.327 49.6654 134.259 49.4661 134.187 49.2745C134.127 49.079 134.059 48.8796 133.987 48.6881C133.927 48.4925 133.859 48.2932 133.787 48.1016C133.727 47.9061 133.659 47.7067 133.587 47.5152C133.527 47.3196 133.459 47.1203 133.387 46.9287C133.327 46.7332 133.258 46.5338 133.187 46.3423C133.126 46.1467 133.058 45.9473 132.986 45.7558C132.926 45.5603 132.858 45.3609 132.786 45.1694C132.726 44.9738 132.658 44.7744 132.586 44.5829C132.526 44.3874 132.458 44.188 132.386 43.9965C131.102 39.8807 127.497 36.4851 123.273 34.4108C120.009 32.8078 115.828 31.6288 110.845 30.9102C108.201 30.5295 105.467 30.2709 103.059 30.0452C101.673 29.916 100.361 29.7942 99.1413 29.654C89.9925 28.6715 79.127 29.8627 66.8288 33.1964C58.3996 35.5302 43.7743 43.3544 39.1661 52.739C37.5767 55.976 37.3881 59.4615 38.5855 62.7294C38.6457 62.925 38.7157 63.1204 38.7857 63.3159C38.8459 63.5114 38.9158 63.7069 38.9858 63.9023C39.046 64.0979 39.116 64.2933 39.186 64.4888C39.2462 64.6843 39.3162 64.8798 39.3862 65.0752C39.4464 65.2708 39.5164 65.4662 39.5864 65.6617C39.6466 65.8572 39.7166 66.0527 39.7866 66.2481C39.8468 66.4437 39.9168 66.6391 39.9868 66.8346C40.047 67.0301 40.1169 67.2256 40.1869 67.421C40.2471 67.6166 40.3171 67.812 40.3871 68.0075C40.4473 68.203 40.5173 68.3985 40.5873 68.5939C40.6475 68.7895 40.7175 68.9849 40.7875 69.1804C40.8477 69.3759 40.9177 69.5714 40.9877 69.7668C41.0479 69.9624 41.1179 70.1578 41.1879 70.3533C41.248 70.5488 41.318 70.7443 41.388 70.9397C41.4482 71.1353 41.5182 71.3307 41.5882 71.5262C41.6484 71.7217 41.7184 71.9172 41.7884 72.1126C41.8486 72.3082 41.9186 72.5036 41.9886 72.6991C42.0488 72.8946 42.1188 73.0901 42.1888 73.2855C42.249 73.4811 42.319 73.6765 42.389 73.872C42.4491 74.0675 42.5191 74.263 42.5891 74.4584C42.6493 74.654 42.7193 74.8494 42.7893 75.0449C42.8475 75.2346 42.9116 75.4222 42.9796 75.6118L34.1431 77.7311C33.4408 77.8988 32.8106 78.2776 32.3344 78.8199C31.3469 79.9362 30.5464 80.8904 29.9496 82.1057C28.0627 85.9484 27.9764 90.2897 29.338 94.058C29.4021 94.2555 29.4682 94.449 29.5382 94.6445C29.6023 94.842 29.6684 95.0355 29.7384 95.2309C29.8025 95.4284 29.8686 95.6219 29.9386 95.8174C30.0027 96.0148 30.0688 96.2084 30.1387 96.4038C30.2029 96.6013 30.2689 96.7948 30.3389 96.9903C30.4031 97.1878 30.4691 97.3813 30.5391 97.5767C30.6032 97.7742 30.6693 97.9677 30.7393 98.1632C30.8034 98.3607 30.8695 98.5542 30.9395 98.7496C31.0036 98.9471 31.0697 99.1406 31.1397 99.3361C31.2038 99.5336 31.2699 99.7271 31.3398 99.9225C31.404 100.12 31.47 100.314 31.54 100.509C31.6042 100.706 31.6702 100.9 31.7402 101.095C31.8043 101.293 31.8704 101.486 31.9404 101.682C32.0045 101.879 32.0706 102.073 32.1406 102.268C32.2047 102.466 32.2708 102.659 32.3408 102.855C32.4049 103.052 32.471 103.246 32.5409 103.441C32.6051 103.639 32.6711 103.832 32.7411 104.028C32.8053 104.225 32.8713 104.419 32.9413 104.614C33.0054 104.812 33.0715 105.005 33.1415 105.201C33.2056 105.398 33.2717 105.592 33.3417 105.787C33.4058 105.985 33.4719 106.178 33.5419 106.373C33.606 106.571 33.6721 106.764 33.742 106.96C33.8062 107.157 33.8722 107.351 33.9422 107.546C34.0064 107.744 34.0724 107.937 34.1424 108.133C34.2065 108.33 34.2726 108.524 34.3426 108.719C34.4067 108.917 34.4728 109.11 34.5428 109.306C34.6069 109.503 34.673 109.697 34.743 109.892C34.8071 110.09 34.8731 110.283 34.9431 110.479C35.0073 110.676 35.0733 110.87 35.1433 111.065C35.2075 111.263 35.2735 111.456 35.3435 111.652C35.4076 111.849 35.4737 112.043 35.5437 112.238C35.6078 112.435 35.6739 112.629 35.7439 112.824C35.808 113.022 35.8741 113.215 35.9441 113.411C36.0082 113.608 36.0742 113.802 36.1442 113.997C36.2084 114.195 36.2744 114.388 36.3444 114.584C36.4086 114.781 36.4746 114.975 36.5446 115.17C36.6087 115.368 36.6748 115.561 36.7448 115.757C36.8089 115.954 36.875 116.148 36.945 116.343C37.0091 116.541 37.0752 116.734 37.1452 116.93C37.2093 117.127 37.2753 117.321 37.3453 117.516C37.4095 117.714 37.4755 117.907 37.5455 118.103C37.6097 118.3 37.6757 118.494 37.7457 118.689C37.8098 118.886 37.8759 119.08 37.9459 119.275C38.01 119.473 38.0761 119.666 38.1461 119.862C39.319 123.557 41.8564 126.77 45.4592 128.539C48.3776 129.972 51.5925 130.941 54.9146 131.562C54.9186 131.573 54.9245 131.581 54.9285 131.593C54.9751 131.796 55.0451 131.992 55.1287 132.179C55.1752 132.383 55.2452 132.578 55.3289 132.766C55.3754 132.969 55.4454 133.165 55.5291 133.352C55.5756 133.556 55.6456 133.751 55.7293 133.939C55.7758 134.142 55.8458 134.338 55.9294 134.525C55.976 134.729 56.046 134.924 56.1296 135.112C56.1762 135.315 56.2462 135.511 56.3298 135.698C56.3763 135.902 56.4463 136.097 56.53 136.285C56.5765 136.488 56.6465 136.684 56.7302 136.871C56.7767 137.075 56.8467 137.27 56.9304 137.457C56.9769 137.661 57.0469 137.856 57.1305 138.044C57.1771 138.247 57.2471 138.443 57.3307 138.63C57.3773 138.834 57.4473 139.029 57.5309 139.217C57.5774 139.42 57.6474 139.616 57.7311 139.803C57.7776 140.007 57.8476 140.202 57.9313 140.39C57.9778 140.593 58.0478 140.789 58.1315 140.976C58.178 141.18 58.248 141.375 58.3316 141.563C58.3782 141.766 58.4482 141.962 58.5318 142.149C58.5784 142.353 58.6484 142.548 58.732 142.736C58.7785 142.939 58.8485 143.134 58.9322 143.322C58.9787 143.525 59.0487 143.721 59.1324 143.908C59.1789 144.112 59.2489 144.307 59.3326 144.495C59.3791 144.698 59.4491 144.894 59.5327 145.081C59.5793 145.285 59.6493 145.48 59.7329 145.668C59.7795 145.871 59.8495 146.067 59.9331 146.254C59.9796 146.458 60.0496 146.653 60.1333 146.841C60.1798 147.044 60.2498 147.24 60.3335 147.427C60.38 147.631 60.45 147.826 60.5337 148.014C60.5802 148.217 60.6502 148.413 60.7338 148.6C60.7804 148.804 60.8504 148.999 60.934 149.186C61.1745 150.198 61.8509 151.057 62.7988 151.523C69.0368 154.586 75.9703 155.447 80.6467 155.825C81.5016 155.893 82.3543 155.648 83.0364 155.134C87.3693 151.877 91.2649 148.586 95.0339 145.404C95.9494 144.633 96.8375 143.878 97.7238 143.137C98.7606 144.246 100.029 145.182 101.481 145.895C106.924 148.568 113.468 148.861 120.402 146.907C120.43 146.989 120.456 147.075 120.486 147.153C120.551 147.351 120.611 147.546 120.687 147.739C120.751 147.937 120.811 148.132 120.887 148.326C120.951 148.523 121.011 148.719 121.087 148.912C121.151 149.11 121.211 149.305 121.287 149.499C121.351 149.696 121.411 149.892 121.487 150.085C121.551 150.283 121.612 150.478 121.688 150.672C121.752 150.869 121.812 151.065 121.888 151.258C121.952 151.456 122.012 151.651 122.088 151.845C122.152 152.042 122.212 152.238 122.288 152.431C122.352 152.629 122.412 152.824 122.488 153.018C123.492 156.083 125.915 158.654 129.711 160.518C130.914 161.109 132.181 161.57 133.505 161.908C133.545 162.025 133.589 162.144 133.631 162.257C133.695 162.455 133.761 162.648 133.831 162.844C133.895 163.041 133.961 163.235 134.031 163.43C134.095 163.628 134.161 163.821 134.231 164.017C134.295 164.214 134.361 164.408 134.431 164.603C134.495 164.801 134.562 164.994 134.632 165.19C134.696 165.387 134.762 165.581 134.832 165.776C134.896 165.974 134.962 166.167 135.032 166.363C135.096 166.56 135.162 166.754 135.232 166.949C135.296 167.146 135.362 167.34 135.432 167.535C135.496 167.733 135.562 167.926 135.632 168.122C135.697 168.319 135.763 168.513 135.833 168.708C135.897 168.906 135.963 169.099 136.033 169.295C136.097 169.492 136.163 169.686 136.233 169.881C136.297 170.079 136.363 170.272 136.433 170.468C136.497 170.665 136.563 170.859 136.633 171.054C136.697 171.252 136.764 171.445 136.834 171.641C136.898 171.838 136.964 172.032 137.034 172.227C137.098 172.425 137.164 172.618 137.234 172.814C137.298 173.011 137.364 173.204 137.434 173.4C137.498 173.597 137.564 173.791 137.634 173.986C137.698 174.184 137.764 174.377 137.834 174.573C137.899 174.77 137.965 174.964 138.035 175.159C138.099 175.357 138.165 175.55 138.235 175.746C138.299 175.943 138.365 176.137 138.435 176.332C139.738 180.389 142.197 183.403 145.58 185.064C149.737 187.105 154.775 187.006 159.75 184.788C163.51 183.124 167.592 180.618 172.406 176.977C172.42 177.018 172.434 177.06 172.45 177.097C172.508 177.296 172.578 177.492 172.65 177.683C172.708 177.883 172.778 178.078 172.85 178.27C172.909 178.469 172.979 178.664 173.051 178.856C173.978 181.889 176.235 184.379 179.779 186.119C183.807 188.097 188.636 188.432 194.178 187.136C194.24 187.338 194.304 187.525 194.374 187.711C194.435 187.916 194.501 188.11 194.575 188.297C195.357 190.898 197.007 192.162 198.218 192.757C201.534 194.385 206.042 194.251 212.144 192.302C212.192 192.453 212.246 192.601 212.298 192.754C212.356 192.953 212.428 193.145 212.498 193.34C212.557 193.539 212.629 193.731 212.699 193.926C212.757 194.126 212.829 194.317 212.899 194.513C212.957 194.712 213.029 194.904 213.099 195.099C213.157 195.299 213.229 195.49 213.299 195.686C213.357 195.885 213.429 196.077 213.499 196.272C214.714 200.3 217.658 203.699 222.107 205.883C227.9 208.728 236.515 207.974 245.026 205.783C245.032 205.8 245.042 205.82 245.048 205.838C245.108 206.033 245.172 206.231 245.248 206.424C245.308 206.62 245.372 206.817 245.448 207.01C245.508 207.206 245.572 207.403 245.648 207.597C245.708 207.792 245.773 207.99 245.848 208.183C245.909 208.379 245.973 208.576 246.049 208.77C246.109 208.965 246.173 209.163 246.249 209.356C246.309 209.552 246.373 209.749 246.449 209.943C246.509 210.138 246.573 210.336 246.649 210.529C246.709 210.725 246.773 210.922 246.849 211.116C246.91 211.311 246.974 211.509 247.05 211.702C247.11 211.898 247.174 212.095 247.25 212.289C247.31 212.484 247.374 212.681 247.45 212.875C247.51 213.07 247.574 213.268 247.65 213.461C247.71 213.657 247.774 213.854 247.85 214.048C247.91 214.243 247.975 214.441 248.05 214.634C248.111 214.83 248.175 215.027 248.251 215.221C248.921 217.424 250.575 219.355 253.088 220.589C258.28 223.138 265.884 222.317 277.019 218.012C283.528 215.502 289.872 212.354 294.971 209.825C295.984 209.322 296.933 208.85 297.814 208.419C299.253 207.715 300.033 206.126 299.708 204.56L299.718 204.551Z" fill="#DB3D52"/>
<path d="M191.727 112.534C196.942 115.095 206.139 111.616 208.6 106.605C210.006 103.741 209.222 100.945 206.256 99.4885C201.041 96.9275 191.793 100.51 189.333 105.52C187.927 108.384 188.864 111.128 191.727 112.534Z" fill="#F2CEDA"/>
<path d="M285.956 172.513C282.501 173.863 277.425 176.447 272.397 178.674C268.944 180.278 265.541 181.78 263.607 182.1C267.027 175.91 274.588 171.627 282.115 169.739C284.084 167.279 285.596 164.975 286.701 162.726C287.103 161.907 287.402 161.039 288.602 157.821C283.507 157.857 278.559 157.078 275.086 155.88C275.289 155.726 275.337 155.369 275.54 155.214C276.196 154.394 276.903 153.472 277.556 152.143C278.359 150.507 278.646 147.855 275.987 146.549C273.328 145.244 269.26 146.292 267.277 146.969C262.958 148.528 260.083 152.574 258.325 156.153C257.193 158.458 256.446 159.473 254.14 161.416C253.049 161.978 252.059 162.483 251.037 162.982C244.741 165.983 232.247 171.524 225.805 168.361C223.555 167.256 222.878 165.274 223.983 163.024C224.284 162.41 224.688 161.847 225.244 161.232C234.91 166.359 244.734 164.964 253.502 158.481C255.681 156.886 257.959 154.831 259.315 152.07C262.227 146.139 258.42 140.969 253.716 138.659C242.715 133.258 224.274 140.829 215.681 149.253C215.041 149.592 214.396 149.93 213.752 150.258C209.843 152.273 206.089 154.491 205.066 153.989C204.453 153.688 205.823 152.965 205.974 152.658C211.297 141.818 241.453 119.692 255.755 110.469L239.411 104.982C230.539 111.16 223.149 117.939 215.244 123.957C214.064 122.743 212.68 121.683 211.146 120.929C204.661 117.745 196.578 119.531 189.135 123.516C192.251 120.848 195.47 118.25 198.881 115.795C193.052 112.933 187.848 111.9 183.768 111.42C181.17 113.561 177.019 117.283 172.343 121.426C169.778 122.803 166.923 124.383 164.104 125.879C160.195 127.894 156.593 130.06 155.366 129.457C155.059 129.307 155.823 129.301 155.924 129.097C158.485 123.881 173.478 111.698 182.203 106.336L167.49 100.889L165.967 101.664C164.735 100.297 163.199 99.2892 161.563 98.4857C153.15 94.3546 141.116 97.8764 131.597 104C134.538 100.983 136.89 97.8128 138.354 94.8314C139.911 91.6613 141.654 86.0442 136.131 83.3326C133.268 81.9266 129.852 81.6455 126.543 81.924L127.961 80.8439C120.656 78.1451 115.959 76.8542 110.552 75.976C109.648 76.733 108.745 77.4901 107.845 78.249C109.492 71.6234 103.089 66.5999 97.622 63.9153C92.7134 61.505 87.457 60.32 82.6598 59.2337C80.2612 58.6905 77.9147 58.2997 75.6686 57.7045C73.5247 57.1595 71.3791 56.3597 69.4361 55.4056C66.1637 53.7987 64.7749 51.9745 65.9801 49.5202C68.0891 45.2252 75.5623 42.9296 79.8335 41.727C86.6466 39.7419 102.749 40.0336 108.68 42.9461C111.032 44.101 111.863 46.2859 110.708 48.6379C109.101 51.9103 105.299 54.4852 100.111 55.7454L100.49 58.8506C106.613 60.0803 111.717 61.3174 117.274 61.8888C121.691 59.6152 126.448 55.0973 128.456 51.0068C131.62 44.5643 125.928 39.6121 121.736 37.5533C118.463 35.9464 114.38 34.9568 110.351 34.3744C106.322 33.7919 102.142 33.5163 98.7762 33.1329C88.5272 32.0348 77.4338 33.9488 67.772 36.5659C59.8395 38.7629 46.3395 46.095 42.3223 54.276C39.2592 60.514 43.7323 66.1373 48.5387 68.4974C49.8681 69.1502 51.2979 69.5985 52.6255 69.9965C57.7815 71.386 63.1384 72.3665 68.497 73.6017C73.7535 74.7867 78.8593 76.2785 83.4611 78.5381C86.1199 79.8437 91.233 82.3545 89.4755 85.9336C86.3622 92.2739 63.0339 93.257 56.3869 89.993C53.319 88.4866 51.7686 85.4407 53.0239 82.8841C53.5261 81.8615 54.2328 80.9393 56.5628 79.0374L54.2518 76.5065L34.9748 81.1288C34.1157 82.1031 33.5094 82.8207 33.1077 83.6388C30.4965 88.9565 32.3831 96.2288 38.0075 98.9906C48.336 104.062 63.256 102.885 73.5853 100.976C76.7753 100.395 81.0175 98.9732 85.4359 96.9935C75.7449 105.078 65.8686 113.282 55.3511 121.976C61.18 124.838 67.911 125.605 71.9385 125.933C78.3744 121.097 83.8416 116.166 89.5653 111.489C90.294 113.623 91.8855 115.293 94.033 116.348C102.658 120.583 113.515 117.362 122.516 111.467C120.527 113.59 118.936 115.777 117.889 117.908C115.077 123.635 116.434 128.109 122.263 130.971C127.376 133.482 133.384 132.878 138.57 131.363C138.081 134.169 138.257 137.429 140.916 138.734C143.775 140.138 147.914 139.593 152.262 138.253C149.666 140.17 147.641 141.451 146.542 141.751C144.762 142.273 143.386 142.232 141.853 141.479C140.012 140.575 138.573 138.853 137.575 134.682L134.531 136.487L132.629 148.373C133.518 151.474 135.269 154.111 138.132 155.517C141.916 157.375 146.089 156.632 149.339 155.182C155.836 152.309 163.019 146.727 170.046 140.62C169.557 141.395 169.126 142.155 168.765 142.89C166.254 148.003 165.783 153.357 172.328 156.57C177.543 159.131 183.902 157.812 188.882 155.942C188.393 158.747 188.417 162.059 190.769 163.214C194.902 165.244 202.068 162.929 208.481 160.108C205.948 166.528 207.778 172.962 214.657 176.34C224.891 181.366 247.69 172.771 258.104 166.804C259.625 166.916 260.895 167.144 262.181 167.439C262.742 167.587 263.354 167.634 263.915 167.783C256.812 171.91 244.85 180.505 242.992 184.288C241.435 187.459 243.287 189.891 245.639 191.046C250.752 193.557 259.244 191.254 266.764 188.346C274.436 185.387 282.101 181.409 287.28 178.875L285.96 172.515L285.956 172.513ZM247.004 147.675C247.413 147.876 247.06 148.337 246.909 148.644C244.348 153.859 236.628 157.176 231.012 155.687C235.215 152.04 243.527 145.968 247.004 147.675ZM105.85 109.331C103.498 108.177 104.952 104.956 106.351 101.074C105.382 100.979 104.566 100.832 103.802 100.837L106.589 98.7794C109.935 96.3606 112.875 94.2505 113.992 93.7839C115.415 93.2132 119.035 93.5948 120.773 94.4484C123.125 95.6034 123.65 97.6376 122.344 100.296C120.034 105 109.941 111.34 105.85 109.331ZM142.579 122.671C139.937 123.658 136.579 124.294 134.738 123.39C134.125 123.088 133.814 122.428 134.517 120.997C137.53 114.861 153.903 103.228 159.628 105.786C153.748 110.006 146.462 117.089 142.579 122.671ZM192.683 146.639C190.551 147.623 187.045 149.075 185 148.07C183.773 147.468 184.629 145.984 185.131 144.961C188.194 138.723 202.883 126.644 209.061 128.536C203.084 133.47 196.764 140.139 192.683 146.639Z" fill="#F2CEDA"/>
</g>
<defs>
<clipPath id="clip0_1140_2828">
<rect width="308.533" height="138.775" fill="white" transform="translate(61.1673) rotate(26.1528)"/>
</clipPath>
</defs>
</svg>
