<svg width="159" height="66" viewBox="0 0 159 66" fill="none" xmlns="http://www.w3.org/2000/svg">
<path d="M7.95944 35.1466C8.09714 35.1466 8.21418 35.2489 8.22795 35.3922C8.36565 36.8112 9.77705 37.4729 14.4657 37.4729C18.5622 37.4729 19.8014 37.0227 19.8014 35.8425C19.8014 34.594 18.934 34.3825 14.0113 34.1437C7.39488 33.8436 4.77174 32.8134 4.77174 29.4365C4.77174 26.0595 8.17976 25.0703 13.8598 25.0703C19.5398 25.0703 22.8515 26.4074 23.0442 29.8867C23.0442 29.9686 23.0167 30.0505 22.9616 30.1119C22.9065 30.1733 22.8239 30.2074 22.7344 30.2074H19.4365C19.2782 30.2074 19.1474 30.0914 19.1336 29.9413C18.9546 28.5087 17.254 28.1471 13.426 28.1471C9.59804 28.1471 8.67547 28.5087 8.67547 29.6275C8.67547 30.7463 9.58427 31.0056 14.0113 31.258C19.9942 31.5786 23.7052 31.8993 23.7052 35.706C23.7052 39.7242 19.8634 40.5429 14.2522 40.5429C8.18664 40.5429 4.50323 39.54 4.32422 35.4672C4.32422 35.3854 4.35176 35.3035 4.40684 35.2421C4.46192 35.1807 4.54454 35.1466 4.62716 35.1466H7.95944Z" fill="#E2F8DE"/>
<path d="M44.1623 30.8072C44.1623 34.1568 41.8008 36.3058 38.3514 36.3058H30.6335C30.4614 36.3058 30.3237 36.4422 30.3237 36.6128V40.017C30.3237 40.1876 30.186 40.324 30.0138 40.324H26.7297C26.5576 40.324 26.4199 40.1876 26.4199 40.017V25.5882C26.4199 25.4177 26.5576 25.2812 26.7297 25.2812H38.3514C41.8008 25.2812 44.1623 27.4507 44.1623 30.8072ZM40.2586 30.8072C40.2586 28.5286 38.4341 28.5286 37.2636 28.5286H30.6335C30.4614 28.5286 30.3237 28.665 30.3237 28.8356V32.7583C30.3237 32.9289 30.4614 33.0653 30.6335 33.0653H37.2636C38.4341 33.0653 40.2586 33.0653 40.2586 30.8072Z" fill="#E2F8DE"/>
<path d="M58.4279 37.2882C58.3729 37.1859 58.2696 37.1176 58.1526 37.1176H49.4432C49.3261 37.1176 49.2229 37.1859 49.1678 37.2882L47.7151 40.1535C47.66 40.2558 47.5567 40.324 47.4397 40.324H43.8389C43.7287 40.324 43.6323 40.2695 43.5773 40.174C43.5222 40.0784 43.5153 39.9693 43.5635 39.8738L51.0749 25.445C51.13 25.3427 51.2332 25.2812 51.3503 25.2812H56.2454C56.3625 25.2812 56.4658 25.3427 56.5208 25.445L64.0529 39.8738C64.1011 39.9693 64.1011 40.0853 64.0391 40.174C63.9772 40.2626 63.8808 40.324 63.7775 40.324H60.1561C60.039 40.324 59.9357 40.2558 59.8807 40.1535L58.4279 37.2882ZM56.39 34.2387C56.5002 34.2387 56.5966 34.1841 56.6516 34.0954C56.7067 34.0068 56.7136 33.8908 56.6654 33.7953L54.0836 28.6787C54.0285 28.5763 53.9252 28.5081 53.8082 28.5081C53.6912 28.5081 53.5879 28.5763 53.5328 28.6787L50.9303 33.7953C50.8821 33.8908 50.889 33.9999 50.9441 34.0954C50.9992 34.1909 51.1024 34.2387 51.2057 34.2387H56.3831H56.39Z" fill="#E2F8DE"/>
<path d="M83.2233 32.7788C83.2233 37.9977 80.3385 40.5355 74.1146 40.5355C67.8906 40.5355 65.1229 38.1205 65.0059 33.0926C65.0059 33.0107 65.0334 32.9289 65.0954 32.8743C65.1573 32.8197 65.2331 32.7788 65.3157 32.7788H68.6067C68.7719 32.7788 68.9096 32.9084 68.9165 33.0789C68.9784 35.1051 69.7151 37.295 74.1146 37.295C78.7343 37.295 79.3195 34.8663 79.3195 32.7856V28.8356C79.3195 28.665 79.1818 28.5286 79.0097 28.5286H72.4278C72.2556 28.5286 72.1179 28.3921 72.1179 28.2216V25.5882C72.1179 25.4177 72.2556 25.2812 72.4278 25.2812H82.9134C83.0856 25.2812 83.2233 25.4177 83.2233 25.5882V32.7856V32.7788Z" fill="#E2F8DE"/>
<path d="M104.556 32.807C104.556 37.9236 101.106 40.3319 97.1818 40.3319H86.4758C86.3037 40.3319 86.166 40.1954 86.166 40.0249V25.5961C86.166 25.4255 86.3037 25.2891 86.4758 25.2891H97.1818C101.106 25.2891 104.556 27.6973 104.556 32.8139V32.807ZM100.652 32.807C100.652 29.1504 98.6552 28.5296 95.7085 28.5296H90.3796C90.2075 28.5296 90.0697 28.666 90.0697 28.8366V36.7775C90.0697 36.9481 90.2075 37.0845 90.3796 37.0845H95.7085C98.6552 37.0845 100.652 36.4637 100.652 32.807Z" fill="#E2F8DE"/>
<path d="M111.479 28.3532C111.307 28.3532 111.169 28.4896 111.169 28.6602V31.1025C111.169 31.2731 111.307 31.4095 111.479 31.4095H123.004C123.177 31.4095 123.314 31.5459 123.314 31.7165V33.8996C123.314 34.0701 123.177 34.2066 123.004 34.2066H111.479C111.307 34.2066 111.169 34.343 111.169 34.5136V36.9559C111.169 37.1264 111.307 37.2629 111.479 37.2629H123.004C123.177 37.2629 123.314 37.3993 123.314 37.5699V40.0327C123.314 40.2032 123.177 40.3397 123.004 40.3397H107.575C107.403 40.3397 107.266 40.2032 107.266 40.0327V25.6039C107.266 25.4333 107.403 25.2969 107.575 25.2969H123.004C123.177 25.2969 123.314 25.4333 123.314 25.6039V28.0667C123.314 28.2372 123.177 28.3737 123.004 28.3737H111.479V28.3532Z" fill="#E2F8DE"/>
<path d="M140.798 35.7171C140.716 35.7512 140.661 35.8263 140.633 35.9081C140.606 35.99 140.619 36.0855 140.667 36.1537L142.981 39.8513C143.043 39.9468 143.043 40.0628 142.988 40.1583C142.933 40.2538 142.829 40.3152 142.719 40.3152H138.85C138.74 40.3152 138.643 40.2607 138.588 40.1651L136.316 36.4403C136.261 36.3516 136.158 36.2902 136.055 36.2902H130.251C130.079 36.2902 129.941 36.4266 129.941 36.5972V40.0014C129.941 40.172 129.803 40.3084 129.631 40.3084H126.347C126.175 40.3084 126.037 40.172 126.037 40.0014V25.5726C126.037 25.4021 126.175 25.2656 126.347 25.2656H137.969C141.418 25.2656 143.779 27.4351 143.779 30.7915C143.779 33.1111 142.65 34.8507 140.805 35.7035L140.798 35.7171ZM129.934 32.7563C129.934 32.9269 130.072 33.0633 130.244 33.0633H136.874C138.044 33.0633 139.869 33.0633 139.869 30.8052C139.869 28.5471 138.044 28.5266 136.874 28.5266H130.244C130.072 28.5266 129.934 28.663 129.934 28.8336V32.7563Z" fill="#E2F8DE"/>
</svg>
