<svg width="1440" height="214" viewBox="0 0 1440 214" fill="none" xmlns="http://www.w3.org/2000/svg">
<path d="M59.5944 139.349C60.9714 139.349 62.1418 140.372 62.2795 141.805C63.6565 155.995 77.7705 162.612 124.657 162.612C165.622 162.612 178.014 158.11 178.014 146.307C178.014 133.823 169.34 131.708 120.113 129.32C53.9488 126.318 27.7174 116.017 27.7174 82.2475C27.7174 48.478 61.7976 38.5859 118.598 38.5859C175.398 38.5859 208.515 51.9573 210.442 86.7501C210.442 87.5688 210.167 88.3875 209.616 89.0014C209.065 89.6154 208.239 89.9565 207.344 89.9565H174.366C172.782 89.9565 171.474 88.7968 171.336 87.2959C169.546 72.9695 152.54 69.3537 114.26 69.3537C75.9805 69.3537 66.7547 72.9695 66.7547 84.1577C66.7547 95.346 75.8427 97.9384 120.113 100.463C179.942 103.669 217.052 106.875 217.052 144.943C217.052 185.125 178.634 193.312 122.522 193.312C61.8664 193.312 25.0323 183.283 23.2422 142.555C23.2422 141.736 23.5176 140.918 24.0684 140.304C24.6192 139.69 25.4454 139.349 26.2716 139.349H59.5944Z" fill="#152E1F"/>
<path d="M421.619 95.9585C421.619 129.455 398.004 150.945 363.51 150.945H286.331C284.61 150.945 283.233 152.309 283.233 154.015V188.057C283.233 189.763 281.856 191.127 280.134 191.127H247.294C245.572 191.127 244.195 189.763 244.195 188.057V43.7692C244.195 42.0636 245.572 40.6992 247.294 40.6992H363.51C398.004 40.6992 421.619 62.3936 421.619 95.9585ZM382.582 95.9585C382.582 73.1726 364.337 73.1726 352.632 73.1726H286.331C284.61 73.1726 283.233 74.537 283.233 76.2425V115.47C283.233 117.175 284.61 118.54 286.331 118.54H352.632C364.337 118.54 382.582 118.54 382.582 95.9585Z" fill="#152E1F"/>
<path d="M564.279 160.769C563.729 159.745 562.696 159.063 561.526 159.063H474.432C473.261 159.063 472.229 159.745 471.678 160.769L457.151 189.422C456.6 190.445 455.567 191.127 454.397 191.127H418.389C417.287 191.127 416.323 190.581 415.773 189.626C415.222 188.671 415.153 187.58 415.635 186.624L490.749 42.3365C491.3 41.3132 492.332 40.6992 493.503 40.6992H542.454C543.625 40.6992 544.658 41.3132 545.208 42.3365L620.529 186.624C621.011 187.58 621.011 188.739 620.391 189.626C619.772 190.513 618.808 191.127 617.775 191.127H581.561C580.39 191.127 579.357 190.445 578.807 189.422L564.279 160.769ZM543.9 130.274C545.002 130.274 545.966 129.728 546.516 128.841C547.067 127.954 547.136 126.794 546.654 125.839L520.836 74.6734C520.285 73.6501 519.252 72.9679 518.082 72.9679C516.912 72.9679 515.879 73.6501 515.328 74.6734L489.303 125.839C488.821 126.794 488.89 127.886 489.441 128.841C489.992 129.796 491.024 130.274 492.057 130.274H543.831H543.9Z" fill="#152E1F"/>
<path d="M812.23 115.674C812.23 167.864 783.382 193.242 721.143 193.242C658.903 193.242 631.226 169.092 630.056 118.813C630.056 117.994 630.331 117.175 630.951 116.629C631.57 116.084 632.328 115.674 633.154 115.674H666.064C667.716 115.674 669.093 116.971 669.162 118.676C669.781 138.938 677.148 160.837 721.143 160.837C767.34 160.837 773.192 136.55 773.192 115.743V76.2425C773.192 74.537 771.815 73.1725 770.094 73.1725H704.275C702.554 73.1725 701.177 71.8081 701.177 70.1026V43.7692C701.177 42.0636 702.554 40.6992 704.275 40.6992H809.132C810.853 40.6992 812.23 42.0636 812.23 43.7692V115.743V115.674Z" fill="#152E1F"/>
<path d="M1025.56 115.957C1025.56 167.123 991.062 191.205 951.818 191.205H844.758C843.037 191.205 841.66 189.841 841.66 188.135V43.8473C841.66 42.1418 843.037 40.7773 844.758 40.7773H951.818C991.062 40.7773 1025.56 64.8594 1025.56 116.025V115.957ZM986.518 115.957C986.518 79.3906 966.552 73.1824 937.085 73.1824H883.796C882.075 73.1824 880.697 74.5469 880.697 76.2524V155.662C880.697 157.367 882.075 158.732 883.796 158.732H937.085C966.552 158.732 986.518 152.524 986.518 115.957Z" fill="#152E1F"/>
<path d="M1094.79 71.4147C1093.07 71.4147 1091.69 72.7791 1091.69 74.4846V98.9079C1091.69 100.613 1093.07 101.978 1094.79 101.978H1210.04C1211.76 101.978 1213.14 103.342 1213.14 105.048V126.879C1213.14 128.584 1211.76 129.949 1210.04 129.949H1094.79C1093.07 129.949 1091.69 131.313 1091.69 133.019V157.442C1091.69 159.147 1093.07 160.512 1094.79 160.512H1210.04C1211.76 160.512 1213.14 161.876 1213.14 163.582V188.21C1213.14 189.915 1211.76 191.279 1210.04 191.279H1055.75C1054.03 191.279 1052.65 189.915 1052.65 188.21V43.9215C1052.65 42.216 1054.03 40.8516 1055.75 40.8516H1210.04C1211.76 40.8516 1213.14 42.216 1213.14 43.9215V68.5494C1213.14 70.2549 1211.76 71.6194 1210.04 71.6194H1094.79V71.4147Z" fill="#152E1F"/>
<path d="M1387.98 145.054C1387.16 145.395 1386.61 146.146 1386.33 146.964C1386.06 147.783 1386.19 148.738 1386.67 149.42L1409.81 186.396C1410.43 187.351 1410.43 188.511 1409.88 189.466C1409.33 190.421 1408.29 191.035 1407.19 191.035H1368.5C1367.4 191.035 1366.43 190.489 1365.88 189.534L1343.16 152.285C1342.61 151.399 1341.58 150.785 1340.55 150.785H1282.51C1280.79 150.785 1279.41 152.149 1279.41 153.855V187.897C1279.41 189.603 1278.03 190.967 1276.31 190.967H1243.47C1241.75 190.967 1240.37 189.603 1240.37 187.897V43.609C1240.37 41.9035 1241.75 40.5391 1243.47 40.5391H1359.69C1394.18 40.5391 1417.79 62.2334 1417.79 95.7983C1417.79 118.993 1406.5 136.39 1388.05 144.918L1387.98 145.054ZM1279.34 115.446C1279.34 117.152 1280.72 118.516 1282.44 118.516H1348.74C1360.44 118.516 1378.69 118.516 1378.69 95.9347C1378.69 73.3535 1360.44 73.1488 1348.74 73.1488H1282.44C1280.72 73.1488 1279.34 74.5132 1279.34 76.2188V115.446Z" fill="#152E1F"/>
</svg>
